<svg width="265" height="55" viewBox="0 0 265 55" fill="none" xmlns="http://www.w3.org/2000/svg">
<path d="M265 54.9063C261.051 55 257.011 55 253.061 55C252.163 51.6269 251.176 48.2538 250.278 44.8807C246.598 44.8807 242.737 44.7871 239.147 44.9744C238.338 48.3475 237.62 51.8143 236.723 55C232.952 55 229.272 55 225.501 55C229.541 41.1329 233.491 27.172 237.531 13.3987C242.378 13.3987 247.226 13.3987 252.073 13.3987C256.472 27.0783 260.691 41.0392 265 54.9063ZM240.762 36.2606C243.365 36.2606 245.969 36.2606 248.662 36.2606C247.226 31.201 245.969 26.0476 244.353 21.1755C243.276 26.2351 242.019 31.2947 240.762 36.2606Z" fill="#D81F34"/>
<path d="M54.4004 0C58.2605 0 62.1206 0 66.0705 0C66.0705 0.28109 65.8909 0.468484 65.7114 0.56218C63.0183 3.74787 60.1457 7.12095 57.4526 10.3067C54.58 10.3067 51.6176 10.3067 48.7449 10.3067C48.7449 9.93181 49.0142 9.55705 49.2835 9.08862C50.8994 6.18398 52.6948 2.99829 54.3107 0.187393C54.3107 0.187393 54.3107 0.0936971 54.4004 0Z" fill="#D81F34"/>
<path d="M24.1481 54.9999C22.9811 54.9999 21.814 54.9999 20.647 54.9999C8.61788 54.063 1.07724 48.16 0 35.3236C0 34.4804 0 33.7308 0 32.8875C0 32.8875 -8.12327e-08 32.8875 0.08977 32.8875C0.628388 23.7052 4.75779 17.896 10.9519 14.7103C14.0041 13.2112 17.8642 12.0868 22.1732 11.8994C26.4821 11.7121 30.7012 12.2743 33.8432 14.0545C33.125 17.0527 32.4068 20.0511 31.6887 23.0493C27.9184 21.1754 21.814 20.6133 17.8642 22.3935C14.0041 24.08 11.4008 27.5468 11.311 33.2623C11.2212 43.1941 19.2107 46.8483 28.457 44.9744C29.624 44.6933 30.6115 44.3185 31.6887 44.1311C32.1375 47.1294 32.8557 50.1277 33.2148 53.0323C30.7012 54.2503 27.4695 54.7188 24.1481 54.9999Z" fill="#D81F34"/>
<path d="M54.4004 54.9999C53.3232 54.9999 52.2459 54.9999 51.079 54.9999C45.1541 54.7189 40.3066 51.8143 37.3441 48.3475C34.2022 44.6933 32.0478 39.2589 32.4966 32.0442C32.8557 25.5792 35.3692 20.707 38.8703 17.4276C42.3713 14.1482 47.3086 11.7121 53.5925 11.8994C60.0559 12.0869 64.6342 14.1482 68.1352 17.7087C71.4567 21.0817 73.8805 26.2351 73.8805 33.0749C73.8805 40.0085 71.6361 45.1618 68.4045 48.7222C65.083 52.2828 60.5945 54.4378 54.4004 54.9999ZM46.0518 25.1107C44.7053 27.2657 43.8076 30.5451 43.8973 34.1993C43.9872 40.8518 47.6677 46.4735 54.1311 45.9113C59.7866 45.4429 62.749 39.7274 62.4797 32.7002C62.2104 26.1414 58.8889 20.6133 52.8743 20.8944C49.6426 21.0817 47.3984 22.8619 46.0518 25.1107Z" fill="#D81F34"/>
<path d="M172.627 55C171.55 55 170.473 55 169.395 55C169.395 55 169.395 55 169.395 54.9063C163.202 54.4378 158.803 52.0954 155.661 48.3475C152.518 44.5997 150.454 39.1653 150.813 32.138C151.172 25.6729 153.686 20.8007 157.186 17.4277C160.598 14.0546 165.805 11.7122 171.998 11.8995C178.462 12.0869 182.951 14.1482 186.541 17.7088C189.953 21.1755 192.196 26.2351 192.287 33.075C192.377 39.9149 190.043 45.1619 186.81 48.7223C183.31 52.3765 178.731 54.4378 172.627 55ZM164.368 24.9234C162.932 27.0784 162.034 30.2641 162.034 33.5435C162.034 40.196 165.086 45.5366 170.563 45.9114C178.821 46.5673 182.592 36.5418 179.898 28.0153C178.642 24.0801 175.769 20.707 171.101 20.8944C167.959 21.0818 165.805 22.7683 164.368 24.9234Z" fill="#D81F34"/>
<path d="M100.452 34.7615C100.632 35.1362 100.991 35.2299 101.26 35.3237C106.197 38.603 106.377 47.9727 108.801 54.2503C105.21 54.2503 101.529 54.2503 97.9388 54.2503C97.0414 52.4701 96.4124 50.034 95.7842 47.5979C94.9765 44.4122 94.4381 40.6643 92.1938 39.4463C90.8469 38.6967 89.0512 38.7904 86.8967 38.7904C86.8967 43.9438 86.8967 49.0971 86.8967 54.3441C83.3961 54.3441 79.8053 54.3441 76.3043 54.3441C76.3043 40.6643 76.3043 26.9846 76.3043 13.2112C82.8574 12.4616 91.7443 11.431 98.208 13.1175C101.529 13.9607 104.043 15.5536 105.659 18.0834C107.365 20.8006 107.903 25.1107 106.647 28.4838C105.39 31.482 103.325 33.4497 100.452 34.7615ZM96.0534 27.9216C97.1311 26.1414 96.6816 23.6115 95.6047 22.3935C93.8988 20.4259 89.9495 20.6133 86.8069 20.988C86.8069 24.1737 86.8069 27.3594 86.8069 30.5451C91.0263 30.6388 94.5278 30.5451 96.0534 27.9216Z" fill="#D81F34"/>
<path d="M110.865 54.063C110.865 40.3832 110.865 26.7972 110.865 13.1176C117.688 12.1805 126.934 11.5247 133.847 13.0238C141.118 14.5229 146.235 18.7393 148.21 26.0476C149.197 29.7955 149.287 34.6677 148.21 38.8841C146.415 46.3798 141.477 50.8773 134.834 53.0323C128.281 55.0936 119.125 55.1874 110.865 54.063ZM135.193 41.0392C137.886 37.385 138.515 29.7956 135.821 25.6729C133.397 21.925 127.473 20.2385 121.548 21.3628C121.548 29.4207 121.548 37.5723 121.548 45.6302C127.652 46.2862 132.41 44.787 135.193 41.0392Z" fill="#D81F34"/>
<path d="M219.308 31.4821C223.257 32.9813 226.309 35.2299 226.938 40.1022C227.656 45.3492 225.142 49.2845 222.09 51.4395C215.986 55.6558 203.777 55.0936 194.89 53.9693C194.89 40.3833 194.89 26.7036 194.89 13.1176C203.957 12.0869 218.14 10.494 223.437 16.3033C224.873 17.8961 225.771 20.2385 225.771 22.6746C225.771 27.7342 222.808 29.8893 219.308 31.4821ZM214.64 25.6729C214.999 24.8296 215.088 23.8927 214.64 22.862C213.562 20.2385 208.535 20.3322 205.393 20.8944C205.393 23.4242 205.393 25.8603 205.393 28.3901C209.343 28.2964 213.472 28.4838 214.64 25.6729ZM205.393 36.7292C205.393 39.8211 205.393 43.0068 205.393 46.0988C210.33 46.7546 215.986 46.0051 215.717 40.8518C215.447 36.3543 210.061 36.5417 205.483 36.5417C205.393 36.5417 205.393 36.6354 205.393 36.7292Z" fill="#D81F34"/>
</svg>
