<svg width="310" height="33" viewBox="0 0 310 33" fill="none" xmlns="http://www.w3.org/2000/svg">
<path d="M210.45 31.4781C212.911 31.3179 213.071 31.2379 213.071 29.3155V4.16505C213.071 2.48301 212.753 2.08253 212.038 1.92233L210.53 1.68204V0.800971L218.628 0L218.707 0.0800971V29.3956C218.707 31.2379 218.866 31.3981 221.247 31.5583C223.629 31.3981 223.788 31.2379 223.788 29.3956V4.16505C223.788 2.48301 223.47 2.08253 222.756 1.92233L221.247 1.68204V0.800971L229.344 0L229.424 0.0800971V29.3956C229.424 31.3179 229.583 31.3981 232.044 31.5583V32.5194H221.327H221.168H210.45V31.4781ZM9.36748 5.28641V29.0753C9.36748 30.9175 9.9232 31.3981 12.781 31.3981C18.0999 31.3981 22.3073 28.5947 22.3073 17.301C22.3073 9.21117 19.5288 3.84466 13.0192 3.84466C9.84375 3.76456 9.36748 4.00485 9.36748 5.28641ZM0 2.7233H14.0513C19.5288 2.7233 23.0218 3.60437 25.5621 6.08738C28.0231 8.57039 29.0551 12.0947 29.0551 16.8204C29.0551 30.4369 19.8464 32.4393 12.3841 32.4393H0V31.4781C3.01664 31.3179 3.2548 31.0777 3.2548 28.9151V6.32767C3.2548 4.08495 2.77849 3.92476 0 3.68447V2.7233ZM35.7234 2.64321C37.6287 2.64321 38.6607 4.00485 38.6607 5.60679C38.6607 7.20874 37.5493 8.57039 35.7234 8.57039C33.8976 8.57039 32.7862 7.20874 32.7862 5.60679C32.8656 4.00485 33.8976 2.64321 35.7234 2.64321ZM33.0244 29.3155V15.699C33.0244 14.017 32.7068 13.6966 31.9129 13.5364L30.6428 13.2961V12.4151L38.4226 11.2136L38.5814 11.3738V29.3155C38.5814 31.2379 38.74 31.3179 41.2011 31.5583V32.5194H30.484V31.5583C32.7862 31.3179 33.0244 31.2379 33.0244 29.3155ZM59.6979 17.301V27.6335C59.6979 30.1966 60.1742 30.7573 60.8092 30.9976C61.2856 31.1578 61.9207 31.1578 62.4764 31.1578V31.7985C61.2061 32.5995 59.6184 33 57.5544 33C55.4905 33 54.6966 31.7985 54.379 30.2767C52.8707 31.2379 51.0448 33 48.3458 33C44.1383 33 42.3124 30.0364 42.3124 26.8325C42.3124 24.5097 43.265 22.7476 46.5993 21.8665C49.6159 21.0655 53.2676 20.0243 54.2997 18.9029V16.2597C54.2997 13.4563 53.1089 12.1747 51.3624 12.1747C49.6159 12.1747 48.2663 13.2961 47.5519 17.301C47.3137 18.2621 46.758 18.5825 45.8847 18.5825C44.8528 18.5825 42.9476 17.9417 42.9476 16.1796C42.9476 13.8568 46.0435 11.0534 51.8387 11.0534C58.9834 11.1335 59.6979 14.6578 59.6979 17.301ZM54.2202 27.5534V20.1044C53.2676 20.5849 51.5212 21.3058 50.1716 22.1068C48.5839 22.8277 48.0282 23.949 48.0282 25.9515C48.0282 28.5145 49.219 30.7573 51.4417 30.7573C52.4737 30.6772 54.2202 30.1165 54.2202 27.5534ZM71.1293 18.7427V29.2355C71.1293 31.0777 71.2881 31.2379 74.6223 31.4781V32.4393H62.8733V31.4781C65.3342 31.3179 65.493 31.0777 65.493 29.2355V15.6189C65.493 14.017 65.1754 13.6165 64.461 13.4563L63.1114 13.2961V12.4151L70.4943 11.2136L70.9706 15.2985C73.5903 12.4951 74.781 11.2136 76.5275 11.2136C78.3534 11.2136 79.306 12.3349 79.306 13.9369C79.306 15.4587 78.1946 17.301 76.5275 17.301C75.8925 17.301 75.3368 16.9806 74.9398 16.6602C74.0666 15.8592 73.4316 15.4587 72.7171 15.4587C71.7644 15.3787 71.1293 16.3398 71.1293 18.7427ZM85.0218 2.64321C86.927 2.64321 87.9591 4.00485 87.9591 5.60679C87.9591 7.20874 86.8477 8.57039 85.0218 8.57039C83.196 8.57039 82.0845 7.20874 82.0845 5.60679C82.1639 4.00485 83.196 2.64321 85.0218 2.64321ZM82.3227 29.3155V15.699C82.3227 14.017 82.0052 13.6966 81.2113 13.5364L79.9411 13.2961V12.4151L87.7209 11.2136L87.8797 11.3738V29.3155C87.8797 31.2379 88.0385 31.3179 90.4994 31.5583V32.5194H79.6236V31.5583C82.0845 31.3179 82.3227 31.2379 82.3227 29.3155ZM100.82 11.1335C108.282 11.1335 111.298 15.2985 111.298 22.1068C111.298 28.9151 108.282 33 100.82 33C93.4367 33 90.3406 28.9151 90.3406 22.1068C90.3406 15.2985 93.3573 11.1335 100.82 11.1335ZM96.2941 22.1068C96.2941 27.8738 97.6441 31.9587 100.82 31.9587C103.995 31.9587 105.265 27.8738 105.265 22.1068C105.265 16.3398 103.995 12.2549 100.82 12.2549C97.6441 12.2549 96.2941 16.3398 96.2941 22.1068ZM129.398 5.76699L136.86 4.96602L136.94 5.04612L131.304 28.9951C131.065 30.0364 130.986 30.7573 131.7 30.7573C132.574 30.7573 134.082 28.8349 134.876 27.1529L135.431 27.5534C134.003 30.7573 131.859 32.9199 129.16 32.9199C126.937 32.9199 126.62 31.7985 127.255 28.9151C127.493 27.7937 127.81 26.6723 128.048 25.551H127.97C125.905 29.2355 123.206 32.9199 119.078 32.9199C116.141 32.9199 115.585 30.5971 115.585 28.1942C115.585 23.949 118.999 14.4175 127.493 14.4175C128.684 14.4175 129.636 14.7379 130.271 15.2185L131.859 8.25C132.097 7.28883 131.939 6.88834 131.304 6.72815L129.16 6.48787L129.398 5.76699ZM120.11 28.4345C120.11 29.9563 120.507 30.7573 121.539 30.7573C124.556 30.7573 127.81 24.8301 128.922 20.4247C129.081 19.5437 129.874 16.8204 130.033 16.0194C129.636 15.699 128.763 15.5389 127.89 15.5389C123.206 15.6189 120.11 24.75 120.11 28.4345ZM149.562 26.7524L150.118 27.233C147.577 31.7185 144.323 33 141.227 33C138.765 33 135.749 31.8787 135.749 26.9126C135.749 24.0291 136.622 20.8253 138.607 18.4223C140.513 16.0194 142.973 14.4976 146.466 14.4976C149.642 14.4976 150.991 15.9393 150.991 18.3422C150.991 22.9879 143.529 24.3495 140.353 24.6699C140.353 24.9903 140.274 26.1117 140.274 26.4321C140.274 28.9951 141.068 31.1578 143.37 31.1578C145.673 31.0777 147.657 29.5558 149.562 26.7524ZM140.353 23.7087C144.64 22.9078 147.181 20.3447 147.181 17.2209C147.181 16.0194 146.624 15.3787 145.673 15.3787C143.529 15.3787 141.147 19.1432 140.353 23.7087ZM163.534 32.4393H153.69V31.4781C156.39 31.0777 157.104 31.0777 157.421 28.1942C157.58 26.6723 157.659 24.3495 157.659 22.1068V6.32767C157.659 4.08495 157.263 3.92476 154.087 3.68447V2.7233H163.534L172.505 23.2281H172.663L180.602 2.7233H189.731V3.68447C186.556 3.84466 186.397 4.00485 186.397 6.32767V28.9151C186.397 31.1578 186.556 31.3179 189.731 31.4781V32.4393H177.109V31.4781C180.126 31.2379 180.364 31.1578 180.364 28.9151V6.72815H180.204L170.758 32.4393H169.171L159.247 7.04855H159.167V22.1869C159.167 24.5097 159.247 26.7524 159.406 28.2743C159.724 31.3179 160.676 31.2379 163.534 31.5583V32.4393ZM207.514 17.301V27.6335C207.514 30.1966 207.989 30.7573 208.625 30.9976C209.101 31.1578 209.737 31.1578 210.292 31.1578V31.7985C209.022 32.5995 207.434 33 205.37 33C203.306 33 202.512 31.7985 202.194 30.2767C200.686 31.2379 198.86 33 196.161 33C191.954 33 190.128 30.0364 190.128 26.8325C190.128 24.5097 191.081 22.7476 194.415 21.8665C197.432 21.0655 201.083 20.0243 202.116 18.9029V16.2597C202.116 13.4563 200.925 12.1747 199.178 12.1747C197.432 12.1747 196.082 13.2961 195.368 17.301C195.13 18.2621 194.573 18.5825 193.7 18.5825C192.669 18.5825 190.763 17.9417 190.763 16.1796C190.763 13.8568 193.859 11.0534 199.655 11.0534C206.799 11.1335 207.514 14.6578 207.514 17.301ZM202.036 27.5534V20.1044C201.083 20.5849 199.337 21.3058 197.987 22.1068C196.399 22.8277 195.844 23.949 195.844 25.9515C195.844 28.5145 197.034 30.7573 199.257 30.7573C200.29 30.6772 202.036 30.1165 202.036 27.5534ZM243.395 11.1335C250.858 11.1335 253.875 15.2985 253.875 22.1068C253.875 28.9151 250.858 33 243.395 33C236.013 33 232.917 28.9151 232.917 22.1068C232.837 15.2985 235.934 11.1335 243.395 11.1335ZM238.871 22.1068C238.871 27.8738 240.221 31.9587 243.395 31.9587C246.571 31.9587 247.842 27.8738 247.842 22.1068C247.842 16.3398 246.571 12.2549 243.395 12.2549C240.221 12.2549 238.871 16.3398 238.871 22.1068ZM262.528 18.7427V29.2355C262.528 31.0777 262.686 31.2379 266.02 31.4781V32.4393H254.272V31.4781C256.733 31.3179 256.891 31.0777 256.891 29.2355V15.6189C256.891 14.017 256.494 13.6165 255.78 13.4563L254.43 13.2961V12.4151L261.971 11.2136L262.448 15.2985C265.068 12.4951 266.258 11.2136 268.005 11.2136C269.831 11.2136 270.784 12.3349 270.784 13.9369C270.784 15.4587 269.672 17.301 268.005 17.301C267.37 17.301 266.815 16.9806 266.418 16.6602C265.544 15.8592 264.909 15.4587 264.195 15.4587C263.163 15.3787 262.528 16.3398 262.528 18.7427ZM288.248 26.1117L288.883 26.4321C287.613 31.2379 283.961 33 280.072 33C274.039 33 270.466 29.3956 270.466 22.3471C270.466 15.7791 273.879 11.2136 280.945 11.2136C284.994 11.2136 288.566 12.9757 288.566 15.7791C288.566 17.6213 286.74 18.2621 285.391 18.2621C284.359 18.2621 283.723 17.8617 283.485 16.9005C283.009 14.017 282.453 12.2549 280.31 12.2549C278.087 12.2549 276.34 15.2985 276.34 21.1456C276.34 27.3932 278.723 30.517 281.897 30.517C284.358 30.517 286.74 29.6359 288.248 26.1117ZM307.221 17.301V27.6335C307.221 30.1966 307.698 30.7573 308.333 30.9976C308.809 31.1578 309.444 31.1578 310 31.1578V31.7985C308.73 32.5995 307.142 33 305.078 33C303.014 33 302.221 31.7985 301.903 30.2767C300.395 31.2379 298.569 33 295.869 33C291.662 33 289.836 30.0364 289.836 26.8325C289.836 24.5097 290.789 22.7476 294.123 21.8665C297.139 21.0655 300.791 20.0243 301.824 18.9029V16.2597C301.824 13.4563 300.633 12.1747 298.887 12.1747C297.139 12.1747 295.79 13.2961 295.076 17.301C294.838 18.2621 294.282 18.5825 293.408 18.5825C292.377 18.5825 290.471 17.9417 290.471 16.1796C290.471 13.8568 293.567 11.0534 299.362 11.0534C306.508 11.1335 307.221 14.6578 307.221 17.301ZM301.744 27.5534V20.1044C300.791 20.5849 299.045 21.3058 297.695 22.1068C296.108 22.8277 295.552 23.949 295.552 25.9515C295.552 28.5145 296.743 30.7573 298.965 30.7573C299.998 30.6772 301.744 30.1165 301.744 27.5534Z" fill="#1567AC"/>
</svg>
