<svg width="138" height="55" viewBox="0 0 138 55" fill="none" xmlns="http://www.w3.org/2000/svg">
<path d="M7.22853 54.3452L8.16731 54.1582V48.1717L7.22853 47.9846V47.5169H10.2327V47.9846L9.2 48.1717V54.2517H11.6408L12.1102 52.568H12.5796L12.4857 54.9065H7.13466V54.3452H7.22853Z" fill="#1D64AF"/>
<path d="M12.955 54.3452L13.7061 54.1582L16.053 47.5169H16.8979L19.151 54.1582L19.902 54.3452V54.8129H17.1796V54.3452L18.0245 54.1582L17.4612 52.4745H15.0203L14.4571 54.1582L15.302 54.3452V54.8129H12.955V54.3452ZM15.2081 51.9132H17.2734L16.2408 48.8264H16.1469L15.2081 51.9132Z" fill="#1D64AF"/>
<path d="M22.1551 51.165C22.1551 48.5459 23.8449 47.4234 25.4408 47.4234C27.2245 47.4234 28.7265 48.7329 28.7265 51.165C28.7265 53.784 27.0367 55 25.4408 55C23.6571 54.9065 22.1551 53.5969 22.1551 51.165ZM27.6 51.2585C27.6 49.1071 26.8489 47.9846 25.4408 47.9846C23.9387 47.9846 23.2816 49.2942 23.2816 51.0714C23.2816 53.0357 23.8449 54.3452 25.4408 54.3452C26.9429 54.3452 27.6 53.0357 27.6 51.2585Z" fill="#1D64AF"/>
<path d="M29.2898 54.3452L30.2285 54.1582V48.1717L29.2898 47.9846V47.5169H32.1061C34.1714 47.5169 34.9224 48.2653 34.9224 49.5748C34.9224 51.0714 33.7959 51.7261 32.5755 51.7261C32.2938 51.7261 31.9184 51.6326 31.9184 51.6326V51.165C31.9184 51.165 32.1061 51.165 32.3878 51.165C33.3265 51.165 33.7959 50.6037 33.7959 49.5748C33.7959 48.5459 33.3265 48.0782 32.2938 48.0782H31.2612V54.0647L32.3878 54.2517V54.7194H29.2898V54.3452Z" fill="#1D64AF"/>
<path d="M35.1102 54.3452L36.0489 54.1582V48.1717L35.1102 47.9846V47.5169H38.0204V47.9846L37.0816 48.1717V54.2517L38.0204 54.4387V54.9065H35.1102V54.3452Z" fill="#1D64AF"/>
<path d="M38.3959 54.3452L39.3347 54.1582V48.1717L38.3959 47.9846V47.5169H40.7429L43.9347 52.9421H44.0286V48.1717L43.0898 47.9846V47.5169H45.5306V47.8911L44.6857 48.1717V54.8129H43.8408L40.0857 48.4524V54.2517L41.0245 54.4387V54.8129H38.3959V54.3452Z" fill="#1D64AF"/>
<path d="M45.9062 54.3452L46.8449 54.1582V48.1717L45.9062 47.9846V47.5169H48.8164V47.9846L47.8776 48.1717V54.2517L48.8164 54.4387V54.9065H45.9062V54.3452Z" fill="#1D64AF"/>
<path d="M49.2857 51.165C49.2857 48.5459 50.9755 47.4234 52.5715 47.4234C54.3551 47.4234 55.8571 48.7329 55.8571 51.165C55.8571 53.784 54.1673 55 52.5715 55C50.6939 54.9065 49.2857 53.5969 49.2857 51.165ZM54.7306 51.2585C54.7306 49.1071 53.9796 47.9846 52.5715 47.9846C51.0694 47.9846 50.4122 49.2942 50.4122 51.0714C50.4122 53.0357 50.9755 54.3452 52.5715 54.3452C54.0735 54.3452 54.7306 53.0357 54.7306 51.2585ZM51.7265 47.1428L51.5388 46.7687L53.5102 45.6462L53.8857 46.488L51.7265 47.1428Z" fill="#1D64AF"/>
<path d="M56.4204 54.3452L57.3592 54.1582V48.1717L56.4204 47.9846V47.5169H58.7673L61.9592 52.9421H62.0531V48.1717L61.1143 47.9846V47.5169H63.5551V47.8911L62.7102 48.1717V54.8129H61.8653L58.1102 48.4524V54.2517L59.049 54.4387V54.8129H56.4204V54.3452Z" fill="#1D64AF"/>
<path d="M65.8082 54.3452L66.747 54.1582V48.1717L65.8082 47.9846V47.5169H68.7184C71.347 47.5169 72.3797 48.7329 72.3797 50.9779C72.3797 53.4098 71.2531 54.8129 68.8123 54.8129H65.8082V54.3452ZM68.9062 54.2517C70.5021 54.2517 71.2531 53.5034 71.2531 51.165C71.2531 48.4524 70.3143 48.1717 68.5306 48.1717H67.7797V54.2517H68.9062Z" fill="#1D64AF"/>
<path d="M72.9429 54.3452L73.8817 54.1582V48.1717L72.9429 47.9846V47.5169H78.3878L78.4817 49.2942H78.0123L77.5429 48.0782H74.9143V50.7908H76.3225L76.6041 49.7619H77.0735V52.2874H76.6041L76.3225 51.2585H74.9143V54.1582H77.6368L78.2001 52.6616H78.6695L78.5755 54.7194H72.9429V54.3452Z" fill="#1D64AF"/>
<path d="M82.5184 54.3452L83.4572 54.1582V48.0782H81.8613L81.4857 49.5748H81.0164L81.1103 47.5169H86.931L87.0244 49.5748H86.5548L86.1794 48.0782H84.5837V54.1582L85.5221 54.3452V54.8129H82.5184V54.3452Z" fill="#1D64AF"/>
<path d="M87.3063 54.3452L88.2447 54.1582V48.1717L87.3063 47.9846V47.5169H92.7507L92.845 49.2942H92.3754L91.9066 48.0782H89.2774V50.7908H90.6854L90.9673 49.7619H91.437V52.2874H90.9673L90.6854 51.352H89.2774V54.2517H92L92.563 52.7551H93.0327L92.9392 54.8129H87.3063V54.3452Z" fill="#1D64AF"/>
<path d="M93.5023 54.3452L94.4407 54.1582V48.1717L93.5023 47.9846V47.5169H95.8487L99.0409 52.9421H99.1352V48.1717L98.1959 47.9846V47.5169H100.637V47.8911L99.7916 48.0782V54.7194H98.9467L95.1922 48.3588V54.1582L96.1306 54.3452V54.7194H93.5023V54.3452Z" fill="#1D64AF"/>
<path d="M100.919 54.3452L101.857 54.1582V48.1717L100.919 47.9846V47.5169H106.363L106.457 49.2942H105.988L105.519 48.0782H102.89V50.7908H104.298L104.58 49.7619H105.049V52.2874H104.58L104.298 51.2585H102.89V54.1582H105.612L106.175 52.6616H106.645L106.551 54.7194H100.919V54.3452Z" fill="#1D64AF"/>
<path d="M107.115 54.3452L108.053 54.1582V48.1717L107.115 47.9846V47.5169H110.212C111.996 47.5169 112.747 48.2653 112.747 49.4813C112.747 50.5101 111.996 51.0714 111.245 51.2585L112.935 54.1582L113.686 54.3452V54.7194H112.09L110.212 51.4455H109.086V54.0647L110.025 54.2517V54.7194H107.115V54.3452ZM110.212 50.9779C111.339 50.9779 111.715 50.2295 111.715 49.4813C111.715 48.5459 111.339 48.0782 110.212 48.0782H109.18V50.9779H110.212Z" fill="#1D64AF"/>
<path d="M113.874 54.3452L114.813 54.1582V48.1717L113.874 47.9846V47.5169H116.784V47.9846L115.845 48.1717V54.2517L116.784 54.4387V54.9065H113.874V54.3452Z" fill="#1D64AF"/>
<path d="M117.159 54.3452L118.098 54.1582V48.1717L117.159 47.9846V47.5169H122.604L122.698 49.3877H122.229L121.759 48.0782H119.131V50.8843H120.539L120.82 49.8554H121.29V52.3809H120.82L120.539 51.352H119.131V54.0647L120.164 54.2517V54.7194H117.159V54.3452Z" fill="#1D64AF"/>
<path d="M123.262 54.3452L124.2 54.1582V48.1717L123.262 47.9846V47.5169H128.706L128.8 49.2942H128.331L127.861 48.0782H125.233V50.7908H126.641L126.923 49.7619H127.392V52.2874H126.923L126.641 51.2585H125.233V54.1582H127.955L128.518 52.6616H128.988L128.894 54.7194H123.262V54.3452Z" fill="#1D64AF"/>
<path d="M60.5511 35.9187L63.8368 35.1704V13.0954L60.5511 12.2535V8.79258H74.6327C84.5838 8.79258 90.0289 13.2825 90.0289 23.4781C90.0289 34.2351 84.3021 39.3797 74.9143 39.3797H60.5511V35.9187ZM74.5389 35.1704C79.5143 35.1704 82.0491 32.832 82.0491 24.2265C82.0491 14.592 79.045 13.189 73.7878 13.189H71.347V35.1704H74.5389Z" fill="black"/>
<path d="M91.9066 35.9187L95.2857 35.1704V13.0954L91.9066 12.2535V8.79258H106.175V12.2535L102.796 13.0954V35.1704L106.175 35.9187V39.4732H91.9066V35.9187ZM94.7226 7.48307L93.69 4.58338L102.89 0L104.955 4.95754L94.7226 7.48307Z" fill="black"/>
<path d="M107.115 35.9187L109.743 35.1704L119.224 8.79258H126.172L135.372 35.1704L138 35.9187V39.4732H124.012V35.9187L127.11 35.1704L125.515 30.1194H116.502L114.813 35.1704L118.004 35.9187V39.4732H106.927V35.9187H107.115ZM117.911 26.5649H124.575L121.384 16.6498H121.196L117.911 26.5649Z" fill="black"/>
<path d="M0 35.9187L3.37959 35.1704V13.0954L0.0938776 12.2535V8.79258H24.9715L25.4408 17.5852H21.2164L19.5266 12.9083H10.7959V21.7945H14.5511L15.4898 18.5206H18.7755V29.0904H15.4898L14.5511 25.7231H10.7959V35.3575H19.8082L22.0613 29.6517H26.1919L25.7224 39.4732H0V35.9187Z" fill="black"/>
<path d="M27.6939 35.9187L30.9797 35.1704V13.0954L27.6939 12.2535V8.79258H42.1511V12.2535L38.5837 13.0019V35.1704H46.2817L48.4408 28.5292H52.5715L52.0083 39.3797H27.6939V35.9187Z" fill="black"/>
</svg>
