<svg width="310" height="47" viewBox="0 0 310 47" fill="none" xmlns="http://www.w3.org/2000/svg">
<path d="M33.1118 31.145C33.755 21.0049 28.2908 11.566 16.9744 11.566C6.87881 11.566 0 19.0902 0 28.9757C0 39.1774 6.49389 46.3183 16.9744 46.3183C24.4947 46.3183 29.9613 43.0036 32.5324 35.2241H24.4955C23.9186 37.2644 20.9617 39.4984 17.2963 39.4984C12.2171 39.4984 9.38864 36.8842 9.12954 31.1442L33.1118 31.145ZM9.12954 25.4042C9.2603 22.8523 10.9315 18.389 16.7169 18.389C21.1538 18.389 23.1471 20.8112 23.9831 25.4042H9.12954Z" fill="#0B6C95"/>
<path d="M44.6833 0.375319H35.5546V45.9073H44.6833V0.375319Z" fill="#0B6C95"/>
<path d="M55.9442 46.1066H66.0364V29.7815H76.646C88.0908 29.7815 92.5269 22.5767 92.5269 15.1773C92.5269 7.78199 88.0908 0.576354 76.646 0.576354H55.945L55.9442 46.1066ZM66.0364 8.35591H73.8813C78.5747 8.35591 82.755 9.37567 82.755 15.1773C82.755 20.9822 78.5747 22.002 73.8813 22.002H66.0364V8.35591Z" fill="#0B6C95"/>
<path d="M123.587 31.821C124.23 21.6825 118.765 12.2444 107.449 12.2444C97.3554 12.2444 90.4764 19.7687 90.4764 29.6542C90.4764 39.8559 96.9705 47 107.449 47C114.971 47 120.436 43.6837 123.008 35.9042H114.971C114.393 37.9445 111.434 40.1761 107.771 40.1761C102.691 40.1761 99.8633 37.5643 99.6031 31.8219L123.587 31.821ZM99.6041 26.0826C99.7337 23.5332 101.406 19.07 107.191 19.07C111.628 19.07 113.62 21.4913 114.457 26.0826H99.6041Z" fill="#0B6C95"/>
<path d="M125.127 46.1066H134.258V31.2496C134.258 25.4439 136.571 20.6628 143.26 20.6628C144.351 20.6628 145.704 20.7917 146.539 20.9838V12.5655C145.96 12.3726 145.188 12.2444 144.546 12.2444C140.112 12.2444 135.609 15.1141 133.938 19.2604H133.807V13.1369H125.127V46.1066Z" fill="#0B6C95"/>
<path d="M148.138 46.1066H157.265V13.1369H148.138V46.1066ZM148.138 8.03572H157.265V0.576354H148.138V8.03572Z" fill="#0B6C95"/>
<path d="M188.076 0H177.981L171.81 9.05547H178.173L188.076 0ZM159.464 29.6534C159.464 40.1121 166.217 46.9991 176.632 46.9991C187.11 46.9991 193.865 40.1113 193.865 29.6534C193.865 19.1323 187.11 12.2437 176.632 12.2437C166.217 12.2444 159.464 19.1323 159.464 29.6534ZM168.595 29.6534C168.595 24.3617 170.458 19.07 176.631 19.07C182.869 19.07 184.731 24.3601 184.731 29.6534C184.731 34.8844 182.869 40.1753 176.631 40.1753C170.458 40.1753 168.595 34.8844 168.595 29.6534Z" fill="#0B6C95"/>
<path d="M219.984 46.1066H228.662V0.575543H219.534V17.156H219.404H219.466C217.348 13.9022 213.489 12.2444 209.566 12.2444C199.796 12.2444 194.843 20.4715 194.843 29.3349C194.843 38.4544 199.732 46.9984 209.76 46.9984C214.003 46.9984 217.732 45.4678 219.853 41.8979H219.984V46.1066ZM219.853 29.5278C219.853 34.9484 218.053 40.1753 212.009 40.1753C206.349 40.1753 203.971 34.7563 203.971 29.5919C203.971 24.1728 206.031 19.0707 212.009 19.0707C217.926 19.07 219.853 24.172 219.853 29.5278Z" fill="#0B6C95"/>
<path d="M240.338 13.1362H231.208V46.1059H240.338V13.1362Z" fill="#0B6C95"/>
<path d="M274.512 24.7435C273.933 16.3243 266.731 12.2437 258.889 12.2437C248.088 12.2437 241.914 19.8327 241.914 30.1001C241.914 39.9832 248.668 46.9984 258.695 46.9984C267.437 46.9984 273.547 42.2165 274.704 33.478H265.898C265.32 37.4962 262.877 40.1745 258.632 40.1745C252.911 40.1745 251.047 34.4985 251.047 29.7807C251.047 24.9331 252.974 19.0691 258.824 19.0691C262.618 19.0691 264.996 21.0438 265.576 24.7426H274.513" fill="#0B6C95"/>
<path d="M275.603 29.6534C275.603 40.1121 282.353 46.9991 292.767 46.9991C303.249 46.9991 310 40.1113 310 29.6534C310 19.1323 303.249 12.2437 292.767 12.2437C282.354 12.2444 275.603 19.1323 275.603 29.6534ZM284.735 29.6534C284.735 24.3617 286.598 19.07 292.767 19.07C299.007 19.07 300.871 24.3601 300.871 29.6534C300.871 34.8844 299.006 40.1753 292.767 40.1753C286.599 40.1753 284.735 34.8844 284.735 29.6534Z" fill="#0B6C95"/>
<path d="M236.869 10.446H238.778V0.432311H236.77V4.0785H236.742H236.756C236.29 3.36272 235.442 2.99713 234.58 2.99713C232.43 2.99713 231.34 4.80643 231.34 6.7568C231.34 8.76228 232.413 10.6413 234.622 10.6413C235.556 10.6413 236.374 10.3073 236.843 9.51936H236.869V10.446ZM236.841 6.80057C236.841 7.99219 236.444 9.14247 235.115 9.14247C233.871 9.14247 233.346 7.95004 233.346 6.81354C233.346 5.62192 233.8 4.50083 235.115 4.50083C236.416 4.4984 236.841 5.62031 236.841 6.80057Z" fill="#FFC90E"/>
<path d="M246.807 7.30234C246.946 5.07395 245.744 2.99713 243.256 2.99713C241.037 2.99713 239.522 4.65242 239.522 6.82733C239.522 9.07194 240.949 10.6421 243.256 10.6421C244.911 10.6421 246.112 9.91258 246.677 8.20133H244.91C244.782 8.64961 244.134 9.14247 243.328 9.14247C242.209 9.14247 241.588 8.56449 241.532 7.30397H246.807V7.30234ZM241.533 6.04183C241.559 5.48088 241.928 4.49921 243.201 4.49921C244.177 4.49921 244.614 5.03341 244.8 6.04183H241.533Z" fill="#FFC90E"/>
<path d="M250.092 10.446H252.339L253.132 8.21592H256.907L257.67 10.446H259.976L256.201 0.432311H253.923L250.092 10.446ZM255.029 2.89985H255.052L256.327 6.5736H253.71L255.029 2.89985Z" fill="#FFC90E"/>
<path d="M260.624 10.446H262.632V7.17751C262.632 5.90159 263.14 4.8494 264.612 4.8494C264.852 4.8494 265.147 4.87778 265.333 4.91992V3.06765C265.205 3.02631 265.038 2.99713 264.894 2.99713C263.919 2.99713 262.927 3.62941 262.56 4.54055H262.532V3.19248H260.623L260.624 10.446Z" fill="#FFC90E"/>
<path d="M270.921 7.63957C270.921 8.07568 270.866 9.30945 269.296 9.30945C268.645 9.30945 268.063 9.12787 268.063 8.38372C268.063 7.65335 268.632 7.44259 269.253 7.31451C269.876 7.20264 270.581 7.19048 270.922 6.89541L270.921 7.63957ZM268.291 5.42414C268.363 4.63864 268.859 4.3306 269.619 4.3306C270.33 4.3306 270.922 4.45786 270.922 5.31227C270.922 6.12613 269.776 6.08398 268.546 6.26637C267.304 6.43498 266.059 6.82733 266.059 8.46884C266.059 9.95476 267.161 10.6429 268.546 10.6429C269.438 10.6429 270.372 10.4038 271.007 9.74474C271.023 9.98387 271.078 10.2222 271.148 10.4467H273.188C273.003 10.1525 272.933 9.49265 272.933 8.83361V5.06016C272.933 3.32137 271.179 2.99713 269.724 2.99713C268.08 2.99713 266.401 3.5597 266.287 5.42494L268.291 5.42414Z" fill="#FFC90E"/>
<path d="M281.735 3.1933H279.826V4.1628H279.797C279.318 3.32057 278.581 2.99713 277.62 2.99713C275.569 2.99713 274.479 4.70998 274.479 6.58738C274.479 8.57989 275.411 10.2336 277.605 10.2336C278.48 10.2336 279.358 9.86964 279.797 9.11328H279.827V10.0666C279.839 11.105 279.332 11.8613 278.211 11.8613C277.507 11.8613 276.898 11.61 276.714 10.865H274.719C274.817 12.5204 276.5 13.1931 277.942 13.1931C281.309 13.1931 281.734 11.1755 281.734 9.9831V3.1933H281.735ZM278.113 8.73391C276.883 8.73391 276.488 7.59903 276.488 6.56144C276.488 5.48088 276.981 4.50002 278.113 4.50002C279.415 4.50002 279.826 5.55059 279.826 6.73004C279.827 7.76765 279.258 8.73391 278.113 8.73391Z" fill="#FFC90E"/>
<path d="M289.194 0.305855H286.976L285.617 2.29755H287.017L289.194 0.305855ZM282.902 6.82733C282.902 9.12868 284.391 10.6421 286.679 10.6421C288.985 10.6421 290.466 9.1295 290.466 6.82733C290.466 4.51218 288.985 2.99713 286.679 2.99713C284.39 2.99713 282.902 4.51218 282.902 6.82733ZM284.911 6.82733C284.911 5.66165 285.322 4.49921 286.68 4.49921C288.051 4.49921 288.459 5.66165 288.459 6.82733C288.459 7.97679 288.05 9.14165 286.68 9.14165C285.322 9.14165 284.911 7.97679 284.911 6.82733Z" fill="#FFC90E"/>
<path d="M291.782 10.446H293.79V6.64413C293.79 5.17203 294.258 4.56973 295.349 4.56973C296.281 4.56973 296.633 5.15744 296.633 6.34987V10.446H298.641V5.98508C298.641 4.19036 298.102 2.99713 295.968 2.99713C295.12 2.99713 294.241 3.38947 293.734 4.20415H293.692V3.19248H291.782V10.446Z" fill="#FFC90E"/>
</svg>
