<svg width="308" height="43" viewBox="0 0 308 43" fill="none" xmlns="http://www.w3.org/2000/svg">
<path d="M230.129 4.29992C229.523 3.39466 228.614 2.94203 227.402 2.94203C226.266 2.94203 225.432 3.31922 224.826 4.14904C224.145 4.90343 223.842 5.88413 223.842 6.94027C223.842 8.14728 224.145 9.05254 224.751 9.80693C225.357 10.5613 226.266 10.9385 227.402 10.9385C228.235 10.9385 228.917 10.7122 229.523 10.2596C230.129 9.80693 230.508 9.20342 230.735 8.3736H229.22C228.917 9.20342 228.311 9.65605 227.402 9.65605C226.72 9.65605 226.266 9.42974 225.887 8.9771C225.584 8.52447 225.432 7.9964 225.432 7.3929H230.811C230.962 6.11044 230.735 5.12974 230.129 4.29992ZM225.432 6.26132C225.508 5.65781 225.66 5.20518 226.038 4.82799C226.417 4.4508 226.872 4.29992 227.402 4.22448C227.932 4.22448 228.387 4.4508 228.69 4.82799C228.993 5.20518 229.144 5.65781 229.22 6.26132H225.432Z" fill="#184479"/>
<path d="M231.795 10.7121H233.462L233.538 0.226168H231.947L231.795 10.7121Z" fill="#184479"/>
<path d="M253.612 4.22441C253.006 3.31915 252.097 2.86651 250.885 2.86651C249.748 2.86651 248.915 3.24371 248.309 4.07353C247.627 4.82791 247.324 5.80861 247.324 6.86475C247.324 8.07177 247.627 8.97703 248.233 9.73142C248.839 10.4858 249.748 10.863 250.885 10.863C251.718 10.863 252.4 10.6367 253.006 10.184C253.612 9.73142 253.99 9.12791 254.218 8.29808H252.703C252.4 9.12791 251.794 9.58054 250.885 9.58054C250.203 9.58054 249.748 9.35422 249.37 8.90159C249.067 8.44896 248.915 7.92089 248.915 7.31738H254.293C254.521 6.11037 254.293 5.12967 253.612 4.22441ZM248.991 6.26125C249.067 5.65774 249.218 5.20511 249.597 4.82791C249.976 4.45072 250.43 4.29985 250.96 4.22441C251.491 4.22441 251.945 4.45072 252.248 4.82791C252.551 5.20511 252.703 5.65774 252.778 6.26125H248.991Z" fill="#184479"/>
<path d="M255.353 10.7121H256.944V7.09107C256.944 6.26125 257.172 5.5823 257.55 5.12967C257.929 4.67704 258.384 4.45072 258.99 4.45072C259.141 4.45072 259.217 4.45072 259.368 4.45072C259.52 4.45072 259.596 4.45072 259.671 4.52616V2.94195C259.596 2.94195 259.368 2.94195 259.065 2.86651C258.535 2.86651 258.081 3.01739 257.702 3.39458C257.323 3.77178 257.02 4.14897 256.868 4.52616V3.09283H255.353V10.7121Z" fill="#184479"/>
<path d="M260.05 10.7123H261.641L261.717 3.09305H260.126L260.05 10.7123Z" fill="#184479"/>
<path d="M260.126 1.81038H261.716V0.226168H260.126V1.81038Z" fill="#184479"/>
<path d="M269.216 3.99809C268.61 3.24371 267.701 2.86651 266.489 2.86651C265.277 2.86651 264.368 3.24371 263.762 3.99809C263.08 4.75248 262.777 5.65774 262.777 6.86475C262.777 8.07177 263.08 8.97703 263.762 9.73142C264.368 10.4858 265.277 10.863 266.489 10.863C267.701 10.863 268.61 10.4858 269.216 9.73142C269.897 8.97703 270.2 8.07177 270.2 6.86475C270.125 5.73318 269.822 4.75248 269.216 3.99809ZM268.004 8.75071C267.625 9.27878 267.095 9.58054 266.413 9.58054C265.655 9.58054 265.201 9.27878 264.822 8.75071C264.519 8.22265 264.292 7.61914 264.292 6.94019C264.292 6.26125 264.443 5.65774 264.822 5.12967C265.125 4.6016 265.655 4.29985 266.413 4.29985C267.17 4.29985 267.701 4.6016 268.004 5.12967C268.307 5.65774 268.458 6.26125 268.458 6.94019C268.534 7.61914 268.307 8.22265 268.004 8.75071Z" fill="#184479"/>
<path d="M265.58 2.11228H266.716L268.761 0H266.868L265.58 2.11228Z" fill="#184479"/>
<path d="M276.64 0.226168L276.564 4.07353C276.337 3.6209 275.958 3.31915 275.503 3.16827C275.049 3.01739 274.594 2.86651 274.14 2.86651C273.307 2.86651 272.549 3.16827 271.943 3.77178C271.261 4.37528 270.958 5.43142 270.958 6.78932C270.958 7.92089 271.261 8.90159 271.792 9.65598C272.322 10.4104 273.231 10.7876 274.367 10.863C274.822 10.863 275.276 10.7876 275.731 10.5612C276.109 10.3349 276.488 10.0332 276.715 9.65598V10.7121H278.23V0.226168H276.64ZM276.109 8.75072C275.731 9.27878 275.2 9.58054 274.519 9.58054C273.837 9.58054 273.307 9.27878 273.004 8.75072C272.701 8.22265 272.549 7.61914 272.549 7.01563C272.549 6.33668 272.701 5.65774 273.004 5.12967C273.307 4.6016 273.837 4.29985 274.594 4.29985C275.958 4.29985 276.564 5.20511 276.64 6.94019C276.64 7.61914 276.488 8.22265 276.109 8.75072Z" fill="#184479"/>
<path d="M279.745 10.7123H281.336L281.412 3.09305H279.821L279.745 10.7123Z" fill="#184479"/>
<path d="M279.821 1.81038H281.411L281.487 0.226168H279.821V1.81038Z" fill="#184479"/>
<path d="M289.365 5.65774C289.29 4.75248 288.911 3.99809 288.305 3.54546C287.699 3.09283 286.941 2.86651 286.108 2.86651C284.896 2.86651 283.987 3.24371 283.381 3.99809C282.775 4.75248 282.472 5.73318 282.396 6.86475C282.396 7.99633 282.699 8.90159 283.305 9.65598C283.911 10.4104 284.745 10.7876 285.957 10.7876C287.85 10.7876 288.987 9.73142 289.365 7.77002H287.775C287.547 8.90159 287.017 9.5051 286.032 9.5051C285.351 9.5051 284.82 9.20335 284.517 8.67528C284.214 8.14721 284.063 7.5437 284.063 6.94019C284.063 6.33668 284.139 5.88405 284.29 5.50686C284.442 5.12967 284.593 4.90335 284.82 4.67704C285.048 4.45072 285.275 4.29985 285.502 4.22441C285.729 4.14897 285.957 4.14897 286.184 4.14897C287.169 4.14897 287.699 4.6016 287.85 5.5823L289.365 5.65774Z" fill="#184479"/>
<path d="M296.562 3.99809C295.956 3.24371 295.047 2.86651 293.835 2.86651C292.623 2.86651 291.714 3.24371 291.108 3.99809C290.426 4.75248 290.123 5.65774 290.123 6.86475C290.123 8.07177 290.426 8.97703 291.108 9.73142C291.714 10.4858 292.623 10.863 293.835 10.863C295.047 10.863 295.956 10.4858 296.562 9.73142C297.244 8.97703 297.547 8.07177 297.547 6.86475C297.471 5.73318 297.168 4.75248 296.562 3.99809ZM295.35 8.75071C294.971 9.27878 294.441 9.58054 293.759 9.58054C293.002 9.58054 292.547 9.27878 292.168 8.75071C291.865 8.22265 291.638 7.61914 291.638 6.94019C291.638 6.26125 291.79 5.65774 292.168 5.12967C292.471 4.6016 293.002 4.29985 293.759 4.29985C294.517 4.29985 295.047 4.6016 295.35 5.12967C295.653 5.65774 295.804 6.26125 295.804 6.94019C295.88 7.61914 295.729 8.22265 295.35 8.75071Z" fill="#184479"/>
<path d="M246.491 2.41388C246.415 2.03669 246.264 1.73494 245.961 1.35775C245.734 1.05599 245.355 0.754237 244.9 0.527922C244.446 0.301607 243.84 0.226168 243.158 0.226168H238.689L238.613 10.6367H240.355L240.431 6.63844H243.158C243.84 6.63844 244.446 6.48756 244.976 6.33668C245.431 6.11037 245.809 5.88405 246.037 5.5823C246.264 5.28055 246.491 4.90335 246.567 4.52616C246.643 4.14897 246.718 3.84721 246.718 3.47002C246.643 3.16827 246.567 2.79108 246.491 2.41388ZM244.673 4.29985C244.597 4.52616 244.446 4.67704 244.219 4.82791C244.067 4.97879 243.84 5.05423 243.612 5.12967C243.385 5.20511 243.158 5.20511 243.007 5.20511H240.431V1.73494H243.082C243.31 1.73494 243.537 1.73494 243.764 1.81038C243.991 1.88581 244.143 1.96125 244.294 2.11213C244.597 2.33845 244.825 2.79108 244.825 3.47002C244.825 3.77178 244.749 4.07353 244.673 4.29985Z" fill="#184479"/>
<path d="M0 42.0944H7.65077V15.3138H7.72652L16.8165 42.0944H23.1038L32.1938 15.012H32.2696V42.0944H39.9203V3.92258H28.4821L20.2253 30.1752H20.1495L11.4383 3.92258H0V42.0944Z" fill="#184479"/>
<path d="M51.2824 30.1C51.5097 34.8526 53.7064 37.1912 57.8727 37.1912C59.3877 37.1912 60.6754 36.814 61.8117 35.9842C62.8722 35.3053 63.4782 34.4755 63.7054 33.5702H70.22C68.0232 39.8316 63.8569 42.9246 57.6454 42.8491C53.4034 42.8491 50.0704 41.4912 47.6464 38.7754C45.1467 36.1351 43.9346 32.6649 43.8589 28.2895C43.8589 24.0649 45.1467 20.5948 47.7222 17.8036C50.1462 15.0878 53.4792 13.6544 57.6454 13.6544C62.2662 13.7299 65.6749 15.3895 67.8717 18.6334C68.402 19.3878 68.9322 20.2176 69.311 21.0474C69.6897 21.8772 69.9927 22.8579 70.22 23.8386C70.6745 25.8 70.826 27.9123 70.6745 30.1H51.2824ZM63.3267 25.3474C63.0237 23.386 62.4177 21.8772 61.5087 20.8211C60.5997 19.8404 59.2362 19.3878 57.4182 19.3878C56.2819 19.3878 55.2972 19.6141 54.5397 19.9913C53.7064 20.3685 53.1004 20.8965 52.5702 21.5C51.6612 22.8579 51.2067 24.1404 51.2067 25.3474C51.2824 25.3474 63.3267 25.3474 63.3267 25.3474Z" fill="#184479"/>
<path d="M92.5662 38.6243H92.4905C91.6573 40.133 90.4453 41.1892 89.0817 41.8681C87.6425 42.5471 86.0517 42.8488 84.3852 42.8488C80.2947 42.7734 77.2647 41.2646 75.2952 38.2471C73.3257 35.3804 72.2652 31.9103 72.2652 27.9875C72.2652 24.1401 73.25 20.7454 75.2952 17.9541C77.2647 15.1629 80.219 13.7296 84.158 13.6541C85.8245 13.6541 87.3395 13.9559 88.7787 14.6348C90.218 15.3138 91.3542 16.3699 92.1875 17.7278V3.92258H99.611V42.0944H92.5662V38.6243ZM91.127 22.0278C90.1422 20.2927 88.4757 19.3875 86.1275 19.312C83.7792 19.312 82.1127 20.2173 81.128 22.0278C80.1432 23.7629 79.613 25.7997 79.6887 28.2138C79.6887 30.4769 80.219 32.5138 81.2795 34.2488C82.34 36.1348 83.9307 37.1155 86.2032 37.1909C88.6272 37.1909 90.2937 36.2102 91.2785 34.3997C92.1117 32.6646 92.5662 30.5524 92.5662 28.2138C92.4147 25.8752 91.9603 23.8383 91.127 22.0278Z" fill="#184479"/>
<path d="M111.125 14.484H103.702V42.1699H111.125V14.484Z" fill="#184479"/>
<path d="M111.125 3.92258H103.702V10.184H111.125V3.92258Z" fill="#184479"/>
<path d="M124.078 6.18573H116.655V14.484H112.186V19.5383H116.655V35.8331C116.655 37.1909 116.882 38.2471 117.412 39.0769C117.867 39.9822 118.473 40.6611 119.23 41.1892C120.064 41.6418 120.973 41.9436 121.957 42.0944C122.942 42.3208 124.003 42.3962 125.139 42.3962C126.73 42.3962 128.169 42.3208 129.457 42.1699V36.2857C128.699 36.4366 127.942 36.512 127.184 36.512C125.972 36.512 125.139 36.3611 124.684 35.8331C124.23 35.3804 124.003 34.5506 124.078 33.2681V19.5383H129.457V14.484H124.078V6.18573Z" fill="#184479"/>
<path d="M137.108 30.1C137.335 34.8526 139.532 37.1912 143.698 37.1912C145.213 37.1912 146.501 36.814 147.637 35.9842C148.698 35.3053 149.304 34.4755 149.531 33.5702H156.045C153.849 39.8316 149.682 42.9246 143.471 42.8491C139.229 42.8491 135.896 41.4912 133.472 38.7754C130.972 36.1351 129.76 32.6649 129.684 28.2895C129.684 24.0649 130.972 20.5948 133.548 17.8036C135.972 15.0878 139.305 13.6544 143.395 13.6544C148.016 13.7299 151.425 15.3895 153.621 18.6334C154.152 19.3878 154.682 20.2176 155.061 21.0474C155.439 21.8772 155.742 22.8579 155.97 23.8386C156.424 25.8 156.576 27.9123 156.424 30.1H137.108ZM149.076 25.3474C148.773 23.386 148.167 21.8772 147.258 20.8211C146.349 19.8404 144.986 19.3878 143.168 19.3878C142.032 19.3878 141.047 19.6141 140.289 19.9913C139.456 20.3685 138.85 20.8965 138.32 21.5C137.411 22.8579 136.956 24.1404 136.956 25.3474C137.108 25.3474 149.076 25.3474 149.076 25.3474Z" fill="#184479"/>
<path d="M159.075 42.0944H166.499V29.6471C166.499 27.0822 167.029 24.9699 168.09 23.3103C169.15 21.6506 171.044 20.8208 173.771 20.7454C174.756 20.7454 175.665 20.8208 176.422 20.9717V13.9559C175.892 13.805 175.362 13.7296 174.831 13.7296C173.013 13.7296 171.271 14.3331 169.68 15.3138C168.09 16.3699 166.953 17.8033 166.196 19.6138H166.12V14.484H159.075V42.0944Z" fill="#184479"/>
<path d="M177.331 42.0944H184.754V29.6471C184.754 27.0822 185.285 24.9699 186.345 23.3103C187.481 21.6506 189.299 20.8208 192.026 20.7454C193.011 20.7454 193.92 20.8208 194.678 20.9717V13.9559C194.147 13.805 193.617 13.7296 193.011 13.7296C191.193 13.7296 189.451 14.3331 187.936 15.3138C186.345 16.3699 185.209 17.8033 184.451 19.6138H184.376V14.484H177.331V42.0944Z" fill="#184479"/>
<path d="M212.403 31.3825C212.403 31.7597 212.403 32.3632 212.327 33.0421C212.252 33.7211 212.024 34.4755 211.646 35.1544C211.343 35.8333 210.737 36.4369 209.903 36.8895C209.07 37.4176 207.934 37.7193 206.495 37.7193C205.283 37.7193 204.298 37.493 203.389 36.9649C202.48 36.5123 202.025 35.5316 201.95 34.1737C201.95 32.8158 202.404 31.8351 203.313 31.2316C204.146 30.7035 205.131 30.3263 206.267 30.1C207.479 29.8737 208.616 29.7228 209.752 29.4965C210.812 29.3456 211.721 28.9684 212.403 28.4404V31.3825ZM202.707 22.9334C203.086 20.1421 204.677 18.7088 207.631 18.7843C208.994 18.7843 210.055 19.0106 210.964 19.3878C211.873 19.8404 212.327 20.8965 212.327 22.5562C212.327 23.9895 211.418 24.8948 209.676 25.272C208.843 25.4228 207.934 25.5737 206.873 25.7246C205.813 25.8755 204.752 26.0263 203.54 26.2527C202.404 26.4035 201.268 26.6299 200.207 26.9316C199.147 27.2334 198.162 27.686 197.253 28.3649C196.42 28.893 195.738 29.7228 195.208 30.779C194.678 31.7597 194.375 33.0421 194.375 34.7018C194.375 37.493 195.284 39.6053 197.102 40.8877C198.768 42.2456 200.965 43 203.54 43C205.207 43 206.873 42.6982 208.388 42.1702C209.979 41.6421 211.418 40.7368 212.555 39.5298C212.63 40.4351 212.782 41.3404 213.085 42.1702H220.584C220.281 41.5667 220.054 40.6614 219.902 39.5298C219.751 38.3983 219.675 37.2667 219.675 35.9842V21.6509C219.675 19.9913 219.296 18.6334 218.615 17.5772C217.933 16.5211 216.948 15.7667 215.812 15.1632C214.676 14.5597 213.388 14.1825 212.024 13.9562C210.661 13.8053 209.222 13.7299 207.858 13.7299C204.752 13.7299 201.95 14.3334 199.45 15.6158C196.95 16.9737 195.511 19.3878 195.208 22.9334C195.284 22.9334 202.707 22.9334 202.707 22.9334ZM217.554 3.47024H209.373L204.374 11.0895H209.525L217.554 3.47024Z" fill="#184479"/>
<path d="M223.766 42.0944H231.189V27.6103C231.113 22.2541 233.007 19.6138 236.87 19.6892C240.052 19.6892 241.643 21.9524 241.567 26.4787V42.1699H248.99V25.1208C248.99 21.6506 248.384 18.8594 247.097 16.8226C245.657 14.7857 243.006 13.805 239.219 13.7296C237.628 13.7296 236.113 14.1068 234.674 14.8612C233.159 15.6155 231.947 16.7471 230.962 18.3313H230.81V14.484H223.766V42.0944Z" fill="#184479"/>
<path d="M258.99 30.1C259.217 34.8526 261.414 37.1912 265.58 37.1912C267.095 37.1912 268.383 36.814 269.519 35.9842C270.579 35.3053 271.185 34.4755 271.413 33.5702H277.927C275.73 39.8316 271.564 42.9246 265.353 42.8491C261.111 42.8491 257.777 41.4912 255.353 38.7754C252.854 36.1351 251.642 32.6649 251.566 28.2895C251.566 24.0649 252.854 20.5948 255.429 17.8036C257.853 15.0878 261.186 13.6544 265.353 13.6544C269.973 13.7299 273.382 15.3895 275.579 18.6334C276.109 19.3878 276.639 20.2176 277.018 21.0474C277.397 21.8772 277.7 22.8579 277.927 23.8386C278.382 25.8 278.533 27.9123 278.382 30.1H258.99ZM271.034 25.3474C270.731 23.386 270.125 21.8772 269.216 20.8211C268.307 19.8404 266.943 19.3878 265.125 19.3878C263.989 19.3878 263.004 19.6141 262.247 19.9913C261.414 20.3685 260.808 20.8965 260.277 21.5C259.368 22.8579 258.914 24.1404 258.914 25.3474H271.034Z" fill="#184479"/>
<path d="M283.987 17.6524C286.411 15.0875 289.82 13.7296 294.062 13.7296C298.38 13.7296 301.788 15.0875 304.288 17.6524C306.712 20.2927 308 23.8383 308 28.2892C308 32.7401 306.712 36.2857 304.288 38.8506C301.788 41.4909 298.38 42.8488 294.062 42.8488C289.82 42.8488 286.411 41.4909 283.987 38.8506C281.487 36.2857 280.2 32.8155 280.124 28.2892C280.2 23.8383 281.487 20.2927 283.987 17.6524ZM288.987 34.3997C289.896 36.2102 291.638 37.1909 294.062 37.1909C296.562 37.1909 298.304 36.2102 299.213 34.3997C300.122 32.6646 300.576 30.6278 300.576 28.3646C300.576 25.9506 300.122 23.9138 299.213 22.1787C298.304 20.3682 296.562 19.4629 294.062 19.4629C291.562 19.4629 289.896 20.4436 288.987 22.1787C288.002 23.9138 287.547 26.0261 287.623 28.3646C287.547 30.6278 288.002 32.5892 288.987 34.3997Z" fill="#184479"/>
</svg>
