<svg width="310" height="50" viewBox="0 0 310 50" fill="none" xmlns="http://www.w3.org/2000/svg">
<path d="M9.22772 28.2023C9.70959 23.3985 12.0304 20.9525 16.1963 20.8667C17.7358 20.8667 19.2163 21.3675 20.6309 22.3673C21.2556 22.9418 21.8076 23.6854 22.2851 24.6003C22.7027 25.5576 22.974 26.7577 23.1007 28.2039H9.22772V28.2023ZM22.7241 38.9326C22.3493 40.1574 21.6219 41.1045 20.5377 41.7708C19.4756 42.4184 18.287 42.7375 16.9759 42.7375C15.2259 42.7375 13.8404 42.3937 12.8194 41.7071C11.7369 41.0816 10.9256 40.3085 10.3839 39.385C9.86187 38.4184 9.51872 37.4703 9.35269 36.5444C9.31164 36.0513 9.25002 35.6107 9.16619 35.2229C9.12505 34.8146 9.06089 34.459 8.97874 34.1595H32.3258V32.5256C32.2839 28.5629 31.7747 25.3132 30.7948 22.7764C29.8167 20.2386 28.5143 18.3019 26.8874 16.9584C25.3042 15.5105 23.5944 14.5395 21.7596 14.0481C19.8838 13.5795 18.0713 13.3428 16.3203 13.3428C12.6534 13.3861 9.73353 14.0795 7.56843 15.4213C5.33829 16.7852 3.69093 18.4877 2.62892 20.5332C1.56435 22.4937 0.854058 24.4296 0.50148 26.3495C0.168586 28.3313 0 29.864 0 30.9495C0.0427884 37.9592 1.68843 42.9106 4.9395 45.8082C8.04509 48.6412 12.0595 50.0382 16.9759 49.9932C19.9968 49.9932 22.9355 49.1648 25.7904 47.5133C28.6246 45.8616 30.6801 42.9972 31.9502 38.9284H22.7241V38.9326Z" fill="#087876"/>
<path d="M43.3191 2.08786H34.3557V49.0817H43.3191V2.08786Z" fill="#087876"/>
<path d="M67.1283 24.0215V10.2H74.7464C80.4544 10.1533 83.2613 12.3082 83.1765 16.6596C83.1765 17.1926 83.1552 17.875 83.1157 18.7075C82.99 19.4985 82.711 20.3057 82.2728 21.1408C81.8552 21.9106 81.1586 22.5812 80.183 23.1565C79.1827 23.7337 77.7886 24.0223 75.9975 24.0223L67.1283 24.0215ZM67.1283 32.1242H78.1327C81.2614 32.1242 83.8047 31.5037 85.7644 30.2689C87.6813 29.1834 89.1318 27.8093 90.1108 26.1466C91.1749 24.4441 91.9031 22.7925 92.3 21.1944C92.6331 19.575 92.8006 18.2238 92.8006 17.1365C92.6331 7.31515 87.8662 2.29834 78.5007 2.08786H57.506V49.0817H67.13V32.1242H67.1283Z" fill="#087876"/>
<path d="M102.082 28.2023C102.561 23.3985 104.884 20.9525 109.046 20.8667C110.588 20.8667 112.069 21.3675 113.483 22.3673C114.109 22.9418 114.661 23.6854 115.14 24.6003C115.555 25.5576 115.825 26.7577 115.951 28.2039H102.081L102.082 28.2023ZM115.578 38.9326C115.202 40.1574 114.474 41.1045 113.391 41.7708C112.328 42.4184 111.141 42.7375 109.828 42.7375C108.076 42.7375 106.693 42.3937 105.675 41.7071C104.591 41.0816 103.778 40.3085 103.235 39.385C102.714 38.4184 102.373 37.4703 102.207 36.5444C102.165 36.0513 102.105 35.6107 102.019 35.2229C101.978 34.8146 101.916 34.459 101.833 34.1595H125.18V32.5256C125.139 28.5629 124.626 25.3132 123.649 22.7764C122.669 20.2386 121.369 18.3019 119.743 16.9584C118.157 15.5105 116.45 14.5395 114.614 14.0481C112.74 13.5795 110.925 13.3428 109.176 13.3428C105.51 13.3861 102.589 14.0795 100.422 15.4213C98.1927 16.7852 96.5461 18.4877 95.4821 20.5332C94.4217 22.4937 93.7126 24.4296 93.3567 26.3495C93.0245 28.3321 92.8597 29.8649 92.8597 30.9513C92.8998 37.9608 94.5473 42.9123 97.7977 45.8098C100.903 48.6429 104.916 50.0399 109.834 49.9949C112.855 49.9949 115.795 49.1665 118.649 47.5149C121.483 45.8634 123.536 42.9989 124.807 38.9301H115.581V38.9335L115.578 38.9326Z" fill="#087876"/>
<path d="M127.454 49.0834H136.416V30.9538C136.416 29.9497 136.54 28.9483 136.791 27.9467C136.998 26.9674 137.382 26.0948 137.944 25.3251C138.592 24.4933 139.445 23.8338 140.507 23.3433C141.567 22.8731 142.953 22.6397 144.659 22.6397C145.554 22.6397 146.407 22.6822 147.218 22.7678V13.4718C146.658 13.3869 146.086 13.3428 145.503 13.3428C142.9 13.3861 140.914 14.0795 139.539 15.4222C138.852 16.0825 138.26 16.809 137.759 17.5975C137.197 18.4691 136.667 19.3628 136.167 20.2836H136.01V14.2611H127.454V49.0834Z" fill="#087876"/>
<path d="M149.316 10.1312H158.278V1.63039H149.316V10.1312ZM149.316 49.0834H158.278V14.2636H149.316V49.0834Z" fill="#087876"/>
<path d="M190.339 0H180.526L174.51 9.54391H180.96L190.339 0ZM185.664 31.654C185.664 32.8083 185.578 33.971 185.416 35.1431C185.144 36.4035 184.742 37.5552 184.203 38.5999C183.642 39.6455 182.811 40.5206 181.712 41.2242C180.652 41.9304 179.251 42.2809 177.509 42.2809C175.807 42.2809 174.426 41.9295 173.369 41.2242C172.289 40.5197 171.458 39.6473 170.875 38.5999C170.318 37.5544 169.932 36.4026 169.724 35.1431C169.475 33.971 169.349 32.81 169.349 31.654C169.349 30.5235 169.474 29.331 169.724 28.0698C169.931 26.8333 170.316 25.6917 170.875 24.6453C171.458 23.5572 172.289 22.683 173.369 22.021C174.425 21.3811 175.807 21.0611 177.509 21.0611C179.251 21.0611 180.652 21.3836 181.712 22.021C182.811 22.6822 183.642 23.5564 184.203 24.6453C184.741 25.6917 185.145 26.8333 185.416 28.0698C185.578 29.3302 185.664 30.5235 185.664 31.654ZM194.891 31.654C194.805 25.3717 193.059 20.7496 189.645 17.7858C186.317 14.8264 182.271 13.3436 177.508 13.3436C172.805 13.3436 168.781 14.8264 165.429 17.7858C161.974 20.7487 160.209 25.3701 160.126 31.654C160.208 37.8981 161.974 42.5211 165.429 45.523C168.781 48.5071 172.805 49.9975 177.508 49.9975C182.272 49.9975 186.319 48.5063 189.645 45.523C193.059 42.5176 194.805 37.8964 194.891 31.654Z" fill="#087876"/>
<path d="M205.548 31.9188C205.484 29.0798 206.058 26.5939 207.263 24.4602C208.405 22.3715 210.357 21.303 213.12 21.2614C214.657 21.2614 215.934 21.5585 216.952 22.1568C217.927 22.7764 218.696 23.6302 219.257 24.7208C220.316 26.9597 220.828 29.5415 220.783 32.4636C220.783 35.1329 220.194 37.4262 219.007 39.346C217.76 41.3939 215.714 42.4387 212.868 42.482C211.456 42.482 210.282 42.0882 209.348 41.2972C208.412 40.614 207.676 39.7389 207.136 38.6713C206.576 37.584 206.169 36.4535 205.921 35.2823C205.673 34.0626 205.548 32.9415 205.548 31.9188ZM220.411 2.08786V18.7712H220.285C219.596 17.5584 218.505 16.3557 217.009 15.165C216.238 14.6524 215.322 14.2153 214.261 13.8529C213.202 13.5134 211.926 13.3428 210.426 13.3428C206.596 13.3428 203.322 14.8035 200.598 17.7214C197.788 20.725 196.364 25.2402 196.323 31.2695C196.323 36.1905 197.448 40.4841 199.693 44.1506C201.963 47.9614 205.601 49.9109 210.615 49.9966C212.526 49.9966 214.359 49.5841 216.107 48.76C217.894 47.9733 219.353 46.6213 220.475 44.7015H220.601V49.0817H229.375V2.08786H220.411Z" fill="#087876"/>
<path d="M231.891 49.0834H240.855V14.2636H231.891V49.0834Z" fill="#087876"/>
<path d="M264.879 36.3958C264.879 37.3133 264.452 38.5083 263.6 39.98C263.141 40.6411 262.527 41.2191 261.761 41.7105C260.949 42.2206 259.97 42.4777 258.826 42.4777C257.162 42.4777 255.862 42.0398 254.925 41.1648C253.991 40.4187 253.301 39.4376 252.864 38.2197C252.449 37.0052 252.2 35.7542 252.115 34.4768C251.994 33.2156 251.929 32.1081 251.929 31.1473C251.929 30.0143 252.054 28.8532 252.303 27.6565C252.513 26.5243 252.875 25.46 253.395 24.4568C253.934 23.4511 254.676 22.621 255.61 21.959C256.504 21.3624 257.64 21.0636 259.012 21.0636C260.114 20.9567 261.009 21.0874 261.696 21.4498C262.425 21.7477 262.996 22.206 263.411 22.8255C264.264 24.0859 264.775 25.3777 264.941 26.7008H274.034C273.827 23.951 273.19 21.7053 272.129 19.962C271.046 18.2136 269.765 16.8616 268.288 15.9051C266.786 14.9477 265.204 14.2671 263.536 13.8605C261.911 13.5202 260.402 13.3479 259.009 13.3479C253.282 13.3903 249.147 15.1785 246.604 18.7161C243.958 22.2951 242.656 26.941 242.699 32.6478C242.699 34.4794 242.93 36.3975 243.386 38.3988C243.91 40.4018 244.721 42.2766 245.825 44.0233C246.969 45.7275 248.576 47.122 250.637 48.2109C252.678 49.3592 255.273 49.9593 258.417 50C261.54 49.9593 264.121 49.3821 266.167 48.2754C268.124 47.2315 269.686 45.9754 270.851 44.5062C271.997 42.9751 272.809 41.4627 273.288 39.9732C273.703 38.5049 273.934 37.3099 273.974 36.3966H264.877" fill="#087876"/>
<path d="M300.773 31.654C300.773 32.8083 300.688 33.971 300.524 35.1431C300.252 36.4035 299.847 37.5552 299.31 38.5999C298.75 39.6455 297.918 40.5206 296.821 41.2242C295.76 41.9304 294.361 42.2809 292.618 42.2809C290.915 42.2809 289.536 41.9295 288.475 41.2242C287.396 40.5197 286.568 39.6473 285.986 38.5999C285.428 37.5544 285.043 36.4026 284.833 35.1431C284.586 33.971 284.458 32.8099 284.458 31.654C284.458 30.5235 284.585 29.331 284.833 28.0698C285.043 26.8333 285.427 25.6917 285.986 24.6453C286.568 23.5572 287.396 22.683 288.475 22.021C289.536 21.3811 290.916 21.0611 292.618 21.0611C294.361 21.0611 295.76 21.3836 296.821 22.021C297.918 22.6822 298.75 23.5564 299.31 24.6453C299.847 25.6917 300.253 26.8333 300.524 28.0698C300.688 29.3302 300.773 30.5235 300.773 31.654ZM310 31.654C309.915 25.3717 308.17 20.7496 304.756 17.7858C301.428 14.8264 297.381 13.3436 292.618 13.3436C287.916 13.3436 283.89 14.8264 280.538 17.7858C277.084 20.7487 275.318 25.37 275.232 31.654C275.317 37.8981 277.084 42.5211 280.538 45.523C283.89 48.5071 287.916 49.9975 292.618 49.9975C297.383 49.9975 301.429 48.5063 304.756 45.523C308.169 42.5176 309.915 37.8964 310 31.654Z" fill="#087876"/>
<path d="M232.003 11.4281H238.864V10.0184H233.648V7.2846H238.388V5.95464H233.648V3.50862H238.772V2.09719H232.003V11.4281Z" fill="#087876"/>
<path d="M239.364 11.4281H241.13L242.805 8.93454L244.529 11.4281H246.336L243.727 7.79383L246.043 4.67222H244.304L242.815 6.7482L241.394 4.67222H239.574L241.932 7.8736L239.364 11.4281Z" fill="#087876"/>
<path d="M246.488 5.7815H247.621V9.77054C247.612 10.3341 247.735 10.7601 247.986 11.0538C248.236 11.3432 248.741 11.4917 249.504 11.4925C249.67 11.49 249.831 11.479 249.995 11.4604C250.151 11.4425 250.315 11.4281 250.48 11.4154V10.2662C250.375 10.2934 250.268 10.3061 250.165 10.312C250.06 10.3163 249.95 10.3179 249.85 10.3163C249.524 10.3163 249.318 10.2398 249.234 10.0845C249.149 9.92918 249.112 9.69836 249.123 9.38854V5.77896H250.481V4.67052H249.123V2.64632H247.622V4.67052H246.49L246.488 5.7815Z" fill="#087876"/>
<path d="M251.557 11.4281H253.058V8.21395C253.069 7.46368 253.247 6.89079 253.595 6.49868C253.938 6.10232 254.376 5.90288 254.902 5.90032C255.005 5.90118 255.116 5.90966 255.227 5.9241C255.335 5.93937 255.44 5.9521 255.548 5.96483V4.53049C255.488 4.522 255.42 4.51267 255.344 4.50418C255.268 4.49484 255.146 4.4889 254.979 4.4889C254.507 4.50672 254.08 4.66459 253.706 4.96333C253.328 5.26293 253.089 5.60242 252.989 5.97756H252.962V4.67052H251.554V11.4281" fill="#087876"/>
<path d="M257.144 7.45859C257.17 6.94256 257.342 6.5165 257.662 6.1838C257.981 5.84855 258.407 5.67627 258.933 5.66608C259.449 5.6805 259.852 5.86213 260.15 6.20757C260.451 6.55384 260.614 6.97141 260.647 7.45859H257.144ZM262.152 8.43547C262.23 7.75054 262.149 7.10721 261.906 6.51311C261.663 5.919 261.287 5.43438 260.779 5.06264C260.267 4.69174 259.654 4.50079 258.933 4.4889C258.258 4.49823 257.669 4.66204 257.178 4.9871C256.689 5.31131 256.308 5.74077 256.044 6.27716C255.781 6.8144 255.643 7.40936 255.643 8.05693C255.646 9.11363 255.934 9.96745 256.506 10.6142C257.08 11.2609 257.901 11.5927 258.973 11.6114C259.733 11.6072 260.389 11.4077 260.951 11.0147C261.508 10.6201 261.879 10.0574 262.057 9.3139H260.632C260.504 9.68481 260.3 9.96491 260.031 10.155C259.759 10.3434 259.406 10.4385 258.974 10.4385C258.349 10.4206 257.887 10.2186 257.59 9.835C257.29 9.44881 257.137 8.98372 257.143 8.43631L262.152 8.43547Z" fill="#087876"/>
<path d="M263.285 11.4281H264.785V7.41784C264.8 6.85174 264.95 6.41805 265.242 6.1193C265.527 5.81885 265.875 5.66608 266.277 5.66523C266.724 5.66523 267.04 5.7866 267.218 6.02763C267.395 6.26952 267.485 6.62344 267.478 7.09024V11.4281H268.979V7.46622C268.976 6.89503 269.088 6.452 269.321 6.13881C269.553 5.82649 269.921 5.66778 270.425 5.66523C270.993 5.67371 271.347 5.84091 271.487 6.17191C271.63 6.50038 271.688 6.93747 271.668 7.4815V11.4281H273.169V6.76348C273.162 5.947 272.96 5.36393 272.567 5.01001C272.172 4.65525 271.612 4.48211 270.888 4.4889C270.401 4.49314 269.98 4.59244 269.637 4.78935C269.295 4.98625 268.998 5.26209 268.752 5.61091C268.593 5.22644 268.343 4.94721 267.997 4.76219C267.653 4.57887 267.267 4.4889 266.844 4.4889C266.314 4.49484 265.883 4.59669 265.559 4.80208C265.234 5.00492 264.966 5.27227 264.749 5.61091H264.708V4.67138H263.287V11.4289" fill="#087876"/>
<path d="M280.444 6.44775C280.436 5.97501 280.298 5.59479 280.036 5.30791C279.77 5.01935 279.428 4.80971 279.016 4.67901C278.605 4.5517 278.169 4.4855 277.717 4.48805C277.207 4.4838 276.727 4.54916 276.272 4.68496C275.814 4.8182 275.434 5.05245 275.139 5.38006C274.838 5.71021 274.665 6.15919 274.621 6.73208H276.121C276.159 6.37137 276.314 6.09893 276.58 5.92494C276.85 5.7484 277.197 5.66014 277.624 5.66438C277.949 5.6525 278.26 5.71021 278.556 5.83158C278.856 5.95295 279.015 6.20247 279.035 6.5793C279.029 6.86278 278.932 7.05969 278.746 7.17256C278.556 7.28375 278.307 7.35673 278.003 7.39153C277.695 7.42803 277.359 7.47556 276.989 7.53158C276.561 7.57231 276.147 7.64955 275.749 7.76837C275.352 7.8838 275.025 8.0841 274.77 8.37266C274.512 8.65952 274.377 9.083 274.369 9.63645C274.389 10.2967 274.625 10.7906 275.076 11.1157C275.526 11.4467 276.071 11.6097 276.703 11.6097C277.113 11.6114 277.535 11.546 277.961 11.4145C278.387 11.2804 278.756 11.0733 279.062 10.7855C279.125 11.0885 279.258 11.3016 279.459 11.4272C279.661 11.5536 279.915 11.6139 280.222 11.6088C280.358 11.6046 280.517 11.5876 280.704 11.5545C280.894 11.5189 281.047 11.4798 281.17 11.4408V10.4096C281.091 10.4215 281.019 10.4291 280.959 10.4334C280.901 10.4334 280.846 10.4367 280.798 10.4367C280.661 10.4385 280.571 10.3977 280.518 10.3171C280.464 10.2373 280.439 10.1057 280.442 9.92327V6.4486L280.444 6.44775ZM278.943 9.15436C278.932 9.46663 278.838 9.71618 278.654 9.90627C278.47 10.0955 278.245 10.2288 277.988 10.3128C277.728 10.3977 277.482 10.4393 277.257 10.4376C277.075 10.4393 276.876 10.4122 276.664 10.3621C276.454 10.3086 276.266 10.2169 276.115 10.0914C275.966 9.96654 275.88 9.79345 275.873 9.5719C275.886 9.18654 276.009 8.915 276.245 8.75289C276.483 8.59163 276.768 8.48809 277.099 8.44565C277.435 8.39558 277.767 8.35144 278.099 8.31155C278.425 8.27166 278.708 8.1817 278.946 8.03996L278.943 9.15436Z" fill="#087876"/>
<path d="M288.471 2.09719H286.97V5.5464H286.942C286.7 5.17721 286.371 4.90562 285.956 4.73842C285.544 4.57038 285.115 4.4855 284.675 4.48975C284.173 4.48975 283.695 4.61197 283.25 4.85724C282.804 5.10507 282.439 5.4887 282.16 6.00641C281.878 6.52499 281.733 7.19039 281.724 8.00431C281.724 8.68753 281.841 9.29945 282.071 9.83754C282.305 10.3816 282.658 10.8085 283.131 11.1267C283.6 11.4425 284.197 11.6046 284.913 11.6114C285.351 11.6131 285.759 11.5256 286.138 11.3525C286.52 11.1752 286.812 10.8967 287.02 10.5165H287.048V11.4272H288.471V2.09719ZM283.227 8.12144C283.224 7.70981 283.284 7.31515 283.411 6.94426C283.533 6.57082 283.736 6.26698 284.014 6.02933C284.296 5.79593 284.67 5.67117 285.139 5.66523C285.724 5.67117 286.184 5.8808 286.517 6.29499C286.849 6.70916 287.02 7.29308 287.022 8.0425C287.025 8.44395 286.961 8.82336 286.828 9.1849C286.695 9.54645 286.485 9.84436 286.205 10.0769C285.925 10.3069 285.559 10.4283 285.115 10.4359C284.679 10.4265 284.324 10.3145 284.042 10.0947C283.764 9.87409 283.558 9.588 283.427 9.23754C283.291 8.88781 283.227 8.51524 283.227 8.12144Z" fill="#087876"/>
<path d="M296.075 4.67222H294.574V8.59418C294.584 9.12718 294.463 9.566 294.21 9.90881C293.956 10.2517 293.52 10.4283 292.901 10.4385C292.489 10.4453 292.171 10.323 291.942 10.0744C291.714 9.824 291.599 9.40554 291.595 8.81654V4.67138H290.095V8.96C290.089 9.84354 290.291 10.5055 290.698 10.9468C291.107 11.3899 291.752 11.6123 292.638 11.6123C293.023 11.6063 293.395 11.5045 293.748 11.3042C294.102 11.1055 294.38 10.8331 294.573 10.4911H294.603V11.4289H296.075V4.67222Z" fill="#087876"/>
<path d="M297.651 11.4281H299.155V8.21395C299.164 7.46368 299.34 6.89079 299.689 6.49868C300.036 6.10232 300.47 5.90288 300.997 5.90032C301.104 5.90118 301.21 5.90966 301.322 5.9241C301.43 5.93937 301.535 5.9521 301.643 5.96483V4.53049C301.581 4.522 301.513 4.51267 301.438 4.50418C301.363 4.49484 301.24 4.4889 301.077 4.4889C300.601 4.50672 300.178 4.66459 299.804 4.96333C299.422 5.26293 299.187 5.60242 299.085 5.97756H299.061V4.67052H297.65L297.651 11.4281Z" fill="#087876"/>
<path d="M307.982 6.44775C307.971 5.97501 307.835 5.59479 307.571 5.30791C307.304 5.01935 306.968 4.80971 306.554 4.67901C306.14 4.5517 305.704 4.4855 305.254 4.48805C304.743 4.4838 304.264 4.54916 303.805 4.68496C303.351 4.8182 302.972 5.05245 302.67 5.38006C302.373 5.71021 302.2 6.15919 302.158 6.73208H303.656C303.697 6.37137 303.85 6.09893 304.118 5.92494C304.388 5.7484 304.735 5.66014 305.16 5.66438C305.485 5.6525 305.798 5.71021 306.091 5.83158C306.391 5.95295 306.554 6.20247 306.573 6.5793C306.566 6.86278 306.472 7.05969 306.282 7.17256C306.091 7.28375 305.846 7.35673 305.537 7.39153C305.23 7.42803 304.891 7.47556 304.529 7.53158C304.097 7.57231 303.684 7.64955 303.285 7.76837C302.888 7.8838 302.565 8.0841 302.306 8.37266C302.048 8.65952 301.915 9.083 301.904 9.63645C301.928 10.2967 302.16 10.7906 302.614 11.1157C303.064 11.4467 303.605 11.6097 304.238 11.6097C304.648 11.6114 305.071 11.546 305.5 11.4145C305.922 11.2804 306.295 11.0733 306.6 10.7855C306.659 11.0885 306.79 11.3016 306.994 11.4272C307.197 11.5536 307.45 11.6139 307.757 11.6088C307.892 11.6046 308.052 11.5876 308.241 11.5545C308.427 11.5189 308.586 11.4798 308.705 11.4408V10.4096C308.624 10.4215 308.556 10.4291 308.495 10.4334C308.437 10.4334 308.38 10.4367 308.338 10.4367C308.199 10.4385 308.104 10.3977 308.055 10.3171C308.002 10.2373 307.976 10.1057 307.981 9.92327V6.4486L307.982 6.44775ZM306.481 9.15436C306.473 9.46663 306.376 9.71618 306.189 9.90627C306.005 10.0955 305.782 10.2288 305.524 10.3128C305.263 10.3977 305.021 10.4393 304.794 10.4376C304.612 10.4393 304.414 10.4122 304.202 10.3621C303.986 10.3086 303.805 10.2169 303.654 10.0914C303.497 9.96654 303.418 9.79345 303.411 9.5719C303.424 9.18654 303.547 8.915 303.782 8.75289C304.014 8.59163 304.303 8.48809 304.634 8.44565C304.974 8.39558 305.305 8.35144 305.633 8.31155C305.96 8.27166 306.246 8.1817 306.483 8.03996L306.481 9.15436Z" fill="#087876"/>
</svg>
