<svg width="310" height="41" viewBox="0 0 310 41" fill="none" xmlns="http://www.w3.org/2000/svg">
<path d="M262.481 6.46943L257.568 0H267.394L262.481 6.46943ZM45.747 7.35897H69.5871V15.9309H68.4595C67.0099 10.5128 65.721 8.73373 60.6469 8.73373H57.3448C55.9756 8.73373 55.6535 9.05723 55.6535 10.5128V23.209H61.5329C64.8351 23.209 65.3988 21.8343 66.1234 18.4379H67.251V29.4359H66.1234C65.3988 26.0394 64.8351 24.6647 61.5329 24.6647H55.6535V36.3097C55.6535 38.8166 55.9756 38.9783 60.0026 39.1401V40.1913H45.4248V39.0592C48.6464 38.8974 49.0492 38.7357 49.0492 36.2288V11.3215C49.0492 8.8146 48.8881 8.65285 45.6665 8.41022C42.8475 8.8146 42.3643 9.05723 41.9616 11.9684C41.8005 13.5858 41.72 16.0927 41.72 18.5187V40.1913H37.3708L19.3297 12.9389H19.1686V29.2741C19.1686 31.862 19.2492 33.8837 19.4908 35.5819C19.8129 38.9783 20.9405 38.8974 24.1621 39.1401V40.1913H14.014H13.3697H0V39.0592C3.46324 38.8974 3.62432 38.7357 3.62432 36.2288V11.3215C3.62432 8.89548 3.46324 8.65285 0 8.41022V7.2781H13.6114H13.9335H23.2762L39.948 31.4576L40.1091 31.5385L40.0286 18.5187C40.0286 16.0118 39.948 13.6667 39.787 11.9684C39.3843 8.57198 38.3373 8.65285 34.874 8.41022V7.2781H45.2637H45.747V7.35897ZM17.5578 11.0789C17.5578 9.13804 17.3967 8.97636 13.7724 8.4911C10.7119 8.65285 10.3897 8.89548 10.3897 11.4024V36.3905C10.3897 38.6548 10.6313 39.0592 13.5308 39.2209C16.3497 38.8166 16.9941 38.6549 17.3162 35.6627C17.4773 34.0453 17.6384 31.862 17.6384 29.1124V11.0789H17.5578ZM219.312 39.787C210.694 39.787 209.083 30.4872 209.083 23.3708C209.083 18.1144 210.291 7.6016 218.828 7.6016C224.708 7.6016 227.285 12.7771 228.171 16.7396H229.299V8.4911C226.882 7.03553 222.292 6.46943 219.312 6.46943C212.305 6.46943 208.358 8.32942 205.62 11.4832C202.72 14.6371 201.593 18.9231 201.593 24.0177C201.593 34.854 206.506 40.9191 218.426 40.9191C221.808 40.9191 226.722 40.1913 229.299 38.7357L230.023 30.0828H228.896C227.124 36.1479 225.03 39.787 219.312 39.787ZM204.009 39.1401V40.1913H189.673V39.0592L192.169 38.7357C193.297 38.6548 193.458 38.0079 193.055 36.9566L189.995 27.5759H180.089C179.041 31.0533 178.075 33.8837 177.511 36.6331C177.108 38.0887 177.35 38.7357 178.478 38.8974L181.216 39.0592V40.1913H171.712H171.229H157.698V39.0592C161.001 38.8166 161.323 38.7357 161.323 36.2288V11.7259H161.161L150.691 40.1913H149L137.805 12.1302H137.724V28.8698C137.724 31.4576 137.805 33.8837 138.047 35.5819C138.369 38.8974 139.496 38.8166 142.637 39.1401V40.1913H133.214H131.684H129.589C124.999 40.1913 123.308 38.8974 122.18 35.501C121.616 33.641 121.213 30.9724 120.811 28.9507C120.167 24.9882 118.716 24.3412 115.334 24.3412H113.32V36.3097C113.32 38.8166 113.562 38.8974 117.025 39.1401V40.1913H102.931V39.0592C106.475 38.8974 106.635 38.7357 106.635 36.2288V11.3215C106.635 8.8146 106.313 8.65285 102.931 8.41022V7.2781H118.636C124.918 7.2781 129.026 9.05723 129.026 15.284C129.026 19.7318 125.965 22.4813 120.811 23.0474V23.4517C125.723 24.6647 127.496 27.1716 128.543 32.0236C129.67 36.8757 130.073 38.574 132.408 38.9783C134.825 38.6548 135.55 38.4122 135.791 35.501C135.952 33.8837 136.114 31.215 136.114 28.7889V11.3215C136.114 8.8146 135.63 8.65285 132.167 8.41022V7.2781H142.557L152.543 30.002H152.705L161.483 7.2781H171.712V8.41022C168.168 8.57198 168.008 8.73373 168.008 11.3215V36.3097C168.008 38.7357 168.168 38.9783 171.39 39.1401C173.887 38.9783 174.289 38.574 175.337 36.1479C177.27 31.5385 182.585 16.0118 185.485 7.19722H190.156L200.062 36.714C200.868 38.7357 201.351 38.9783 204.009 39.1401ZM121.938 15.8501C121.938 10.8363 119.522 8.4911 116.301 8.4911C113.482 8.4911 113.32 8.8146 113.32 10.2702V23.1282H115.334C120.569 23.1282 121.938 20.7022 121.938 15.8501ZM189.512 26.1203C188.625 23.2899 186.21 15.6884 185.082 12.2919H184.921C184.115 14.8797 181.538 22.9665 180.652 26.1203H189.512ZM278.348 23.7752C278.348 34.3688 273.515 41 262.642 41C251.85 41 246.937 34.3688 246.937 23.7752C246.937 13.1814 251.769 6.46943 262.642 6.46943H262.723C273.435 6.46943 278.348 13.1814 278.348 23.7752ZM270.857 23.7752C270.857 17.4675 269.891 7.68247 262.642 7.68247H262.562C255.394 7.68247 254.347 17.4675 254.347 23.7752C254.347 30.3255 255.394 39.787 262.562 39.787C269.891 39.787 270.857 30.3255 270.857 23.7752ZM299.208 7.35897V8.4911C302.591 8.8146 303.718 8.65285 304.121 12.0493C304.282 13.7476 304.362 16.0118 304.362 18.5996L304.443 31.6193L304.282 31.5385C299.047 23.9369 292.845 15.1223 287.61 7.35897H277.945V8.4911C281.65 8.97636 281.892 9.13804 281.892 11.1597V29.1124C281.892 31.862 281.811 33.9645 281.57 35.6627C281.248 38.7357 280.603 38.8166 277.623 39.2209V40.1913H288.415V39.0592C285.194 38.7357 284.066 38.8974 283.744 35.501C283.503 33.8028 283.422 31.7811 283.422 29.1933V12.9389H283.583C289.623 21.9152 296.067 31.7002 301.624 40.2722H305.973V18.5187C305.973 16.0927 306.054 13.6667 306.215 11.9684C306.537 8.97636 307.101 8.8146 310 8.41022V7.2781L299.208 7.35897ZM231.876 8.41022C235.339 8.57198 235.5 8.89548 235.5 11.3215V36.3097C235.5 38.8166 235.339 38.9783 231.876 39.1401V40.1913H245.89V39.0592C242.588 38.8974 242.266 38.574 242.266 36.2288V11.3215C242.266 8.8146 242.588 8.65285 245.89 8.41022V7.2781H231.876V8.41022ZM102.367 23.7752C102.367 34.3688 97.5347 41 86.6616 41C75.7886 41 70.9563 34.3688 70.9563 23.7752C70.9563 13.1814 75.7886 6.46943 86.6616 6.46943H86.742C97.4537 6.46943 102.367 13.1814 102.367 23.7752ZM94.8765 23.7752C94.8765 17.4675 93.9103 7.68247 86.6616 7.68247H86.5813C79.4129 7.68247 78.3657 17.4675 78.3657 23.7752C78.3657 30.3255 79.4129 39.787 86.5813 39.787C93.9103 39.787 94.8765 30.3255 94.8765 23.7752Z" fill="#006F9F"/>
</svg>
