<svg width="389" height="55" viewBox="0 0 389 55" fill="none" xmlns="http://www.w3.org/2000/svg">
<g clip-path="url(#clip0_2769_14375)">
<path d="M58.4834 25.7583C58.4834 14.4833 63.7084 5.68333 76.3584 5.68333C89.0084 5.68333 94.0501 14.3917 94.0501 25.6667C94.0501 36.575 88.9167 46.2 76.1751 46.2C63.6167 46.1083 58.4834 36.7583 58.4834 25.7583ZM81.6751 27.3167V23.375C81.6751 15.675 80.1167 14.4833 76.1751 14.4833C72.2334 14.4833 70.7667 15.95 70.7667 23.65V27.5C70.7667 36.3 72.4167 37.95 76.2667 37.95C80.1167 37.95 81.6751 36.1167 81.6751 27.3167ZM110.092 13.2C110.825 12.925 112.2 12.4667 114.308 12.4667C121.917 12.4667 125.033 18.7917 125.033 29.0583C125.033 39.5083 122.375 45.1917 113.758 45.1917C111.008 45.1917 108.808 44.4583 107.25 43.3583V55H96.4334V13.2917H104.317L106.792 17.325L110.092 13.2ZM110.458 38.8667C113.3 38.8667 113.942 37.2167 113.942 31.5333V26.7667C113.942 22.55 112.933 21.175 110.733 21.175C109.45 21.175 108.258 21.45 107.158 21.9083V38.1333C108.258 38.5917 109.267 38.8667 110.458 38.8667ZM126.867 5.5C126.867 2.10833 129.433 0 132.733 0C136.033 0 138.692 2.10833 138.692 5.5C138.692 8.98333 136.033 10.9083 132.733 10.9083C129.433 10.9083 126.867 8.98333 126.867 5.5ZM127.417 13.2917H138.233V45.2833H127.417V13.2917ZM156.2 13.475C157.667 12.8333 159.5 12.5583 160.967 12.5583C167.017 12.5583 169.675 16.8667 169.675 23.4667V45.375H158.858V23.1C158.858 21.9083 158.217 21.175 156.383 21.175C155.1 21.175 154.183 21.45 152.808 21.8167V45.2833H142.083V13.2917H149.967L152.808 17.6917L156.2 13.475ZM172.7 5.5C172.7 2.10833 175.267 0 178.567 0C181.867 0 184.525 2.10833 184.525 5.5C184.525 8.98333 181.867 10.9083 178.567 10.9083C175.267 10.9083 172.7 8.98333 172.7 5.5ZM173.25 13.2917H184.067V45.2833H173.25V13.2917ZM186.358 29.3333C186.358 18.7917 191.583 12.5583 200.933 12.5583C210.192 12.5583 215.508 18.8833 215.508 29.15C215.508 39.7833 210.1 46.1083 200.933 46.1083C191.675 46.1083 186.358 39.7833 186.358 29.3333ZM198.183 0.275H210.742L203.133 10.0833H196.717L198.183 0.275ZM204.325 30.4333V28.1417C204.325 21.8167 203.592 20.7167 200.842 20.7167C198.092 20.7167 197.45 21.8167 197.45 28.05V30.3417C197.45 36.9417 198.183 38.225 200.842 38.225C203.592 38.3167 204.325 37.0333 204.325 30.4333ZM231.733 13.475C233.2 12.8333 235.033 12.5583 236.5 12.5583C242.55 12.5583 245.208 16.8667 245.208 23.4667V45.375H234.392V23.1C234.392 21.9083 233.75 21.175 231.917 21.175C230.633 21.175 229.717 21.45 228.342 21.8167V45.2833H217.525V13.2917H225.408L228.25 17.6917L231.733 13.475Z" fill="#C32E1D"/>
<path d="M11 36.5749C11 40.2416 11.7333 41.3416 18.15 41.3416C24.1083 41.3416 27.0417 40.1499 28.4167 32.4499H30.4333L29.15 43.3582H0V41.5249C4.95 41.1582 5.04167 41.0666 5.04167 37.9499V9.80824C5.04167 6.5999 4.95 6.50824 0 6.23324V4.3999H16.4083V6.23324C11.0917 6.50824 11 6.5999 11 9.80824V36.5749ZM52.9833 36.0249C52.9833 39.5999 53.9 40.6082 54.9083 40.7916C55.55 40.8832 56.375 40.9749 57.1083 40.7916L57.3833 42.5332C56.0083 43.4499 53.5333 44.1832 51.425 44.1832C49.4083 44.1832 48.4 43.0832 47.7583 40.8832C45.925 41.9832 42.9 44.1832 39.4167 44.1832C34.1 44.1832 31.2583 40.5166 31.2583 36.2082C31.2583 33.5499 32.45 30.6166 36.4833 29.3332C40.8833 27.9582 46.2917 26.4916 47.7583 25.0249V23.0082C47.7583 18.6082 45.5583 17.2332 42.8083 17.2332C40.5167 17.2332 38.5917 18.4249 37.3083 22.6416C37.0333 23.6499 36.575 24.2916 35.3833 24.2916C34.2833 24.2916 32.2667 23.3749 32.2667 21.6332C32.2667 18.5166 36.85 15.1249 43.2667 15.1249C51.7917 15.1249 52.9833 19.5249 52.9833 22.8249C52.9833 22.8249 52.9833 36.0249 52.9833 36.0249ZM47.6667 27.4082C46.3833 28.1416 43.5417 29.2416 41.25 30.0666C38.225 31.2582 37.0333 32.6332 37.0333 35.2916C37.0333 38.4999 38.775 40.8832 42.1667 40.8832C44.275 40.8832 47.6667 39.7832 47.6667 35.2916V27.4082Z" fill="#1A171B"/>
<path d="M259.875 27.4083C263.267 27.4083 265.467 28.05 266.933 29.5166C268.4 30.9833 269.042 33.0916 269.042 36.025C269.042 44.9166 262.258 45.2833 258.592 45.2833H251.167V44.275C252.908 44.1833 253.183 44.0916 253.183 42.8083V29.975C253.183 28.6 252.908 28.5083 251.167 28.4166V27.4083H259.875V27.4083ZM257.491 43.175C257.491 43.8166 257.766 44.0916 259.325 44.0916C261.708 44.0916 264.183 43.0833 264.183 36.2083C264.183 31.075 262.35 28.6 259.233 28.6C257.766 28.6 257.491 28.6916 257.491 29.2416V43.175ZM271.608 29.8833C271.608 28.6 271.425 28.4166 269.592 28.4166V27.4083H283.433V32.2666H282.425C281.6 29.7916 281.141 28.6916 278.483 28.6916H276.741C276.008 28.6916 275.825 28.875 275.825 29.6083V35.3833H278.025C279.583 35.3833 279.95 34.925 280.316 33H281.325V39.2333H280.5C280.042 37.3083 279.675 36.7583 278.208 36.7583H276.008V42.35C276.008 44 276.1 44.1833 279.033 44.1833C282.058 44.1833 282.517 42.625 283.433 39.875H284.441L284.075 45.375H269.683V44.3666C271.425 44.275 271.7 44.1833 271.7 42.9L271.608 29.8833ZM288.658 45.2833V44.275C290.033 44.0916 290.492 44.3666 290.675 42.7166C290.767 41.8 290.767 40.7916 290.767 38.5916V29.8833C290.767 28.6 290.492 28.4166 288.75 28.4166V27.4083H295.717C296.817 30.4333 299.2 36.4833 299.933 38.5916H300.025C301.4 34.65 302.592 31.35 303.967 27.4083H310.566V28.4166C308.825 28.5083 308.55 28.6 308.55 29.975V42.8083C308.55 44.0916 308.825 44.275 310.566 44.275V45.2833H302.408V44.275C304.15 44.1833 304.425 44.0916 304.425 42.8083V29.975H304.333C302.958 34.1 300.208 42.625 299.292 45.2833H297.642C295.9 40.3333 293.516 33.275 292.325 29.975H292.233V38.5916C292.233 40.7916 292.233 41.8 292.325 42.7166C292.416 44.4583 293.425 44.0916 294.708 44.275V45.2833H288.658V45.2833ZM329.45 27.4083V28.4166C327.8 28.5083 327.525 28.6 327.525 29.8833V39.6C327.525 41.0666 327.25 42.1666 326.7 43.0833C325.6 44.9166 323.491 45.7416 320.191 45.7416C316.8 45.7416 314.783 45.1 313.683 43.45C313.042 42.4416 312.675 41.25 312.675 39.6V29.8833C312.675 28.6 312.492 28.4166 310.842 28.4166V27.4083H319.092V28.4166C317.442 28.5083 317.167 28.6 317.167 29.8833V40.0583C317.167 42.9916 318.175 44.4583 320.191 44.4583C322.391 44.4583 323.308 42.9916 323.308 40.0583V29.8833C323.308 28.6 323.125 28.4166 321.475 28.4166V27.4083C321.475 27.4083 329.45 27.4083 329.45 27.4083ZM336.142 42.8083C336.142 44.0916 336.325 44.275 338.158 44.275V45.2833H329.725V44.275C331.467 44.1833 331.742 44.0916 331.742 42.8083V29.8833C331.742 28.6 331.558 28.4166 329.725 28.4166V27.4083H338.708C341.733 27.4083 344.758 27.775 344.758 31.8083C344.758 34.375 342.925 35.8416 340.45 36.1166V36.3C343.292 36.9416 344.208 38.6833 344.575 40.7916C344.942 42.8083 345.4 44.275 347.142 44.3666V45.375H345.125C342.283 45.375 341 44.7333 340.358 42.7166C339.9 41.4333 339.808 39.9666 339.625 39.05C339.258 37.4916 338.617 37.0333 337.242 37.0333H336.325L336.142 42.8083ZM336.142 35.8416H337.15C339.9 35.8416 340.175 34.1 340.175 32.175C340.175 29.7 338.983 28.6 337.425 28.6C336.142 28.6 336.142 28.7833 336.142 29.5166V35.8416V35.8416ZM362.175 39.4166L361.808 44.55C360.25 45.4666 357.592 45.7416 355.85 45.7416C348.975 45.7416 346.5 41.9833 346.5 36.575C346.5 33.9166 347.05 31.4416 348.7 29.7C350.258 27.9583 352.642 26.95 356.308 26.95C357.408 26.95 360.25 27.1333 361.9 28.1416V32.8166H360.892C360.067 30.7083 359.425 28.1416 356.125 28.1416C351.542 28.1416 351.358 34.4666 351.358 36.025C351.358 38.9583 351.908 44.4583 356.4 44.4583C359.241 44.4583 360.158 42.1666 361.167 39.325L362.175 39.4166ZM386.65 43.0833C385.366 39.6916 382.8 31.7166 381.333 27.3166H377.85C376.292 32.175 373.817 39.875 372.533 42.9916C372.167 43.9083 371.892 44.1833 370.792 44.275C369.417 44.1833 369.233 44 369.233 42.8083V29.8833C369.233 28.6 369.417 28.4166 371.25 28.4166V27.4083H362.816V28.4166C364.558 28.5083 364.833 28.6 364.833 29.8833V42.8083C364.833 44.0916 364.558 44.275 362.816 44.275V45.2833H370.517H371.158H376.292V44.275L374.733 44.1833C374.183 44.0916 374.183 43.8166 374.275 43.2666C374.641 41.9833 375.1 40.5166 375.558 38.9583H380.6C380.967 39.9666 381.517 41.7083 381.975 43.175C382.158 43.725 382.066 44 381.608 44.0916L380.05 44.275V45.2833H388.667V44.275C387.383 44.275 387.016 44.0916 386.65 43.0833ZM376.017 37.7666C376.658 35.6583 377.575 32.45 378.125 30.8916H378.217C378.675 32.6333 379.775 36.1166 380.325 37.7666H376.017Z" fill="#1A171B"/>
</g>
<defs>
<clipPath id="clip0_2769_14375">
<rect width="389" height="55" fill="white"/>
</clipPath>
</defs>
</svg>
