<svg width="310" height="44" viewBox="0 0 310 44" fill="none" xmlns="http://www.w3.org/2000/svg">
<path d="M47.6147 20.3454C47.6147 11.4398 51.7022 4.48902 61.5981 4.48902C71.494 4.48902 75.438 11.3673 75.438 20.273C75.438 28.889 71.4223 36.4914 61.4547 36.4914C51.5588 36.419 47.6147 29.0338 47.6147 20.3454ZM65.7572 21.5762V18.4629C65.7572 12.381 64.5382 11.4398 61.4547 11.4398C58.3712 11.4398 57.2238 12.5982 57.2238 18.6801V21.7211C57.2238 28.6718 58.5146 29.9751 61.5264 29.9751C64.5382 29.9751 65.7572 28.527 65.7572 21.5762ZM87.9155 10.4261C88.4892 10.2089 89.5648 9.84688 91.2141 9.84688C97.166 9.84688 99.6041 14.8427 99.6041 22.9519C99.6041 31.2059 97.5246 35.6949 90.7839 35.6949C88.6326 35.6949 86.9116 35.1157 85.6925 34.2469V43.4421H77.2308V10.4985H83.3978L85.3339 13.6843L87.9155 10.4261ZM88.2023 30.6991C90.4253 30.6991 90.9273 29.3958 90.9273 24.9068V21.1418C90.9273 17.8113 90.1385 16.7252 88.4174 16.7252C87.4135 16.7252 86.4813 16.9424 85.6208 17.3044V30.1199C86.553 30.4819 87.2701 30.6991 88.2023 30.6991ZM101.11 4.34421C101.11 1.66528 103.118 0 105.699 0C108.281 0 110.361 1.66528 110.361 4.34421C110.361 7.09554 108.281 8.61602 105.699 8.61602C103.118 8.61602 101.11 7.09554 101.11 4.34421ZM101.469 10.4985H109.93V35.7673H101.469V10.4985ZM123.985 10.6433C125.133 10.1365 126.567 9.91928 127.714 9.91928C132.447 9.91928 134.527 13.3222 134.527 18.5353V35.8397H126.065V18.2457C126.065 17.3044 125.563 16.7252 124.129 16.7252C123.125 16.7252 122.408 16.9424 121.332 17.232V35.7673H112.87V10.4985H119.037L121.26 13.9739L123.985 10.6433ZM136.965 4.34421C136.965 1.66528 138.973 0 141.554 0C144.136 0 146.215 1.66528 146.215 4.34421C146.215 7.09554 144.136 8.61602 141.554 8.61602C138.973 8.61602 136.965 7.09554 136.965 4.34421ZM137.323 10.4985H145.785V35.7673H137.323V10.4985ZM147.578 23.1691C147.578 14.8427 151.665 9.91928 158.98 9.91928C166.222 9.91928 170.381 14.9151 170.381 23.0243C170.381 31.4231 166.151 36.419 158.98 36.419C151.737 36.419 147.578 31.4231 147.578 23.1691ZM156.828 0.217211H166.653L160.701 7.96439H155.681L156.828 0.217211ZM161.705 24.038V22.2279C161.705 17.232 161.131 16.3632 158.98 16.3632C156.828 16.3632 156.326 17.232 156.326 22.1555V23.9656C156.326 29.1786 156.9 30.1923 158.98 30.1923C161.131 30.2647 161.705 29.251 161.705 24.038ZM183.074 10.6433C184.221 10.1365 185.656 9.91928 186.803 9.91928C191.536 9.91928 193.615 13.3222 193.615 18.5353V35.8397H185.154V18.2457C185.154 17.3044 184.652 16.7252 183.217 16.7252C182.213 16.7252 181.496 16.9424 180.421 17.232V35.7673H171.959V10.4985H178.126L180.349 13.9739L183.074 10.6433Z" fill="#00653E"/>
<path d="M8.46172 28.8889C8.46172 31.785 9.0354 32.5814 13.9834 32.5814C18.501 32.5814 20.7958 31.6402 21.7997 25.7031H23.3056L22.3017 34.1743H0V32.7262C3.72889 32.4366 3.87231 32.3642 3.87231 29.9749V8.18146C3.87231 5.71974 3.8006 5.64734 0 5.43013V3.98206H12.5492V5.43013C8.53343 5.64734 8.39001 5.71974 8.39001 8.18146V28.8889H8.46172ZM40.5876 28.4544C40.5876 31.2058 41.3047 32.0022 42.0218 32.147C42.452 32.2194 43.0974 32.2918 43.7428 32.147L43.9579 33.5227C42.8823 34.2467 41.0178 34.7535 39.3685 34.7535C37.8626 34.7535 37.0738 33.8847 36.5001 32.2194C35.1377 33.0883 32.7712 34.7535 30.118 34.7535C26.0305 34.7535 23.8793 31.8574 23.8793 28.5993C23.8793 26.4995 24.8115 24.255 27.895 23.2414C31.2653 22.1553 35.4245 21.0693 36.5001 19.9108V18.3904C36.5001 14.9874 34.7791 13.9013 32.6995 13.9013C30.9785 13.9013 29.4726 14.8426 28.4687 18.1007C28.2535 18.8972 27.895 19.404 27.0345 19.404C26.174 19.404 24.6681 18.68 24.6681 17.3043C24.6681 14.915 28.1818 12.3085 33.1298 12.3085C39.6553 12.3085 40.5876 15.7114 40.5876 18.318V28.4544ZM36.5718 21.8657C35.6396 22.445 33.4166 23.3138 31.6956 23.9654C29.3292 24.9067 28.4687 25.9927 28.4687 28.02C28.4687 30.5541 29.8312 32.3642 32.4127 32.3642C34.062 32.3642 36.6436 31.4954 36.6436 28.02L36.5718 21.8657Z" fill="#1A171B"/>
<path d="M204.013 21.4317H197.058V22.2281C198.42 22.3005 198.635 22.3729 198.635 23.459V33.8127C198.635 34.8987 198.492 34.9711 197.058 35.0435V35.84H203.01C205.95 35.84 211.328 35.5504 211.328 28.4548C211.328 26.0655 210.826 24.4002 209.607 23.2418C208.388 22.0109 206.667 21.4317 204.013 21.4317ZM203.583 34.8263C202.364 34.8263 202.149 34.6091 202.149 34.0299V22.9522C202.149 22.5901 202.364 22.4453 203.511 22.4453C206.021 22.4453 207.455 24.4726 207.455 28.5272C207.455 34.0299 205.519 34.8263 203.583 34.8263ZM222.73 31.4234H223.518L223.232 35.84H211.83V35.0435C213.192 34.9711 213.407 34.8987 213.407 33.8127V23.459C213.407 22.3729 213.264 22.3005 211.83 22.2281V21.4317H222.873V25.3415H222.084C221.367 23.3142 221.009 22.4453 219.001 22.4453H217.638C217.065 22.4453 216.921 22.5901 216.921 23.1694V27.8032H218.642C219.861 27.8032 220.148 27.4412 220.507 25.9207H221.295V30.9165H220.507C220.148 29.3961 219.861 28.8892 218.642 28.8892H216.921V33.3059C216.921 34.6091 216.993 34.8263 219.288 34.8263C221.654 34.8263 221.941 33.5955 222.73 31.4234ZM281.46 34.0299C280.456 31.2786 278.376 24.907 277.229 21.3593H274.504C273.285 25.1967 271.277 31.4234 270.273 33.9575C269.914 34.7539 269.771 34.8987 268.767 34.9711L268.911 31.5682H268.122C267.333 33.5231 267.19 34.7539 264.895 34.7539C263.245 34.7539 262.815 34.6091 262.815 33.2334V23.459C262.815 22.3729 262.959 22.3005 264.68 22.2281V21.4317H257.724V22.2281C259.158 22.3005 259.301 22.3729 259.301 23.459V33.8127C259.301 34.7539 259.086 34.9711 257.939 34.9711C257.15 34.8987 256.863 34.7539 256.648 34.0299C255.644 31.2786 253.565 24.907 252.417 21.3593H249.692C248.473 25.1967 246.465 31.4234 245.462 33.9575C245.175 34.7539 244.96 34.8987 244.099 34.9711C243.023 34.8987 242.808 34.7539 242.808 33.8127V23.459C242.808 22.3729 243.023 22.3005 244.386 22.2281V21.4317H239.079C238.004 24.6174 237.072 27.2964 235.996 30.4097H235.924C235.279 28.7444 233.414 23.821 232.554 21.4317H227.032V22.2281C228.395 22.3005 228.61 22.3729 228.61 23.459V30.4097C228.61 32.2198 228.61 33.0162 228.538 33.7403C228.395 35.0435 228.036 34.8263 226.96 34.9711V35.7676H231.837V34.9711C230.761 34.8263 230.044 35.1159 229.901 33.7403C229.829 33.0162 229.829 32.1474 229.829 30.4097V23.459H229.901C230.905 26.1379 232.769 31.7854 234.131 35.7676H235.422C236.139 33.5955 238.291 26.7171 239.438 23.459H239.51V33.7403C239.51 34.7539 239.294 34.8987 237.932 34.9711V35.7676H248.473V34.9711L247.254 34.8263C246.824 34.7539 246.752 34.5367 246.896 34.1023C247.183 33.0886 247.541 31.8578 247.9 30.6993H251.915C252.202 31.4958 252.632 32.9438 252.991 34.1023C253.134 34.5367 253.063 34.7539 252.704 34.8263L251.485 34.9711V35.7676H273.285V34.9711L272.066 34.8263C271.635 34.7539 271.564 34.5367 271.707 34.1023C271.994 33.0886 272.353 31.8578 272.711 30.6993H276.727C277.014 31.4958 277.444 32.9438 277.802 34.1023C277.946 34.5367 277.874 34.7539 277.516 34.8263L276.297 34.9711V35.7676H283.109V34.9711C282.033 34.9711 281.747 34.8263 281.46 34.0299ZM248.115 29.7581C248.617 28.0928 249.406 25.4863 249.764 24.2554H249.836C250.194 25.6311 251.055 28.4548 251.485 29.7581H248.115ZM272.998 29.7581C273.5 28.0928 274.289 25.4863 274.647 24.2554H274.719C275.078 25.6311 275.938 28.4548 276.368 29.7581H272.998ZM296.304 29.9029C295.371 30.0477 295.228 30.1201 295.228 31.0613V35.1159C293.865 35.6952 291.858 36.1296 290.208 36.1296C288.917 36.1296 286.766 36.0572 285.332 35.0435C283.826 33.9575 282.679 32.1474 282.679 28.672C282.679 26.0655 283.611 21.0697 290.352 21.0697C291.929 21.0697 293.722 21.2869 295.085 22.0109V25.8483H294.296C293.722 24.183 292.718 22.0109 290.423 22.0109C286.91 22.0109 286.623 26.4275 286.623 28.3824C286.623 29.7581 286.838 35.1159 290.423 35.1159C290.925 35.1159 291.284 35.0435 291.427 34.9711C291.714 34.8263 291.786 34.6091 291.786 34.1747V31.1337C291.786 30.1201 291.642 30.0477 290.137 29.9029V29.1064H296.447V29.9029H296.304ZM308.351 34.0299C307.347 31.2786 305.267 24.907 304.12 21.3593H301.395C300.176 25.1967 298.168 31.4234 297.164 33.9575C296.806 34.8263 296.59 34.9711 295.515 35.0435V35.84H300.176V35.0435L298.957 34.8987C298.527 34.8263 298.455 34.6091 298.598 34.1747C298.885 33.161 299.244 31.9302 299.602 30.7717H303.618C303.905 31.5682 304.335 33.0162 304.694 34.1747C304.837 34.6091 304.765 34.8263 304.407 34.8987L303.188 35.0435V35.84H310V35.0435C308.924 34.9711 308.638 34.8263 308.351 34.0299ZM299.889 29.7581C300.391 28.0928 301.18 25.4863 301.538 24.2554H301.61C301.969 25.6311 302.829 28.4548 303.259 29.7581H299.889ZM250.338 20.6352L249.979 19.9836L252.561 17.5943C253.421 16.8703 253.78 16.7979 254.138 16.7979C254.784 16.7979 255.214 17.6667 255.214 18.1735C255.214 18.7527 254.569 19.1872 253.636 19.4768L250.338 20.6352Z" fill="#1A171B"/>
</svg>
