<svg width="310" height="31" viewBox="0 0 310 31" fill="none" xmlns="http://www.w3.org/2000/svg">
<path d="M191.913 24.422C191.667 24.3411 191.748 24.1794 191.585 24.422C191.502 24.5028 191.421 24.7454 191.257 24.988C190.519 26.1201 189.78 27.1714 188.714 27.5757C183.384 29.84 180.432 24.988 180.924 20.1361C182.646 20.1361 184.451 20.1361 186.665 20.1361C188.059 20.1361 191.421 20.6213 192.241 19.8126C192.979 19.0847 192.568 16.9822 192.241 15.8501C191.913 14.6371 191.011 13.3433 190.6 12.9389C188.059 10.4321 181.58 10.3512 178.546 12.2112C174.281 14.7989 172.969 24.3411 177.234 28.4653C178.628 29.7592 180.76 30.487 182.974 30.6487C186.336 30.8913 189.288 29.5975 190.847 27.7375C191.502 26.9288 191.994 25.8775 192.159 25.1498C192.322 24.422 192.487 24.6646 191.913 24.422ZM185.271 12.3729C186.336 13.3433 186.746 16.7396 186.254 18.8421C184.86 19.3273 182.646 18.923 180.924 19.0847C180.596 15.7692 182.4 9.94683 185.271 12.3729ZM174.2 29.4357C173.954 28.9505 173.298 29.3549 172.887 29.1931C171.329 28.8697 171.658 27.414 171.658 25.3923C171.658 17.5483 171.658 9.94683 171.658 2.50715C171.658 1.94109 171.821 1.05155 171.412 0.889823C169.607 1.13242 165.999 1.21329 164.031 1.53676C163.539 1.61762 163.375 1.37503 163.293 1.86022C163.047 2.50715 163.457 2.42629 164.031 2.58802C164.523 2.74975 165.097 2.66889 165.343 2.91148C166.491 4.04362 165.097 9.62337 165.671 11.3216C161.325 10.1894 157.307 11.3216 155.174 13.505C150.582 18.1952 151.566 31.053 160.013 30.6487C162.391 30.5678 164.113 29.0314 165.671 28.2226C165.671 28.8697 165.671 29.5166 165.671 30.1635C167.229 30.1635 170.345 30.1635 172.313 30.1635C173.215 30.1635 174.609 30.5678 174.2 29.4357ZM162.719 28.3035C160.341 28.0609 159.111 24.988 158.865 21.6725C158.619 17.7909 159.193 12.6964 162.062 12.0494C163.375 11.8068 165.015 12.2112 165.507 13.2624C166.163 14.6371 165.753 18.5187 165.753 20.783C165.753 24.5837 166.491 28.7079 162.719 28.3035ZM307.704 28.7888C307.13 28.3844 306.474 26.6053 306.146 25.6349C303.194 17.3866 300.57 8.32954 297.945 0.56636C296.305 0.56636 294.665 0.56636 292.943 0.56636C292.779 0.56636 292.861 0.728092 292.861 0.889823C290.155 8.65301 287.285 17.7909 284.086 25.6349C283.348 27.5757 282.692 29.4357 279.986 29.1123C280.151 26.3627 280.478 23.8559 280.642 21.1065C280.314 21.1065 279.986 21.1065 279.658 21.1065C279.084 21.5917 279.166 22.3195 278.92 22.9664C278.182 24.9072 277.362 26.6862 275.558 27.7375C272.77 29.3549 268.259 28.4653 263.831 28.7079C268.752 19.9744 274.41 11.1599 279.412 2.58802C279.658 2.10283 280.314 1.37503 279.986 0.728094C272.36 0.485494 264.324 0.728093 256.533 0.647226C256.533 2.74975 256.533 5.17575 256.533 7.19741C256.533 7.92521 256.368 8.81474 256.779 9.13817C257.681 9.46164 257.681 8.73387 257.845 8.24867C258.091 7.68261 258.173 7.03568 258.255 6.63135C258.583 5.66095 258.993 4.60968 259.731 3.88189C262.027 1.45589 266.947 2.18369 271.458 2.26456C266.455 10.9982 261.125 19.8935 255.877 28.2226C255.548 28.7079 254.974 29.3549 255.139 30.0826C263.175 30.3252 271.704 30.0826 279.904 30.1635C279.986 29.84 279.74 29.1931 279.986 29.0314C279.986 29.4357 279.986 29.7592 279.986 30.1635C282.611 30.0826 285.563 30.2444 288.023 30.1635C288.351 30.1635 288.925 30.3252 289.007 29.9209C289.007 29.6783 289.007 29.3549 289.007 29.0314C288.105 28.5461 286.219 29.1931 285.726 28.3844C285.973 25.2306 287.203 22.0769 288.187 19.2465C291.057 19.2465 293.845 19.2465 296.715 19.2465C297.125 20.783 297.699 22.3195 298.192 23.8559C298.684 25.3923 299.339 26.9288 299.339 28.5461C298.601 29.274 295.404 28.3035 295.978 30.0826C299.832 30.2444 304.506 30.2444 308.36 30.1635C309.016 30.1635 309.754 30.3252 310 29.9209C310 29.6783 310 29.4357 310 29.1931C309.426 29.1123 308.36 29.1931 307.704 28.7888ZM288.679 17.8718C289.827 13.8285 291.139 10.0277 292.369 5.98441C293.681 9.86596 294.911 13.9093 296.141 17.8718C293.599 17.8718 291.139 17.8718 288.679 17.8718ZM240.132 20.4595C239.721 16.6588 236.606 15.2032 233.161 14.6371C232.587 14.5563 231.767 14.718 231.521 14.3137C231.604 13.9093 232.013 14.1519 232.259 14.0711C234.227 13.7476 236.278 13.1007 237.344 11.8877C239.64 9.38077 239.147 4.12449 236.77 2.26456C234.473 0.485494 230.619 0.647226 226.355 0.647226C222.337 0.647226 217.826 0.647226 214.218 0.647226C214.054 0.647226 214.054 0.808959 214.136 0.970689C214.136 1.21329 214.136 1.37503 214.136 1.61762C215.12 1.94109 216.596 1.77935 217.088 2.50715C217.334 8.32954 217.171 15.6075 217.171 22.0769C217.171 23.4516 217.58 27.5757 216.925 28.3844C216.596 28.8697 215.366 28.9505 214.711 29.0314C214.218 29.1123 214.218 28.8697 214.054 29.3549C213.972 29.5975 214.136 29.7592 214.054 30.0018C214.382 30.4061 215.038 30.2444 215.531 30.2444C216.105 30.2444 216.678 30.2444 217.334 30.2444C225.125 30.2444 234.966 31.2956 238.492 27.0905C239.804 25.4732 240.378 22.8046 240.132 20.4595ZM224.797 2.10283C228.815 1.29416 231.357 3.63928 231.685 7.11654C231.931 9.29991 231.685 11.9686 230.537 13.0198C229.061 14.4754 227.011 13.8285 224.305 13.9902C224.305 11.079 224.305 7.76348 224.305 4.69055C224.387 3.80102 224.222 2.74975 224.797 2.10283ZM231.111 27.2523C230.701 27.8183 229.717 28.5461 229.143 28.7888C227.831 29.274 225.699 29.3549 224.797 28.3844C223.977 27.3331 224.387 24.1794 224.387 22.2386C224.387 19.8126 224.387 17.7909 224.387 15.6884C224.387 15.5266 224.387 15.3649 224.468 15.3649C227.667 15.2032 229.799 15.4458 231.029 16.6588C233.079 18.7613 232.833 24.9072 231.111 27.2523ZM113.68 29.3549C113.515 29.0314 112.695 29.1123 112.121 29.0314C111.629 28.9505 111.055 28.8697 110.809 28.4653C110.154 27.4949 110.563 23.9368 110.563 21.996C110.563 17.3866 110.563 13.2624 110.563 8.65301C110.563 6.79308 110.154 3.07322 110.892 2.34542C111.22 2.02196 111.875 2.02196 112.449 1.86022C113.106 1.69849 113.926 1.94109 113.68 0.970689C113.598 0.404627 112.695 0.647226 112.203 0.647226C108.76 0.56636 105.152 0.485494 101.625 0.647226C100.723 0.647226 100.476 0.323761 100.313 1.05155C100.149 1.94109 100.887 1.69849 101.543 1.77935C102.199 1.94109 102.773 1.86022 103.101 2.26456C103.675 4.20535 103.429 6.46962 103.429 8.65301C103.429 13.1815 103.429 17.7909 103.429 22.1577C103.429 24.422 103.757 26.6862 103.019 28.6271C98.2625 30.6487 97.7703 24.988 96.9502 22.0769C96.0484 18.7613 94.6545 16.8205 91.6204 15.6075C91.2099 15.4458 90.5542 15.2841 90.062 14.8797C94.2449 14.3945 97.3607 12.4538 97.6885 8.4104C97.8529 6.87394 97.5251 5.01402 96.7868 3.72015C94.9006 0.404627 90.2264 0.56636 84.4859 0.56636C81.5337 0.56636 77.1874 0.32376 74.0712 0.56636C73.1691 0.647226 73.0871 0.32376 72.9231 0.970689C72.7591 1.86022 73.4971 1.53676 74.2352 1.69849C74.8092 1.86022 75.5473 1.94109 75.7934 2.34542C76.4494 3.31582 76.0394 7.03568 76.0394 8.81474C76.0394 13.2624 76.0394 17.9526 76.0394 22.1577C76.0394 24.422 76.2854 26.6053 75.7114 28.4653C74.4812 28.7888 72.8411 29.3549 71.529 28.7888C70.791 28.4652 70.135 26.7671 69.7249 25.7158C66.7728 17.3866 63.9025 8.24867 61.4424 0.242894C59.8023 0.242894 58.1622 0.242894 56.44 0.242894C56.276 0.242894 56.276 0.485493 56.194 0.56636C53.9799 7.44001 51.3558 15.0415 48.8136 22.0769C48.1576 23.8559 47.0915 27.8183 45.6154 28.5461C44.4673 29.1123 41.8432 28.9505 41.2691 28.1418C40.6951 27.1714 41.0231 23.6942 41.0231 21.8343C41.0231 17.4674 41.0231 13.2624 41.0231 8.73387C41.0231 7.03568 40.6131 3.23495 41.2691 2.26456C41.5152 1.86022 42.2532 1.86022 42.8272 1.69849C43.4013 1.61762 44.4673 1.86022 44.1393 0.80896C44.0573 0.242895 43.1552 0.485493 42.6632 0.485493C39.219 0.404627 35.5287 0.32376 32.0026 0.485493C31.1005 0.485493 30.8545 0.162027 30.6905 0.889823C30.5265 1.77935 31.2645 1.53676 31.9205 1.61762C32.5766 1.77935 33.1506 1.69849 33.4786 2.10283C34.0527 4.04362 33.8067 6.30788 33.8067 8.57214C33.8067 13.1007 33.8067 17.71 33.8067 22.0769C33.8067 24.3411 34.1347 26.6053 33.3966 28.5461C32.8226 29.1931 30.1165 28.1418 30.7725 29.84C30.9365 30.2444 31.5925 30.0826 31.8385 30.0826C37.9889 30.2444 43.8113 30.0826 49.9617 30.0826C51.0278 30.0826 53.0779 30.5678 52.5038 29.1123C52.1758 28.7079 51.3558 28.8697 50.6997 28.7888C49.9617 28.7079 49.3877 28.7888 49.0596 28.3844C49.5517 24.988 50.6177 22.0769 51.6018 19.2465C54.4719 19.2465 57.2602 19.2465 60.1303 19.2465C60.4584 20.8639 61.1144 22.3195 61.6064 23.8559C62.0984 25.3923 62.6725 26.9288 62.7545 28.5461C61.9344 29.274 59.0643 28.1418 59.4743 30.0018C59.8023 30.4061 60.4583 30.2444 60.9504 30.2444C68.9049 30.4061 76.9414 30.487 84.9779 30.2444C86.044 30.2444 86.7 30.487 86.454 29.274C86.126 28.8697 85.47 29.0314 84.9779 28.9505C84.5679 28.8697 83.9938 28.8697 83.6658 28.5461C82.8457 27.6566 83.3378 24.5028 83.3378 22.5621C83.3378 20.0552 83.3378 17.8718 83.3378 16.2544C84.6499 16.497 85.634 15.8501 87.11 16.5779C89.0782 17.5483 89.0782 20.9447 89.5702 23.209C90.062 25.5541 90.8821 28.2226 92.6865 29.3549C94.9823 30.8104 99.0008 30.3252 103.183 30.3252C105.807 30.3252 108.432 30.3252 111.383 30.3252C112.286 30.3252 114.5 30.6487 113.68 29.3549ZM52.1758 17.8718C53.3239 13.8285 54.5539 9.94683 55.866 6.06528C57.1782 9.86596 58.2442 13.9902 59.6383 17.71C57.3421 17.9526 54.5539 17.7909 52.1758 17.8718ZM89.2422 13.1815C88.0121 14.9606 85.716 14.9606 83.2558 14.9606C83.2558 12.7772 83.2558 10.7556 83.2558 8.32954C83.2558 6.63135 82.7637 2.74975 83.8298 2.18369C84.4039 1.86022 86.618 1.94109 87.3561 2.26456C87.7661 2.42629 88.4221 2.91149 88.8321 3.39669C90.5542 5.49921 90.7186 10.9982 89.2422 13.1815ZM26.0981 4.20535C20.7679 -1.2127 10.1891 1.29416 0.102506 0.728094C-0.0615039 0.728094 0.0205013 0.889823 0.0205013 1.05155C0.0205013 1.29416 0.0205013 1.45589 0.0205013 1.69849C0.676543 1.94109 2.23464 1.86022 2.80868 2.58802C3.54672 3.55842 3.1367 7.11654 3.1367 8.89558C3.1367 13.5859 3.1367 17.71 3.1367 22.2386C3.1367 24.2602 3.38271 27.8992 2.80868 28.5461C2.48066 28.9505 1.90662 28.8697 1.33258 28.9505C0.430528 29.1123 0.102506 28.7079 0.0205013 29.5975C-0.0615039 30.4061 0.266517 30.1635 1.25058 30.2444C1.98863 30.3252 2.48066 30.2444 3.1367 30.2444C6.90894 30.2444 11.2552 30.4061 14.4534 30.2444C19.3737 30.0018 23.228 28.7079 25.6061 26.2819C30.1985 21.7534 30.9365 9.05731 26.0981 4.20535ZM18.1436 27.4949C17.7336 27.8183 16.8316 28.4653 16.0115 28.7079C14.2894 29.274 11.0912 29.274 10.4351 28.3844C9.77909 27.414 10.1891 23.5324 10.1891 21.9151C10.1891 15.7692 10.1891 11.1599 10.1891 5.25661C10.1891 4.28622 9.9431 3.15409 10.5171 2.26456C14.4534 1.21329 17.8156 2.99236 19.2917 5.33748C22.736 10.7556 22.2439 23.8559 18.1436 27.4949ZM142.218 6.38874C140.003 1.94109 134.837 -0.484904 127.702 0.0811608C122.782 0.485493 119.01 2.66889 117.206 5.90355C114.663 10.3512 114.336 18.923 116.632 24.0176C118.764 28.7888 123.93 31.2956 130.573 30.9722C138.281 30.6487 142.792 26.4436 143.775 19.3273C144.349 15.0415 144.186 10.2703 142.218 6.38874ZM131.065 29.5166C129.753 29.84 128.522 29.6783 127.785 29.4357C124.013 28.1418 123.028 21.5917 123.028 16.3353C123.028 13.3433 123.028 10.513 123.602 8.00607C124.176 5.09488 125.488 1.86022 128.605 1.37503C132.787 0.647226 134.673 4.12449 135.493 7.03568C136.231 9.7851 136.231 12.7772 136.231 15.6884C136.149 21.6725 135.329 28.4652 131.065 29.5166ZM241.28 0.728094C245.134 0.80896 249.234 0.647227 253.253 0.728094C253.662 0.728094 254.319 0.485493 254.728 0.970689C254.647 1.13243 254.811 1.37503 254.728 1.53676C254.565 2.02196 254.482 1.77935 254.073 1.86022C253.499 1.94109 252.351 2.02196 251.94 2.42629C251.202 3.15409 251.531 6.55048 251.531 8.65301C251.531 14.3945 251.531 19.4891 251.531 25.3923C251.531 26.5245 251.448 27.8992 251.777 28.4653C252.268 29.274 254.073 29.1123 254.811 29.3549C254.811 29.6783 254.811 29.9209 254.811 30.2444C254.4 30.6487 253.745 30.487 253.253 30.487C249.48 30.5678 244.97 30.487 241.28 30.4061C241.28 30.0826 241.28 29.84 241.28 29.5166C241.526 29.1931 242.264 29.274 242.838 29.1931C243.412 29.1123 243.904 29.1931 244.15 28.7888C244.806 27.9801 244.396 24.2602 244.396 22.4812C244.396 16.9014 244.396 11.8068 244.396 6.06528C244.396 4.85228 244.56 3.47755 244.314 2.91148C243.904 2.02196 242.182 2.10283 241.362 2.02196C241.362 1.77935 241.362 1.53676 241.362 1.29416C241.198 0.889823 241.198 0.728094 241.28 0.728094ZM200.031 0.728094C203.804 0.80896 207.904 0.647227 211.84 0.728094C212.25 0.728094 212.906 0.485493 213.316 0.970689C213.316 1.13243 213.316 1.29416 213.316 1.37503C213.152 2.10283 212.824 1.77935 212.086 1.94109C211.594 2.02196 210.938 2.02196 210.61 2.26456C209.872 2.91149 210.2 6.46961 210.2 8.57214C210.2 13.1007 210.2 17.3057 210.2 21.9151C210.2 23.775 209.708 27.1714 210.446 28.3844C210.938 29.1931 212.66 29.0314 213.316 29.274C213.316 29.5975 213.316 29.84 213.316 30.1635C212.906 30.5678 212.25 30.4061 211.758 30.4061C208.068 30.487 203.558 30.4061 199.949 30.3252C199.949 30.0018 199.949 29.7592 199.949 29.4357C200.195 28.9505 200.933 29.274 201.425 29.1931C201.918 29.1123 202.327 28.9505 202.655 28.8697C203.393 27.1714 203.066 24.8263 203.066 22.4003C203.066 17.9526 203.066 13.8285 203.066 8.89558C203.066 7.11654 203.558 3.39669 202.738 2.42629C202.164 1.77935 200.605 2.02196 199.949 1.86022C199.949 1.61762 199.949 1.37503 199.949 1.13243C199.867 0.889823 199.867 0.728094 200.031 0.728094Z" fill="#0059A2"/>
</svg>
