<svg width="310" height="42" viewBox="0 0 310 42" fill="none" xmlns="http://www.w3.org/2000/svg">
<path d="M1.51235 21.3244C1.51235 27.0741 5.38508 31.2941 11.25 31.2941C16.2151 31.2941 18.6272 28.6978 19.5754 26.4265C19.7153 26.3834 20.472 26.611 20.472 27.3084C20.472 27.7209 20.0475 28.7877 18.8635 29.9486C17.4983 31.2941 14.935 32.639 11.25 32.639C4.48552 32.639 0 27.7683 0 21.3244C0 14.9745 4.62917 10.0135 10.9699 10.0135C16.9747 10.0135 21.0835 14.2798 21.0835 20.352V20.5402C21.0835 20.9993 20.8474 21.1404 20.3276 21.1404H1.51235V21.3244ZM19.5233 19.8921C19.3834 14.8369 15.9307 11.3111 10.9662 11.3111C6.00108 11.3111 2.217 14.9777 1.60473 19.8921H19.5233Z" fill="#006AAB"/>
<path d="M24.0164 31.5684V1.06671C24.0164 1.01985 24.2525 0.885563 24.5401 0.885563C25.1083 0.885563 25.532 1.20754 25.532 2.45904V31.5721C25.532 32.1291 25.296 32.3205 24.8722 32.3205H24.7283C24.3003 32.3173 24.0164 32.1254 24.0164 31.5684Z" fill="#006AAB"/>
<path d="M28.4608 17.2457C28.4608 8.11141 34.8902 1.62435 44.2553 1.62435C52.3444 1.62435 56.0257 5.9817 56.0257 8.3939C56.0257 11.3589 52.1009 12.0968 52.0093 11.8691C50.4967 9.27285 47.6124 7.78997 44.4919 7.78997C39.3831 7.78997 35.6466 11.594 35.6466 17.1988C35.6466 22.8069 39.4278 26.6546 44.5838 26.6546C48.1323 26.6546 51.0128 24.9411 52.1971 22.1127C52.2894 21.885 56.3616 22.6224 56.3616 25.5879C56.3616 28.137 52.57 32.8197 44.1523 32.8197C34.8902 32.8239 28.4608 26.4232 28.4608 17.2457Z" fill="#006AAB"/>
<path d="M56.5972 20.9523C56.5972 13.9551 61.6541 9.0844 68.9831 9.0844C76.2648 9.0844 81.2284 13.9556 81.2284 20.9955C81.2284 28.0439 76.2648 32.8203 68.887 32.8203C61.562 32.824 56.5972 28.047 56.5972 20.9523ZM75.3688 20.9992C75.3688 17.0617 72.6766 14.1865 68.9401 14.1865C65.2035 14.1865 62.4629 17.0143 62.4629 20.956C62.4629 24.8506 65.2073 27.6781 68.9401 27.6781C72.6283 27.6781 75.3688 24.8506 75.3688 20.9992Z" fill="#006AAB"/>
<path d="M94.9468 9.0844C97.6466 9.0844 99.2472 10.5702 99.2472 12.8853C99.2472 15.4846 97.2148 16.4147 97.1188 16.3199C96.4107 15.6692 95.3744 15.21 94.0943 15.21C90.8267 15.21 89.4098 17.9868 89.4098 22.5329V29.3024C89.4098 31.668 88.1788 32.4085 86.4814 32.4085H85.7692C83.973 32.4085 82.7447 31.7141 82.7447 29.3024V10.1079C82.7447 9.92339 83.9253 9.37055 85.2455 9.37055C87.0009 9.37055 88.8938 10.1585 89.3179 13.214C90.2623 10.6176 92.1579 9.0844 94.9468 9.0844Z" fill="#006AAB"/>
<path d="M112.209 9.0844C114.901 9.0844 116.506 10.5702 116.506 12.8853C116.506 15.4846 114.474 16.4147 114.381 16.3199C113.677 15.6692 112.637 15.21 111.357 15.21C108.093 15.21 106.676 17.9868 106.676 22.5329V29.3024C106.676 31.668 105.445 32.4085 103.74 32.4085H103.036C101.236 32.4085 100.007 31.7141 100.007 29.3024V10.1079C100.007 9.92339 101.188 9.37055 102.516 9.37055C104.268 9.37055 106.156 10.1585 106.587 13.214C107.525 10.6176 109.413 9.0844 112.209 9.0844Z" fill="#006AAB"/>
<path d="M128.66 28.047C132.165 28.047 134.104 26.5203 135.189 24.7095C135.237 24.6155 138.409 25.0346 138.409 27.6781C138.409 30.0869 134.86 32.8239 128.431 32.8239C120.91 32.8239 115.945 28.2352 115.945 21.0971C115.945 14.1865 121.006 9.0844 128 9.0844C134.809 9.0844 139.494 13.7674 139.494 20.3953V20.8626C139.442 22.0157 139.114 22.6674 137.885 22.6674H121.994C122.471 26.0544 125.068 28.047 128.66 28.047ZM133.296 18.8695C133.153 15.7162 131.12 13.6294 127.908 13.6294C124.783 13.6294 122.418 15.8102 121.991 18.8695H133.296Z" fill="#006AAB"/>
<path d="M140.294 20.9523C140.294 13.9551 145.351 9.0844 152.68 9.0844C159.966 9.0844 164.934 13.9556 164.934 20.9955C164.934 28.0439 159.966 32.8203 152.584 32.8203C145.259 32.824 140.294 28.047 140.294 20.9523ZM159.069 20.9992C159.069 17.0617 156.372 14.1865 152.64 14.1865C148.904 14.1865 146.16 17.0143 146.16 20.956C146.16 24.8506 148.904 27.6781 152.64 27.6781C156.324 27.6781 159.069 24.8506 159.069 20.9992Z" fill="#006AAB"/>
<path d="M180.157 32.7291C171.315 32.7291 165.637 26.2379 165.637 17.2449C165.637 8.1106 172.163 1.62352 181.809 1.62352C189.331 1.62352 193.638 5.05447 193.638 8.15741C193.638 10.8484 190.23 11.6363 190.042 11.4013C188.29 8.85611 185.217 7.46007 182.144 7.46007C176.7 7.46007 172.734 11.496 172.734 17.4729C172.734 23.41 176.235 27.4891 181.717 27.4891C186.068 27.4891 189.093 25.168 189.525 21.7434V20.9949H184.09C181.813 20.9949 180.728 20.3947 180.728 18.5433V18.2613C180.728 16.312 181.813 15.8059 184.09 15.8059H192.739C194.915 15.8059 195.671 16.9158 195.626 19.0498V31.753C195.626 31.9375 194.586 32.3998 193.306 32.3998C191.654 32.3998 189.946 31.6582 189.666 28.5487C187.866 31.1054 184.605 32.7291 180.157 32.7291Z" fill="#006AAB"/>
<path d="M207.72 13.9983C204.507 13.9983 202.855 15.7155 202.003 17.4771C202.003 17.5706 197.698 17.7122 197.698 14.6962C197.698 11.8691 201.103 9.0844 208.153 9.0844C215.437 9.0844 219.03 12.3282 219.03 18.4072V31.8009C219.03 32.1229 217.802 32.5428 216.525 32.5428C214.445 32.5428 212.976 31.4324 212.6 28.9265C210.941 31.2918 208.056 32.731 204.608 32.731C199.787 32.731 196.854 30.0406 196.854 26.1929C196.854 20.9997 201.582 18.6386 211.697 18.5012H212.456C212.452 15.5751 210.8 13.9983 207.72 13.9983ZM212.452 23.364V22.0695L211.225 22.1128C205.972 22.2505 203.235 23.2693 203.235 25.7288C203.235 27.3994 204.6 28.4624 206.82 28.4624C210.132 28.4666 212.452 26.329 212.452 23.364Z" fill="#006AAB"/>
<path d="M221.723 29.2978V0.737654C221.723 0.509656 222.902 0 224.231 0C226.215 0 228.392 1.01643 228.392 5.23584V29.2973C228.392 31.6627 227.163 32.4032 225.459 32.4032H224.748C222.999 32.4037 221.723 31.71 221.723 29.2978Z" fill="#006AAB"/>
<path d="M231.464 29.2978V0.737654C231.464 0.509656 232.644 0 233.965 0C235.953 0 238.129 1.01643 238.129 5.23584V29.2973C238.129 31.6627 236.901 32.4032 235.2 32.4032H234.495C232.736 32.4037 231.464 31.71 231.464 29.2978Z" fill="#006AAB"/>
<path d="M252.504 28.047C256.003 28.047 257.943 26.5203 259.031 24.7095C259.076 24.6155 262.245 25.0346 262.245 27.6781C262.245 30.0869 258.704 32.8239 252.267 32.8239C244.753 32.8239 239.782 28.2352 239.782 21.0971C239.782 14.1865 244.845 9.0844 251.843 9.0844C258.653 9.0844 263.33 13.7674 263.33 20.3953V20.8626C263.286 22.0157 262.953 22.6674 261.724 22.6674H245.834C246.31 26.0544 248.911 28.047 252.504 28.047ZM257.136 18.8695C256.993 15.7162 254.96 13.6294 251.744 13.6294C248.623 13.6294 246.258 15.8102 245.834 18.8695H257.136Z" fill="#006AAB"/>
<path d="M280.067 8.25162C280.964 6.62788 281.918 5.9808 283.384 5.9808C285.748 5.9808 286.784 8.62434 286.645 8.76125C286.645 8.76125 282.672 12.5153 282.624 12.5153C283.949 13.8602 284.704 15.6211 284.704 17.5663C284.704 22.3901 280.588 25.6807 274.159 25.6807H273.823C273.779 25.8216 273.731 26.01 273.731 26.1477C273.731 27.4021 275.956 27.5358 279.691 28.4654C282.957 29.3473 286.361 31.0616 286.361 34.8619C286.361 39.2234 281.772 42 273.879 42C265.649 42 261.957 40.0077 261.957 35.6935C261.957 32.5409 264.983 30.4103 269.191 29.8541C268.63 29.34 268.342 28.6499 268.342 27.7636C268.342 26.6969 269.003 25.7281 269.902 25.1242C265.979 24.0101 263.565 21.2292 263.565 17.6568C263.565 12.793 267.966 9.12984 274.066 9.12984C275.863 9.12984 277.564 9.45547 279.075 10.1031L280.067 8.25162ZM268.298 35.3297C268.298 36.9024 270.186 37.8785 274.015 37.8785C277.844 37.8785 279.972 36.855 279.972 35.0938C279.972 33.2861 277.092 32.8699 274.066 32.2194C270.759 32.4503 268.298 33.5175 268.298 35.3297ZM278.511 17.5663C278.511 15.0677 276.715 13.3505 274.069 13.3505C271.513 13.3505 269.718 15.0211 269.718 17.5663C269.718 20.1195 271.562 21.8336 274.115 21.8336C276.712 21.838 278.511 20.1195 278.511 17.5663Z" fill="#006AAB"/>
<path d="M285.364 20.9523C285.364 13.9551 290.429 9.0844 297.759 9.0844C305.039 9.0844 310 13.9556 310 20.9955C310 28.0439 305.039 32.8203 297.658 32.8203C290.332 32.824 285.364 28.047 285.364 20.9523ZM304.139 20.9992C304.139 17.0617 301.442 14.1865 297.71 14.1865C293.974 14.1865 291.233 17.0143 291.233 20.956C291.233 24.8506 293.978 27.6781 297.71 27.6781C301.395 27.6781 304.139 24.8506 304.139 20.9992Z" fill="#006AAB"/>
</svg>
