<svg width="352" height="84" viewBox="0 0 352 84" fill="none" xmlns="http://www.w3.org/2000/svg">
<g clip-path="url(#clip0_152_34)">
<path d="M145.968 33.74V2.79999H153.511V33.74H145.968ZM156.584 21.14C160.635 20.58 162.59 16.24 162.59 11.76C162.59 6.29999 159.937 3.21999 156.584 2.93999V2.79999H159.517C166.921 2.79999 170.413 6.43999 170.413 11.76C170.413 17.64 165.244 21 157.702 21.14H156.584Z" fill="#0034DD"/>
<path d="M293.396 53.0054H300.66L293.396 60.2854V53.0054Z" fill="#0034DD"/>
<path d="M201.764 53.1454H194.501L201.764 60.4254V53.1454Z" fill="#0034DD"/>
<path d="M180.533 45.5854H173.269L180.533 52.8654V45.5854Z" fill="#0034DD"/>
<path d="M180.952 76.3854H173.688L180.952 69.1054V76.3854Z" fill="#0034DD"/>
<path d="M171.314 60.5654L176.482 57.7654V63.3654L171.314 60.5654Z" fill="#0034DD"/>
<path d="M185.561 77.2254H192.825L185.561 69.9454V77.2254Z" fill="#0034DD"/>
<path d="M322.171 10.3054H314.907L322.171 17.5854V10.3054Z" fill="#0034DD"/>
<path d="M214.615 17.3054H207.352L214.615 10.0254V17.3054Z" fill="#0034DD"/>
<path d="M38.8317 1.53998C17.4603 1.53998 0 18.9 0 40.46C0 62.02 17.4603 79.38 38.8317 79.38C60.3429 79.38 77.6635 61.88 77.6635 40.46C77.8032 18.9 60.3429 1.53998 38.8317 1.53998ZM60.3429 55.16H31.5683C29.1937 59.36 24.7238 61.88 19.9746 61.88V48.72H60.3429V55.16ZM60.3429 40.88H19.9746V34.44H60.3429V40.88ZM60.3429 26.18H19.9746V19.74H60.3429V26.18Z" fill="#0034DD"/>
<path d="M198.768 33.74V12.74L205.752 10.08V33.74H198.768Z" fill="#0034DD"/>
<path d="M218.883 33.74V12.46L225.867 10.08V33.74H218.883V33.74ZM218.324 4.06C218.324 1.82 220.14 0 222.514 0C224.749 0 226.565 1.82 226.565 4.06C226.565 6.3 224.749 8.12 222.514 8.12C220.14 8.26 218.324 6.44 218.324 4.06Z" fill="#0034DD"/>
<path d="M290.819 33.74V12.46L297.803 10.08V33.74H290.819V33.74ZM290.26 4.06C290.26 1.82 292.076 0 294.451 0C296.686 0 298.502 1.82 298.502 4.06C298.502 6.3 296.686 8.12 294.451 8.12C292.076 8.26 290.26 6.44 290.26 4.06Z" fill="#0034DD"/>
<path d="M241.93 34.58C234.946 34.16 230.197 29.26 230.197 22.54C230.197 15.82 234.946 10.92 241.93 10.5V10.64C239.276 11.34 237.879 14.98 237.879 22.54C237.879 30.1 239.276 33.74 241.93 34.58ZM240.394 8.4L243.746 0H251.987V0.14L240.394 8.4ZM244.165 34.44C246.819 33.74 248.216 30.1 248.216 22.54C248.216 14.84 246.819 11.2 244.165 10.64V10.36C251.149 10.78 255.898 15.68 255.898 22.4C255.898 29.26 251.149 34.02 244.165 34.44Z" fill="#0034DD"/>
<path d="M338.032 34.58C331.048 34.16 326.298 29.26 326.298 22.54C326.298 15.82 331.048 10.92 338.032 10.5V10.64C335.378 11.34 333.981 14.98 333.981 22.54C334.121 30.1 335.378 33.74 338.032 34.58ZM340.267 34.44C342.921 33.74 344.317 30.1 344.317 22.54C344.317 14.84 342.921 11.2 340.267 10.64V10.36C347.251 10.78 352 15.68 352 22.4C352 29.26 347.251 34.02 340.267 34.44Z" fill="#0034DD"/>
<path d="M259.111 22.96C259.111 14.56 263.86 10.22 269.727 10.22C272.102 10.22 273.638 10.78 274.476 11.48V11.62C273.638 11.06 272.66 10.78 271.683 10.78C268.19 10.78 266.654 15.4 266.654 21.84C266.654 27.3 268.051 31.92 272.102 31.92C273.359 32.06 274.476 31.5 275.314 30.8C274.616 31.64 272.381 34.3 268.19 34.3C262.184 34.3 259.111 29.54 259.111 22.96ZM276.571 33.74V2.52001L283.416 0.140015V33.88L276.571 33.74Z" fill="#0034DD"/>
<path d="M302.832 22.82C302.832 14.98 308.559 11.34 314.006 10.22V10.36C311.352 11.2 309.537 13.86 309.537 19.18C309.537 26.18 314.006 30.1 318.197 30.1C320.292 30.24 322.248 29.4 323.644 27.86H323.784C322.667 30.38 320.152 34.16 314.565 34.16C307.581 34.44 302.832 29.4 302.832 22.82Z" fill="#0034DD"/>
<path d="M97.4984 65.66C97.4984 57.26 102.248 52.92 108.114 52.92C110.489 52.92 112.025 53.48 112.863 54.18V54.32C112.025 53.76 111.048 53.48 110.07 53.48C106.578 53.48 105.041 58.1 105.041 64.54C105.041 70 106.438 74.62 110.489 74.62C111.746 74.76 112.863 74.2 113.702 73.5V73.64C113.003 74.48 110.768 77.14 106.578 77.14C100.432 77.14 97.4984 72.24 97.4984 65.66ZM114.819 76.44V44.94L121.803 42.56V76.58L114.819 76.44Z" fill="#0034DD"/>
<path d="M127.111 65.52C127.111 57.68 132.559 54.04 137.867 52.92V53.06C134.933 54.32 133.816 58.24 133.816 62.44C133.816 68.6 137.587 72.94 142.756 72.94C145.549 72.94 147.365 71.96 148.762 70H148.902C147.505 73.64 144.432 77.14 138.844 77.14C131.721 77.14 127.111 72.1 127.111 65.52Z" fill="#0034DD"/>
<path d="M162.311 76.44V45.5H169.854V76.44H162.311Z" fill="#0034DD"/>
<path d="M208.686 84V54.88L215.67 52.5V84H208.686ZM217.905 75.88C218.743 76.3 219.721 76.58 220.698 76.58C224.19 76.58 225.727 71.96 225.727 65.52C225.727 60.06 224.33 55.44 220.279 55.44C219.022 55.3 217.905 55.86 217.067 56.56V56.42C217.765 55.58 220 52.92 224.19 52.92C230.057 52.92 233.13 57.82 233.13 64.4C233.13 72.8 228.381 77.14 222.514 77.14C220.279 77.14 218.603 76.58 217.905 75.88Z" fill="#0034DD"/>
<path d="M264.14 76.44V55.02L271.124 52.64V76.44H264.14ZM270.565 47.18C269.029 47.18 268.61 48.3 268.47 50.12H268.33C268.33 49.7 268.33 49.14 268.33 48.86C268.33 45.22 269.587 43.4 272.66 43.4C275.454 43.4 279.365 46.34 281.6 46.34C283.137 46.34 283.416 45.36 283.835 43.68H283.975C283.975 44.1 283.975 44.52 283.975 44.94C283.975 48.72 282.578 50.4 279.924 50.4C276.432 50.4 273.359 47.18 270.565 47.18ZM279.644 76.44V60.34C279.644 57.26 279.225 55.3 276.571 55.3C275.175 55.3 273.778 55.72 272.66 56.56V56.42C273.359 55.58 276.432 52.92 280.762 52.92C285.232 52.92 286.768 55.72 286.768 59.92V76.44H279.644Z" fill="#0034DD"/>
<path d="M291.797 71.4C291.797 65.66 298.083 63.56 304.648 63.28V63.42C301.714 63.98 298.502 66.08 298.502 70C298.502 72.66 299.898 74.2 301.714 74.2C302.971 74.2 304.089 73.64 304.787 72.66H304.927C303.53 75.04 301.435 77.14 298.222 77.14C294.171 77.14 291.797 75.18 291.797 71.4ZM306.184 76.44L306.324 59.64C306.324 54.6 305.765 53.06 303.81 53.06V52.92C310.654 52.92 313.308 55.58 313.308 61.04V76.3H306.184V76.44Z" fill="#0034DD"/>
<path d="M238.857 53.06H246.121L238.857 60.34V53.06Z" fill="#0034DD"/>
<path d="M236.203 71.54C236.203 65.8 242.489 63.7 249.054 63.42V63.56C246.121 64.12 242.908 66.22 242.908 70.14C242.908 72.8 244.305 74.34 246.121 74.34C247.378 74.34 248.495 73.78 249.194 72.8H249.333C247.937 75.18 245.841 77.28 242.629 77.28C238.717 77.28 236.203 75.32 236.203 71.54ZM250.59 76.44L250.73 59.78C250.73 54.74 250.171 53.2 248.216 53.2V53.06C255.06 53.06 257.714 55.72 257.714 61.18V76.44H250.59Z" fill="#0034DD"/>
<path d="M149.308 62.1922C149.029 57.4322 145.537 53.6522 140.787 53.0922V62.1922H149.308Z" fill="#0034DD"/>
<path d="M171.793 22.8872C171.793 15.0472 177.24 11.4072 182.548 10.2872V10.4272C179.615 11.6872 178.498 15.6072 178.498 19.8072C178.498 25.9672 182.269 30.3072 187.437 30.3072C190.231 30.3072 192.047 29.3272 193.444 27.3672H193.583C192.186 31.0072 189.113 34.5072 183.526 34.5072C176.402 34.5072 171.793 29.4672 171.793 22.8872Z" fill="#0034DD"/>
<path d="M193.96 19.4782C193.681 14.7182 190.189 10.9382 185.44 10.3782V19.4782H193.96Z" fill="#0034DD"/>
<path d="M97.2191 22.96C97.2191 15.12 102.667 11.48 107.975 10.36V10.5C105.041 11.76 103.924 15.68 103.924 19.88C103.924 26.04 107.695 30.38 112.864 30.38C115.657 30.38 117.473 29.4 118.87 27.44H119.01C117.613 31.08 114.54 34.58 108.952 34.58C101.829 34.44 97.2191 29.4 97.2191 22.96Z" fill="#0034DD"/>
<path d="M119.334 19.5272C119.054 14.7672 115.562 10.9872 110.813 10.4272V19.5272H119.334Z" fill="#0034DD"/>
<path d="M132 31.08V33.74H124.876V28.56V2.52001L131.86 0.140015V31.08H132Z" fill="#0034DD"/>
<path d="M196.328 62.02C193.953 60.76 190.042 59.36 190.042 56C190.042 54.04 191.579 53.34 193.395 53.2V53.06C188.925 53.34 185.712 55.58 185.712 59.5C185.712 63.7 189.344 65.94 192.557 67.62C195.35 69.02 198.982 70.56 198.982 73.64C198.982 75.6 197.445 77 195.49 77V77.14C199.261 77.14 203.871 75.32 203.871 70.28C204.011 66.22 199.82 63.98 196.328 62.02Z" fill="#0034DD"/>
</g>
<defs>
<clipPath id="clip0_152_34">
<rect width="352" height="84" fill="white"/>
</clipPath>
</defs>
</svg>
