<svg width="350" height="70" viewBox="0 0 350 70" fill="none" xmlns="http://www.w3.org/2000/svg">
<path d="M94.1409 49.1199L86.267 38.9963C89.4685 38.3041 91.8047 37.1792 93.3622 35.6218C94.9197 34.0643 95.6984 32.1607 95.6984 29.9975C95.6984 27.9209 95.0062 26.1904 93.7083 24.7194C92.3239 23.2485 90.7664 22.2101 88.7763 21.691C86.8727 21.1718 83.8443 20.9122 79.7775 20.9122H65.8467V21.864H67.3177C68.7886 21.864 69.8269 22.2101 70.6057 22.9889C71.1248 23.508 71.3844 24.8925 71.3844 27.1422V49.9852C71.3844 51.9753 71.2114 53.2732 70.7787 53.7923C70.4326 54.3115 70 54.6576 69.3943 54.9172C68.7886 54.7441 68.2695 54.4845 67.8368 54.0519C66.9716 53.3597 66.0198 51.8022 64.8949 49.466L51.5698 20.047H50.618L37.1199 49.1199C35.9951 51.7157 34.8702 53.3597 33.9184 54.225C33.4858 54.6576 32.4475 55.0037 30.8035 55.2633V56.2151H42.8307V55.2633C41.0136 55.1768 39.8022 54.9172 39.2831 54.4845C38.7639 54.0519 38.4178 53.6193 38.4178 53.1001C38.4178 52.4079 38.7639 51.3696 39.3696 49.9852L41.9654 44.4475H56.7614L59.0977 49.5525C59.8764 51.1965 60.2225 52.4079 60.2225 53.1867C60.2225 53.7923 59.9629 54.225 59.4438 54.6576C58.9246 55.0902 57.8863 55.2633 56.3288 55.3498V56.3016H65.8467H71.3844H82.2002V55.3498H80.7293C79.3449 55.3498 78.22 55.0037 77.5278 54.225C77.0087 53.7058 76.7491 52.3214 76.7491 50.0717V39.6885C77.0087 39.6885 77.3548 39.6885 77.6143 39.6885C77.8739 39.6885 78.1335 39.6885 78.3931 39.6885C78.9988 39.6885 79.7775 39.6885 80.7293 39.602L93.6218 56.1286H103.832V55.1768C101.755 55.0037 100.025 54.4845 98.7268 53.7058C97.4289 53.0136 95.958 51.4561 94.1409 49.1199ZM42.9172 42.4574L49.5797 28.1805L56.0692 42.4574H42.9172ZM78.3066 38.0445C78.1335 38.0445 77.9605 38.0445 77.7009 38.0445C77.4413 38.0445 77.0952 38.0445 76.7491 38.0445V23.335C78.5661 22.9889 80.1236 22.8158 81.1619 22.8158C83.5847 22.8158 85.5748 23.508 87.1323 24.8925C88.6032 26.2769 89.382 28.0939 89.382 30.2571C89.382 32.5068 88.4302 34.4104 86.6131 35.7948C84.796 37.1792 81.9407 38.0445 78.3066 38.0445ZM117.244 20.047C112.225 20.047 107.985 21.6045 104.351 24.6329C100.198 28.1805 98.1211 32.7664 98.1211 38.3906C98.1211 43.8418 99.9382 48.3412 103.486 51.8022C107.033 55.2633 111.446 56.9938 116.724 56.9938C121.916 56.9938 126.329 55.2633 130.049 51.7157C133.684 48.1681 135.501 43.6687 135.501 38.3041C135.501 33.1125 133.684 28.6996 130.049 25.2386C126.415 21.7775 122.176 20.047 117.244 20.047ZM125.55 51.2831C123.214 53.8789 120.272 55.1768 116.638 55.1768C113.263 55.1768 110.581 53.9654 108.504 51.6292C105.822 48.5142 104.524 44.1014 104.524 38.3041C104.524 32.6799 105.822 28.3535 108.418 25.4981C110.494 23.1619 113.263 21.9506 116.638 21.9506C120.272 21.9506 123.127 23.1619 125.204 25.4981C127.8 28.4401 129.098 32.9394 129.098 38.9963C129.098 44.6205 127.886 48.6873 125.55 51.2831ZM31.4091 41.0729C31.4091 39.3424 31.1496 38.0445 30.6304 37.2658C30.1113 36.487 29.419 35.8813 28.5538 35.4487C27.6885 35.0161 26.3041 34.843 24.5735 34.843H14.9691V48.8603C14.9691 51.11 15.1422 52.581 15.4883 53.3597C15.7478 53.8789 16.267 54.398 17.1323 54.7441C18.2571 55.2633 19.4685 55.5229 20.6799 55.5229H22.5834V56.6477H0V55.4363H1.81706C3.98022 55.4363 5.5377 54.9172 6.57602 53.7923C7.18171 53.1867 7.52781 51.4561 7.52781 48.7738V20.047C7.52781 17.7973 7.35476 16.3263 7.00865 15.5476C6.74907 15.0284 6.22991 14.5093 5.45117 14.1632C4.32633 13.644 3.11496 13.3844 1.81706 13.3844H0V12.1731H39.11L39.6292 21.9506H38.2447C37.5525 19.8739 36.7738 18.3164 35.9085 17.3646C35.0433 16.4129 33.9184 15.7206 32.6205 15.288C31.3226 14.8554 29.3325 14.5958 26.5637 14.5958H14.9691V32.0742H24.5735C26.7367 32.0742 28.3807 31.6415 29.419 30.8628C30.4574 30.0841 31.1496 28.4401 31.4091 26.0173H32.8801V41.0729H31.4091ZM259.58 19.6143L242.794 57.513H241.496L223.498 19.1817C222.546 17.1916 221.941 15.9802 221.508 15.5476C220.902 14.8554 220.21 14.3362 219.345 13.9901C218.48 13.644 217.355 13.3844 215.884 13.2114V12H235.525V13.2114C233.276 13.3844 231.891 13.7305 231.199 14.2497C230.507 14.7689 230.247 15.3745 230.247 16.1533C230.247 17.2781 230.766 18.9221 231.891 21.2583L244.091 47.3894L255.426 21.6045C256.551 19.0952 257.07 17.2781 257.07 16.3263C257.07 15.7206 256.724 15.115 256.032 14.5093C255.34 13.9036 254.215 13.5575 252.571 13.2979C252.485 13.2979 252.225 13.2114 251.965 13.2114V12H266.761V13.2114C265.031 13.471 263.733 13.9901 262.868 14.6823C261.656 15.8072 260.532 17.4512 259.58 19.6143ZM276.625 55.6959H278.01V56.6477H261.916V55.6959H263.214C264.771 55.6959 265.896 55.2633 266.588 54.398C267.021 53.8789 267.281 52.4944 267.281 50.4178V27.5748C267.281 25.7577 267.194 24.6329 266.934 24.0272C266.761 23.5946 266.415 23.2485 265.81 22.9023C265.031 22.4697 264.166 22.2967 263.3 22.2967H262.002V21.3449H278.096V22.2967H276.712C275.155 22.2967 274.03 22.7293 273.337 23.5946C272.905 24.1137 272.645 25.4981 272.645 27.5748V50.4178C272.645 52.2349 272.732 53.3597 272.991 53.9654C273.164 54.398 273.597 54.7441 274.116 55.0902C274.895 55.4363 275.76 55.6959 276.625 55.6959ZM344.376 25.6712C340.828 22.2101 336.588 20.4796 331.743 20.4796C326.811 20.4796 322.658 22.0371 319.11 25.0655C315.389 28.267 313.399 32.4203 313.14 37.3523H300.334V38.3041C301.805 38.3041 302.93 38.4771 303.535 38.7367C304.141 38.9963 304.574 39.4289 304.833 39.9481C305.093 40.4672 305.266 41.6786 305.266 43.4091V53.6193C304.054 54.225 302.843 54.7441 301.545 55.0902C300.247 55.4363 298.949 55.6094 297.565 55.6094C295.229 55.6094 292.892 55.0037 290.643 53.7058C288.393 52.4079 286.576 50.3313 285.192 47.5624C283.807 44.7936 283.115 41.6786 283.115 38.3041C283.115 34.1508 284.153 30.6032 286.23 27.5748C288.739 24.0272 292.373 22.2101 297.132 22.2101C300.593 22.2101 303.535 23.2485 305.698 25.2386C307.256 26.623 308.467 28.6996 309.506 31.555H310.457L309.506 20.3931H308.467C308.381 21.2583 308.294 21.864 308.035 22.2101C307.775 22.5562 307.515 22.6428 307.169 22.6428C306.823 22.6428 306.131 22.4697 305.093 22.1236C303.016 21.4314 301.459 20.9122 300.334 20.7392C299.209 20.5661 297.998 20.3931 296.613 20.3931C292.892 20.3931 289.604 21.1718 286.922 22.6428C283.634 24.4598 281.038 27.0556 279.221 30.4302C277.664 33.2855 276.885 36.2274 276.885 39.3424C276.885 43.6687 278.269 47.3894 281.125 50.6774C284.845 55.0902 290.383 57.2534 297.651 57.2534C300.161 57.2534 302.497 56.9938 304.574 56.4747C306.65 55.9555 308.727 55.1768 310.89 54.1384V43.4957C310.89 41.5921 311.063 40.2942 311.409 39.6885C311.755 38.9963 312.447 38.6502 313.313 38.4771C313.313 38.5637 313.313 38.7367 313.313 38.8232C313.313 44.2744 315.043 48.7738 318.591 52.2349C322.138 55.6959 326.465 57.4265 331.57 57.4265C336.675 57.4265 341.001 55.6959 344.635 52.1483C348.269 48.6007 350 44.1014 350 38.7367C349.74 33.5451 348.01 29.2188 344.376 25.6712ZM339.963 51.7157C337.627 54.3115 334.771 55.6094 331.224 55.6094C327.936 55.6094 325.253 54.398 323.263 52.0618C320.668 48.9468 319.37 44.534 319.37 38.7367C319.37 33.1125 320.668 28.7862 323.177 25.9308C325.167 23.5946 327.936 22.3832 331.224 22.3832C334.771 22.3832 337.627 23.5946 339.617 25.9308C342.126 28.8727 343.424 33.3721 343.424 39.4289C343.424 45.0532 342.299 49.1199 339.963 51.7157ZM178.937 29.0457C177.12 26.2769 174.697 24.2868 171.755 23.0754C168.813 21.864 164.4 21.2583 158.69 21.2583H143.115V22.2101H144.586C146.057 22.2101 147.095 22.5562 147.874 23.335C148.393 23.8541 148.653 25.2386 148.653 27.4883V50.3313C148.653 52.3214 148.48 53.6193 148.047 54.225C147.355 55.1768 146.23 55.6959 144.586 55.6959H143.115V56.6477H160.161C167.602 56.6477 173.053 54.8307 176.687 51.11C179.889 47.822 181.533 43.6687 181.533 38.7367C181.619 35.1026 180.667 31.9011 178.937 29.0457ZM170.89 50.5909C168.035 53.4462 164.4 54.8307 160.074 54.8307C158.43 54.8307 156.44 54.5711 154.104 54.1384V24.0272C156.267 23.508 158.171 23.2485 159.901 23.2485C164.401 23.2485 168.121 24.6329 170.977 27.4883C173.832 30.3436 175.303 34.1508 175.303 38.9963C175.216 43.9283 173.745 47.7355 170.89 50.5909ZM209.394 47.7355H210.519L207.231 56.6477H177.812V55.6959H179.197C180.062 55.6959 180.927 55.5229 181.792 55.0902C182.398 54.8307 182.831 54.398 183.004 53.8789C183.177 53.3597 183.35 52.1483 183.35 50.5043V27.4017C183.35 25.152 183.09 23.7676 182.658 23.2485C181.965 22.5562 180.841 22.2101 179.283 22.2101H177.899V21.2583H207.318L207.75 28.9592H206.625C206.193 27.1422 205.76 25.8443 205.328 25.152C204.808 24.4598 204.116 23.9407 203.164 23.5946C202.386 23.335 201.088 23.1619 199.184 23.1619H188.628V37.0927H197.021C199.184 37.0927 200.655 36.7466 201.347 36.1409C202.299 35.3622 202.905 33.8912 202.991 31.9011H204.03V44.1879H202.991C202.732 42.4574 202.472 41.3325 202.213 40.8999C201.867 40.2942 201.347 39.775 200.569 39.4289C199.79 39.0828 198.578 38.9098 197.021 38.9098H188.628V50.5909C188.628 52.1483 188.714 53.1001 188.888 53.4462C189.061 53.7923 189.32 54.0519 189.666 54.225C190.012 54.398 190.791 54.4845 191.829 54.4845H198.319C200.482 54.4845 202.04 54.3115 202.991 54.0519C203.943 53.7923 204.895 53.1866 205.847 52.4079C206.972 51.5426 208.183 49.9852 209.394 47.7355Z" fill="#010101"/>
</svg>
