<svg width="234" height="55" viewBox="0 0 234 55" fill="none" xmlns="http://www.w3.org/2000/svg">
<path d="M0 2.62995H10.2632V30.0729H22.807V37.0479H0V2.62995ZM42.079 25.3847C42.079 27.7859 41.6228 31.9024 37.0614 31.9024C35.0088 31.9024 33.6404 30.9876 33.6404 28.7007C33.6404 25.7277 36.4912 24.4699 40.8246 24.4699H41.9649C42.0789 24.5843 42.079 25.3847 42.079 25.3847ZM50.7456 20.2391C50.7456 14.9793 48.807 10.7485 38.7719 10.7485C33.9825 10.7485 30.4474 11.6632 28.1667 12.4637L28.5088 18.867C30.5614 17.7235 33.6404 16.4657 36.7193 16.4657C40.5965 16.4657 42.079 18.2953 42.079 20.0105V20.8109H39.5702C29.7632 20.8109 24.9737 23.8982 24.9737 29.6155C24.9737 34.5323 28.6228 37.8483 33.5263 37.8483C36.9474 37.8483 39.2281 36.5905 41.9649 33.7319C41.9649 34.8754 42.193 36.1332 42.307 37.2766H50.9737C50.8597 35.7901 50.6316 33.7319 50.6316 31.5593L50.7456 20.2391ZM71.614 19.7818C71.614 13.0354 73.6667 8.57591 78 8.57591C82.3333 8.57591 84.386 13.0354 84.386 19.7818C84.386 26.5281 82.3333 30.9876 78 30.9876C73.6667 30.9876 71.614 26.6425 71.614 19.7818ZM61.1228 19.7818C61.1228 32.5885 69.6754 37.6197 78 37.6197C86.3246 37.6197 94.8772 32.5885 94.8772 19.7818C94.8772 6.97507 86.3246 1.94387 78 1.94387C69.7895 2.05822 61.1228 6.97507 61.1228 19.7818ZM106.509 24.1269C106.509 19.8961 107.991 16.9231 110.614 16.9231C113.123 16.9231 114.149 19.8961 114.149 24.1269C114.149 28.472 113.237 31.3307 110.386 31.3307C107.877 31.3307 106.509 28.472 106.509 24.1269ZM96.7018 47.682H106.509V37.734C106.509 35.7901 106.395 34.1893 106.281 33.1602H106.395C108.447 36.1332 110.5 37.5053 114.263 37.5053C121.333 37.5053 124.412 30.6446 124.412 24.6986C124.412 16.9231 121.219 10.8628 113.807 10.8628C110.842 10.8628 108.333 11.8919 106.281 15.4366H106.053C106.053 14.0645 105.939 12.6923 105.825 11.5489H96.3597C96.4737 12.235 96.7018 13.8358 96.7018 15.7797V47.682ZM126.009 11.3202H135.816V37.0479H126.009C126.009 36.9336 126.009 11.3202 126.009 11.3202ZM126.009 0H135.816V7.43245H126.009V0ZM138.439 16.5801C138.439 14.6362 138.325 12.578 138.096 11.3202H147.333C147.447 12.3493 147.561 14.1788 147.561 15.551H147.675C148.246 14.1788 150.07 10.6341 155.658 10.6341C160.447 10.6341 164.211 13.2641 164.211 18.867V36.8192H154.404V21.6113C154.404 19.0957 153.605 17.9522 151.781 17.9522C149.386 17.9522 148.246 20.2391 148.246 22.9834V37.0479H138.439C138.439 36.9336 138.439 16.5801 138.439 16.5801ZM166.833 11.3202H176.64V37.0479H166.833V11.3202ZM166.833 0H176.64V7.43245H166.833V0ZM188.842 24.1269C188.842 20.3535 189.412 16.6944 192.719 16.6944C196.026 16.6944 196.596 20.3535 196.596 24.1269C196.596 27.9003 196.026 31.5593 192.719 31.5593C189.298 31.5593 188.842 27.9003 188.842 24.1269ZM191.465 0.571727L188.842 7.77549H194.43L199.904 0.571727H191.465ZM178.579 24.1269C178.579 31.102 182.342 37.5053 192.719 37.5053C203.097 37.5053 206.86 31.102 206.86 24.1269C206.86 17.1518 202.982 10.7485 192.719 10.7485C182.342 10.7485 178.579 17.1518 178.579 24.1269ZM208.228 16.5801C208.228 14.6362 208.114 12.578 207.886 11.3202H217.123C217.237 12.3493 217.351 14.1788 217.351 15.551H217.465C218.035 14.1788 219.86 10.6341 225.447 10.6341C230.237 10.6341 234 13.2641 234 18.867V36.8192H224.193V21.6113C224.193 19.0957 223.395 17.9522 221.57 17.9522C219.175 17.9522 218.035 20.2391 218.035 22.9834V37.0479H208.228V16.5801Z" fill="#1A171B"/>
<path d="M116.658 49.3971L118.71 44.1372L120.877 49.3971H116.658ZM127.491 54.0852C126.465 54.0852 126.123 53.3992 125.096 50.9979L120.193 39.5634H119.737L114.947 51.4553C114.263 53.0561 114.035 53.8565 112.781 53.9709V54.5426H117.228V53.9709C116.544 53.9709 115.403 53.8565 115.403 53.0561C115.403 52.7131 115.746 51.7983 116.316 50.1975H121.219C121.561 50.8836 122.246 52.4844 122.246 53.0561C122.246 53.7422 121.903 53.7422 120.535 53.8565V54.4283H127.605L127.491 54.0852ZM148.588 51.7983C146.991 53.6279 145.281 55 142.544 55C137.526 55 134.789 51.4553 134.789 47.3389C134.789 42.8794 137.868 39.5634 142.43 39.5634C144.368 39.5634 146.079 40.5925 146.649 40.5925C147.219 40.5925 147.447 40.1351 147.675 39.5634H148.246V44.7089H147.675C146.877 42.765 145.053 40.2494 142.658 40.2494C139.465 40.2494 138.667 43.5655 138.667 47.2245C138.667 48.4823 138.781 50.6549 139.579 52.027C140.491 53.6279 142.202 53.9709 142.886 53.9709C144.596 53.9709 146.193 53.2848 148.018 51.3409L148.588 51.7983ZM153.149 49.6258C153.149 47.1102 153.263 44.9376 154.86 44.9376C156.228 44.9376 156.57 46.1954 156.57 49.6258C156.57 52.3701 156.342 54.1996 154.86 54.1996C153.149 54.1996 153.149 51.9127 153.149 49.6258ZM149.956 49.6258C149.956 52.4844 151.895 54.8857 154.86 54.8857C157.825 54.8857 159.763 52.4844 159.763 49.6258C159.763 46.5384 157.71 44.2515 154.86 44.2515C151.781 44.2515 149.956 46.7671 149.956 49.6258ZM166.605 54.5426H160.789V53.9709C161.474 53.8565 161.93 53.7422 161.93 52.7131V46.3097C161.93 45.1663 161.36 45.1663 160.789 45.0519V44.4802H164.895V46.1954C165.351 45.5093 166.377 44.2515 167.746 44.2515C169.228 44.2515 169.57 45.395 169.57 45.9667C169.57 46.5384 169.228 47.4532 168.202 47.4532C166.947 47.4532 166.947 46.1954 166.263 46.1954C165.921 46.1954 165.009 46.6528 165.009 48.2536V52.3701C165.009 53.7422 165.237 54.0852 166.605 54.0852V54.5426ZM181.544 54.1996C178.921 54.4283 178.579 54.5426 177.325 54.8857V53.5135C176.64 54.0852 175.728 55 174.246 55C172.079 55 171.281 53.5135 171.281 51.9127V46.4241C171.281 45.5093 171.053 45.2806 170.254 45.1663V44.5946H174.36V52.027C174.36 52.5987 174.36 53.6279 175.614 53.6279C176.412 53.6279 176.982 53.0561 177.439 52.7131V46.5384C177.439 45.395 176.868 45.2806 176.07 45.2806V44.7089H180.403V52.5987C180.403 53.3992 180.632 53.8565 181.658 53.8565L181.544 54.1996ZM184.053 42.6507C184.167 41.8503 184.623 39.9064 186.675 39.9064C187.36 39.9064 188.044 40.2494 188.272 40.3638L189.184 40.7068C189.754 40.9355 189.754 40.9355 190.096 40.9355C190.895 40.9355 191.123 40.2494 191.237 39.9064H192.149C191.921 40.7068 191.465 42.6507 189.526 42.6507C189.184 42.6507 188.614 42.5363 188.272 42.3077L187.588 42.079C186.447 41.6216 186.447 41.6216 186.219 41.6216C185.535 41.6216 185.193 42.3077 185.193 42.6507C184.965 42.6507 184.053 42.6507 184.053 42.6507ZM193.746 54.5426H188.614V53.9709C189.298 53.8565 189.64 53.5135 189.64 52.7131V47.4532C189.64 46.8815 189.64 45.6237 188.5 45.6237C187.588 45.6237 186.675 46.6528 186.675 46.8815V52.7131C186.675 53.1705 186.789 53.8565 187.702 53.9709V54.5426H182.456V53.9709C183.254 53.8565 183.596 53.7422 183.596 52.7131V46.3097C183.596 45.2806 183.368 45.1663 182.456 45.0519V44.4802H186.561V46.0811C186.903 45.5093 187.816 44.2515 189.64 44.2515C190.781 44.2515 192.605 44.9376 192.605 47.3389V52.8274C192.605 53.3992 192.605 53.9709 193.632 54.0852V54.5426H193.746ZM200.474 52.3701C200.132 52.7131 199.675 53.2848 198.877 53.2848C198.079 53.2848 197.737 52.4844 197.737 51.7983C197.737 49.8545 199.903 49.2827 200.36 49.1684V52.3701H200.474ZM204.351 53.1705L204.123 53.3992C204.009 53.5135 204.009 53.5135 203.895 53.5135C203.439 53.5135 203.439 53.0561 203.439 52.9418V47.2245C203.439 45.1663 201.5 44.2515 199.105 44.2515C196.368 44.2515 195 45.6237 195 46.9958C195 48.4823 196.14 48.4823 196.482 48.4823C197.623 48.4823 197.965 47.6819 197.965 47.2245C197.965 46.4241 197.281 46.1954 197.281 45.738C197.281 45.395 197.737 44.9376 198.535 44.9376C200.132 44.9376 200.474 45.738 200.474 46.8815V48.4823C197.395 49.3971 194.658 50.3118 194.658 52.5987C194.658 54.3139 196.026 54.8857 197.053 54.8857C197.623 54.8857 199.105 54.7713 200.474 53.3992C200.588 53.9709 200.816 54.8857 202.298 54.8857C203.325 54.8857 204.123 54.3139 204.693 53.6279L204.351 53.1705Z" fill="#0077BA"/>
</svg>
