<svg width="185" height="55" viewBox="0 0 185 55" fill="none" xmlns="http://www.w3.org/2000/svg">
<path d="M0 40.1083H18.1821V27.3014H17.884C17.4675 29.7982 17.342 30.2601 17.1348 31.0224C17.0454 31.3514 16.9408 31.7362 16.7911 32.3646C16.2943 34.4495 15.6982 35.9386 15.2014 36.9314C14.6053 37.9242 13.413 38.5199 12.7175 38.8177C12.1214 39.1155 10.7304 39.2148 9.8362 39.2148H7.74973V0.893502H8.942V0H0V0.794224H1.7884V39.2148H0V40.1083Z" fill="#1A171B"/>
<path fill-rule="evenodd" clip-rule="evenodd" d="M35.8673 15.2888C36.5628 16.1823 37.0596 17.6715 37.0596 19.7563H37.457V37.13C37.457 37.8249 37.5564 38.3213 37.6557 38.5199C37.7551 38.7184 37.9538 38.8177 38.2519 38.8177C38.5499 38.8177 38.848 38.5199 39.1461 38.0235C39.4441 37.4278 39.6429 36.435 39.7422 35.0451H40.6364C40.4377 37.4278 39.9409 39.0162 39.0467 39.7112C38.1525 40.4061 37.159 40.8032 36.1654 40.704C35.0725 40.704 34.1783 40.4061 33.3835 40.009C32.5886 39.6119 32.0918 38.917 31.7938 37.9242H31.6944C31.4957 38.8177 30.9989 39.5126 30.2041 40.009C29.5086 40.5054 28.515 40.704 27.5215 40.704C25.7331 40.8032 24.4415 40.2076 23.6466 39.0162C22.8518 37.8249 22.4544 35.7401 22.4544 32.861C22.355 29.3863 23.1498 26.9043 24.5408 25.3159C25.7342 23.9531 27.5858 23.9787 30.0957 24.0135C30.5112 24.0193 30.9448 24.0253 31.3963 24.0253V18.8628C31.3963 16.9765 31.1976 15.6859 30.8996 15.0903C30.6015 14.4946 30.0054 14.1967 29.1112 14.296C28.3163 14.296 27.5215 14.5939 26.7266 14.991C25.9318 15.3881 25.3357 15.9838 25.0376 16.6787C25.435 16.5794 26.0312 16.4801 26.7266 16.4801C27.4221 16.4801 28.0183 16.778 28.515 17.2744C28.9125 17.7708 29.2105 18.3664 29.2105 19.0614C29.2105 19.8556 28.9125 20.5505 28.4157 21.1462C27.9189 21.7419 27.2234 22.0397 26.3292 22.0397C24.1434 22.0397 23.0505 20.9477 23.0505 18.7635C23.0505 17.2744 23.6466 15.9838 24.9382 14.8917C26.2299 13.7996 28.0183 13.3032 30.5022 13.204C31.297 13.204 32.1912 13.3032 33.1847 13.5018C34.1783 13.7996 35.0725 14.3953 35.8673 15.2888ZM28.6144 26.4079C28.217 27.0036 28.0183 27.8971 28.0183 29.0884V36.3357C28.0183 36.9314 28.0183 37.5271 28.217 37.9242C28.4157 38.4206 28.8131 38.6191 29.6079 38.6191C30.4028 38.5199 30.8002 38.1227 30.9989 37.4278C31.1976 36.6336 31.1976 35.7401 31.1976 34.7473V25.3159C29.906 25.4152 29.0118 25.8123 28.6144 26.4079Z" fill="#1A171B"/>
<path d="M103.032 15.9838V15.1895L109.987 13.4025V39.6119H111.477V40.6047H103.032V39.6119H104.522V15.7852L103.032 15.9838Z" fill="#1A171B"/>
<path d="M105.118 8.83574C104.621 8.33935 104.323 7.74368 104.323 6.94946C104.323 6.15523 104.621 5.55957 105.118 5.06318C105.714 4.56679 106.31 4.26895 107.105 4.26895C107.801 4.26895 108.496 4.56679 108.993 5.06318C109.49 5.65884 109.788 6.25451 109.788 6.94946C109.788 7.74368 109.49 8.33935 108.993 8.83574C108.496 9.33213 107.9 9.62996 107.105 9.62996C106.31 9.62996 105.615 9.33213 105.118 8.83574Z" fill="#1A171B"/>
<path d="M160.062 6.45307C159.962 6.65163 159.863 6.85018 159.565 7.14801L153.107 13.204L151.517 13.5018L156.088 6.55235C156.148 6.46216 156.217 6.36287 156.293 6.25447C156.467 6.00491 156.675 5.70709 156.882 5.36101C157.18 4.86462 157.578 4.56679 158.075 4.46751C158.373 4.36823 158.77 4.36823 159.168 4.56679C159.565 4.76534 159.863 5.06318 160.062 5.65884C160.161 5.95668 160.161 6.25451 160.062 6.45307Z" fill="#1A171B"/>
<path fill-rule="evenodd" clip-rule="evenodd" d="M72.6289 38.4206C71.1386 40.5054 67.9592 41.4982 65.8727 41.5975C63.7863 41.4982 60.8056 40.4061 59.3153 38.4206C57.9243 36.3357 56.8314 33.7545 56.0365 30.4783C55.2417 27.3014 54.8443 23.8267 54.8443 20.1534C54.8443 16.8773 55.341 13.7996 56.2352 10.8213C57.1294 7.84296 58.3217 5.46029 59.812 3.57401C61.3024 1.68773 64.0843 0.794224 65.8727 0.694946C67.5618 0.694946 70.6418 1.68773 72.1321 3.57401C73.6225 5.46029 74.8147 7.84296 75.7089 10.8213C76.6031 13.7004 77.0999 16.8773 77.0999 20.1534C77.0005 23.7274 76.7025 27.2022 75.9076 30.4783C75.2121 33.6552 74.1192 36.3357 72.6289 38.4206ZM69.8469 33.7545C70.0457 31.6697 70.145 29.4856 70.145 27.2022V13.1047C70.145 10.9206 70.0456 9.0343 69.7476 7.24729C69.5489 5.46029 69.0521 4.0704 68.456 2.97834C67.7605 1.98556 66.9656 1.38989 65.7734 1.38989C64.5811 1.38989 63.6869 1.88628 63.0908 2.97834C62.4946 4.0704 61.9979 5.46029 61.7991 7.24729C61.5011 9.0343 61.4017 11.0199 61.4017 13.1047V27.2022C61.4017 29.4856 61.5011 31.6697 61.6998 33.7545C61.8985 35.7401 62.3953 37.4278 62.9914 38.6191C63.5875 39.8105 64.5811 40.5054 65.7734 40.5054C66.9656 40.5054 67.9592 39.8105 68.5553 38.6191C69.2508 37.4278 69.6482 35.8393 69.8469 33.7545Z" fill="#1A171B"/>
<path fill-rule="evenodd" clip-rule="evenodd" d="M97.6665 33.6552C97.9646 31.5704 98.1633 30.0812 98.1633 27.5C98.1633 23.8267 97.8652 22.7347 97.2691 20.6498C96.6729 18.565 95.8781 17.1751 94.9839 16.2816C94.0897 15.4874 93.0961 15.0903 92.0032 15.0903C90.811 15.1895 89.9168 15.4874 89.3206 16.083C88.6251 16.6787 88.2277 17.3736 88.029 18.1679H87.9296V13.6011L80.5773 15.4874V16.4801L82.3657 15.9838V54.1065H80.5773V55H90.0161V54.1065H87.8303V38.1227H88.1284C88.4264 38.8177 89.0226 39.7112 89.5193 40.1083C90.1155 40.4061 91.2084 40.704 92.1026 40.704C93.6923 40.6047 94.8845 40.009 95.7787 38.7184C96.6729 37.5271 97.2691 35.7401 97.6665 33.6552ZM91.8045 17.2744C92.0032 17.87 92.1026 19.0614 92.1026 20.9477L92.2019 35.5415C92.2019 36.7329 92.1026 37.6264 91.9039 38.4206C91.7052 39.2148 91.2084 39.6119 90.4135 39.6119C89.718 39.6119 89.0226 39.2148 88.4264 38.3213C87.8303 37.4278 87.4329 36.2365 87.4329 34.648V22.4368C87.4329 20.4513 87.7309 18.9621 88.3271 17.9693C88.9232 16.9765 89.6187 16.4801 90.6122 16.4801C91.2084 16.3809 91.6058 16.6787 91.8045 17.2744Z" fill="#1A171B"/>
<path fill-rule="evenodd" clip-rule="evenodd" d="M160.161 38.7184C159.168 40.009 156.982 40.704 155.591 40.704C154.2 40.704 152.213 40.009 151.418 38.7184C150.424 37.4278 149.629 35.7401 149.133 33.6552C148.636 31.5704 148.338 29.3863 148.338 27.1029C148.338 25.018 148.636 23.0325 149.232 21.1462C149.828 19.2599 150.623 17.7708 151.617 16.5794C152.61 15.3881 154.498 14.6931 155.69 14.6931C156.882 14.7924 158.969 15.3881 159.962 16.5794C160.956 17.7708 161.751 19.2599 162.347 21.1462C162.943 23.0325 163.241 25.018 163.241 27.1029C163.241 29.3863 162.943 31.5704 162.446 33.6552C161.85 35.7401 161.155 37.4278 160.161 38.7184ZM157.677 35.343C157.777 34.1516 157.777 32.7617 157.777 31.3718H157.975V22.7347C157.975 21.444 157.876 20.2527 157.777 19.1606C157.578 17.9693 157.379 17.1751 157.081 16.4801C156.684 15.7852 156.286 15.4874 155.69 15.4874C155.094 15.4874 154.597 15.7852 154.299 16.4801C153.902 17.1751 153.703 18.0686 153.604 19.1606C153.504 20.2527 153.405 21.444 153.405 22.7347V31.3718C153.306 32.7616 153.405 34.0522 153.504 35.3427C153.608 36.3235 153.603 36.6604 153.673 36.9808C153.738 37.2767 153.866 37.5588 154.2 38.3213C154.498 39.1155 154.995 39.5126 155.591 39.5126C156.187 39.5126 156.684 39.1155 156.982 38.3213C157.379 37.6264 157.578 36.6336 157.677 35.343Z" fill="#1A171B"/>
<path d="M136.713 15.9838V15.1895L143.668 13.4025V39.6119H145.158V40.6047H136.713V39.6119H138.204V15.7852L136.713 15.9838Z" fill="#1A171B"/>
<path d="M138.8 8.83574C138.303 8.33935 138.005 7.74368 138.005 6.94946C138.005 6.15523 138.303 5.55957 138.8 5.06318C139.396 4.56679 139.992 4.26895 140.787 4.26895C141.482 4.26895 142.178 4.56679 142.675 5.06318C143.171 5.65884 143.469 6.25451 143.469 6.94946C143.469 7.74368 143.171 8.33935 142.675 8.83574C142.178 9.33213 141.582 9.62996 140.787 9.62996C139.992 9.62996 139.296 9.33213 138.8 8.83574Z" fill="#1A171B"/>
<path d="M131.944 20.1534V39.6119H133.534V40.5054H125.188V39.6119H126.082V18.0686C126.082 17.3736 125.983 16.9765 125.784 16.6787C125.585 16.3809 125.188 16.2816 124.691 16.2816C124.194 16.2816 123.797 16.5794 123.4 17.1751C123.002 17.7708 122.803 18.4657 122.803 19.4585V39.7112H123.698V40.6047H115.252V39.7112H117.14V16.4801L115.252 16.778V15.8845L122.605 13.9982V16.778H122.903C123.698 15.8845 124.393 15.1895 125.089 14.7924C125.784 14.3953 126.281 14.1967 127.473 14.1967C128.864 14.1967 129.957 14.6931 130.752 15.5866C131.547 16.4801 131.944 18.0686 131.944 20.1534Z" fill="#1A171B"/>
<path d="M183.41 20.1534V39.6119H185V40.5054H176.654V39.6119H177.548V18.0686C177.548 17.3736 177.449 16.9765 177.25 16.6787C177.052 16.3809 176.654 16.2816 176.157 16.2816C175.661 16.2816 175.263 16.5794 174.866 17.1751C174.468 17.7708 174.27 18.4657 174.27 19.4585V39.7112H175.164V40.6047H166.719V39.7112H168.606V16.4801L166.719 16.778V15.8845L174.071 13.9982V16.778H174.369C175.164 15.8845 175.859 15.1895 176.555 14.7924C177.25 14.3953 177.747 14.1967 178.939 14.1967C180.33 14.1967 181.423 14.6931 182.218 15.5866C183.013 16.4801 183.41 18.0686 183.41 20.1534Z" fill="#1A171B"/>
<path d="M20.5667 46.1643H20.9641V43.7816H12.817V44.278C12.8581 44.278 12.9163 44.295 12.9845 44.315C13.0809 44.3432 13.1973 44.3773 13.3137 44.3773C13.5125 44.3773 13.7112 44.3773 13.8105 44.4766C13.8436 44.5097 13.8878 44.5427 13.932 44.5758C14.0203 44.642 14.1086 44.7082 14.1086 44.7744C14.2079 44.8737 14.2079 44.9729 14.2079 45.1715V51.6246C14.2079 51.8231 14.2079 51.9224 14.1086 52.0217C14.1086 52.121 14.0092 52.2202 13.8105 52.3195C13.8105 52.3195 13.6118 52.4188 13.4131 52.4188C13.2144 52.5181 13.0157 52.5181 12.9163 52.5181V53.0145H21.5603L21.759 50.2347H21.2622C21.2343 50.2904 21.2064 50.3618 21.1741 50.4445C21.0914 50.6562 20.9798 50.9419 20.7654 51.2275C20.4673 51.7239 20.2686 52.0217 20.0699 52.2202C19.9706 52.3195 19.8712 52.4188 19.6725 52.4188C19.6313 52.4188 19.5731 52.4358 19.505 52.4558C19.4085 52.484 19.2921 52.5181 19.1757 52.5181H17.288C17.2383 52.4684 17.1638 52.4436 17.0893 52.4188C17.0147 52.394 16.9402 52.3692 16.8905 52.3195C16.7912 52.2202 16.6918 52.121 16.6918 51.9224C16.5925 51.7239 16.5925 51.5253 16.5925 51.2275V48.547H17.586C17.8841 48.547 18.0828 48.547 18.2815 48.6462C18.4802 48.6462 18.6789 48.7455 18.7783 48.9441C18.8777 49.0434 18.977 49.2419 19.0764 49.5397C19.103 49.6195 19.1296 49.6922 19.1543 49.7597C19.2218 49.944 19.2751 50.0893 19.2751 50.2347H19.7719V46.3628H19.2751C19.2751 46.5082 19.2218 46.6535 19.1543 46.8378C19.1296 46.9053 19.103 46.978 19.0764 47.0578C18.977 47.2563 18.8777 47.4549 18.7783 47.5542C18.6789 47.6535 18.4802 47.7527 18.2815 47.852C18.0828 47.9513 17.7847 47.9513 17.586 47.9513H16.5925V44.3773H18.4802C18.6789 44.4766 18.8777 44.4766 18.977 44.4766C19.2751 44.4766 19.5731 44.6751 19.8712 45.0722C20.2686 45.4693 20.4673 45.7672 20.5667 46.1643Z" fill="#1A171B"/>
<path d="M26.1306 52.4188C26.23 52.5181 26.3293 52.5181 26.4287 52.5181V53.0145H22.3551V52.6174H22.6532C22.7028 52.6174 22.7525 52.5925 22.8022 52.5677C22.8519 52.5429 22.9015 52.5181 22.9512 52.5181C23.1499 52.5181 23.2493 52.4188 23.2493 52.3195C23.3487 52.2202 23.3487 52.121 23.3487 51.9224V44.7744C23.3487 44.5758 23.3487 44.3773 23.2493 44.278L22.9512 43.9802C22.8898 43.9188 22.8284 43.8954 22.7436 43.863C22.6911 43.843 22.6297 43.8195 22.5538 43.7816C22.3551 43.6823 22.1564 43.6823 22.057 43.6823V43.1859L25.3358 42.9874L25.4351 43.0867V51.7239C25.4351 51.9224 25.4351 52.0217 25.5345 52.121C25.5842 52.1706 25.6338 52.1954 25.6835 52.2203C25.7332 52.2451 25.7829 52.2699 25.8325 52.3195C25.8822 52.3195 25.9319 52.3443 25.9816 52.3692C26.0313 52.394 26.0809 52.4188 26.1306 52.4188Z" fill="#1A171B"/>
<path d="M36.7616 53.0145C36.3642 53.1137 35.8674 53.213 35.2713 53.213C34.6541 53.213 34.1151 53.1348 33.5156 53.0479C33.4395 53.0368 33.3625 53.0256 33.2842 53.0145C33.1793 52.9516 33.07 52.8887 32.9591 52.8249C32.5446 52.5865 32.1074 52.335 31.7939 52.0217C31.3965 51.6246 30.999 51.1282 30.8003 50.5325C30.5022 49.9369 30.4029 49.2419 30.4029 48.547C30.4029 47.852 30.5022 47.1571 30.8003 46.5614C31.0984 45.9657 31.3964 45.3701 31.8932 44.973C32.2906 44.5758 32.8868 44.1787 33.4829 43.9802C34.0791 43.6823 34.7745 43.5831 35.47 43.5831C35.9668 43.5831 36.4636 43.6823 36.861 43.7816C37.3578 43.8809 37.6558 43.9802 37.9539 44.1787L38.3513 43.7816H38.9475L39.0468 47.1571H38.4507C38.0533 46.065 37.7552 45.3701 37.2584 44.8737C36.7616 44.3773 36.2649 44.1787 35.5694 44.1787C34.6752 44.1787 34.0791 44.5758 33.6816 45.2708C33.2842 45.9657 33.0855 46.9585 33.0855 48.2491C33.0855 48.9441 33.1848 49.639 33.2842 50.1354C33.4829 50.7311 33.6816 51.1282 33.8803 51.426C34.1784 51.7238 34.4764 51.9224 34.7744 52.1209C35.0725 52.2202 35.47 52.3195 35.8674 52.3195C36.4636 52.3195 36.9604 52.121 37.4571 51.8231C37.9539 51.5253 38.3513 51.0289 38.7488 50.334L39.2455 50.6318C39.1726 50.9232 38.9928 51.1611 38.8237 51.3848C38.7623 51.466 38.7023 51.5453 38.6494 51.6246C38.4507 51.9224 38.1526 52.2202 37.8546 52.4188C37.5565 52.7166 37.1591 52.9152 36.7616 53.0145Z" fill="#1A171B"/>
<path fill-rule="evenodd" clip-rule="evenodd" d="M45.3062 46.6607C45.803 46.8592 46.2004 47.0578 46.4985 47.3556C46.7966 47.6535 47.0946 47.9513 47.0946 48.2491C47.2933 48.7455 47.3927 49.1426 47.3927 49.639C47.3927 50.1354 47.2933 50.6318 47.0946 51.0289C46.9953 51.426 46.6972 51.8231 46.3991 52.121C46.1011 52.5181 45.7036 52.7166 45.2069 52.9152C44.8094 53.1137 44.2133 53.213 43.6172 53.213C43.021 53.213 42.5243 53.213 42.1268 53.0145C41.6301 52.8159 41.2326 52.6174 40.9346 52.3195C40.6365 52.0217 40.3384 51.6246 40.1397 51.2275C39.941 50.8304 39.8417 50.334 39.8417 49.8376C39.8417 49.3412 39.941 48.8448 40.1397 48.4477C40.3384 48.0506 40.6365 47.6535 40.9346 47.3556C41.2326 47.0578 41.6301 46.8592 42.1268 46.6607C42.6236 46.4621 43.1204 46.3628 43.7165 46.3628C44.3127 46.3628 44.8094 46.4621 45.3062 46.6607ZM44.5114 52.4188C44.6107 52.3195 44.8094 52.121 44.9088 51.8231C44.9088 51.6246 45.0082 51.3267 45.2069 50.7311C45.3062 50.4332 45.3062 50.0361 45.3062 49.5397C45.3062 49.4015 45.2848 49.2633 45.2619 49.1151C45.2354 48.9441 45.2069 48.7598 45.2069 48.547C45.2069 48.1498 45.1075 47.852 45.0082 47.6535C44.9088 47.4549 44.8094 47.2563 44.6107 47.0578C44.412 46.9585 44.2133 46.8592 43.9152 46.8592C43.6172 46.8592 43.4185 46.9585 43.2198 47.1571C43.021 47.3556 42.9217 47.5542 42.8223 47.852C42.723 48.1498 42.6236 48.4477 42.6236 48.7455C42.5243 49.0434 42.5243 49.3412 42.5243 49.7383V50.9296C42.5243 51.2275 42.6236 51.5253 42.723 51.8231C42.8223 52.0217 42.9217 52.2202 43.1204 52.4188C43.3191 52.5181 43.5178 52.6174 43.8159 52.6174C44.114 52.6174 44.3127 52.5181 44.5114 52.4188Z" fill="#1A171B"/>
<path d="M54.4469 46.76C54.745 47.0578 54.8444 47.3556 54.8444 47.7527C54.8444 48.0506 54.745 48.3484 54.3476 48.547C54.1489 48.8448 53.8508 48.9441 53.5527 48.9441C53.2547 48.9441 52.9566 48.9441 52.7579 48.7455C52.5592 48.547 52.4598 48.3484 52.4598 48.0506V47.6535C52.5592 47.6535 52.5592 47.5542 52.5592 47.4549C52.3605 47.4549 52.1618 47.5542 51.963 47.6535C51.7644 47.7527 51.5657 47.9512 51.367 48.1497L51.3669 51.7239C51.3669 51.8402 51.401 51.9224 51.4293 51.9905C51.4492 52.0387 51.4663 52.0798 51.4663 52.121C51.4663 52.1823 51.5042 52.2058 51.5567 52.2381C51.5891 52.2582 51.627 52.2816 51.665 52.3195C51.7061 52.3195 51.7643 52.3366 51.8325 52.3565C51.929 52.3847 52.0453 52.4188 52.1618 52.4188C52.3605 52.5181 52.5592 52.5181 52.6585 52.5181V53.0145H48.2869V52.5181H48.585C48.6843 52.4188 48.7837 52.4188 48.883 52.4188C49.0285 52.4188 49.0675 52.3656 49.1169 52.2981C49.135 52.2735 49.1545 52.2469 49.1811 52.2202C49.2804 52.121 49.2804 52.0217 49.2804 51.8231V48.0506C49.2804 47.9513 49.2804 47.7527 49.1811 47.6535L48.883 47.3556C48.8333 47.3556 48.7837 47.3308 48.734 47.306C48.6843 47.2812 48.6346 47.2563 48.585 47.2563C48.4856 47.1571 48.2869 47.1571 48.1875 47.1571V46.6607L51.2676 46.4621L51.3669 46.5614V47.4549C51.665 47.1571 52.0624 46.8592 52.3605 46.6607C52.7579 46.4621 53.056 46.3628 53.4534 46.3628C53.8508 46.3628 54.2482 46.5614 54.4469 46.76Z" fill="#1A171B"/>
<path d="M61.3025 46.76C61.6005 47.0578 61.6999 47.3556 61.6999 47.7527C61.6999 47.9884 61.5755 48.1619 61.4251 48.3717C61.3854 48.427 61.3439 48.4848 61.3025 48.547C61.1038 48.8448 60.8057 48.9441 60.5076 48.9441C60.2096 48.9441 59.9115 48.9441 59.7128 48.7455C59.5141 48.547 59.4147 48.3484 59.4147 48.0506V47.6535C59.5141 47.6535 59.5141 47.5542 59.5141 47.4549C59.3153 47.4549 59.1166 47.5542 58.9179 47.6535C58.7193 47.7527 58.5206 47.9512 58.3219 48.1497L58.3218 51.7239C58.3218 51.8402 58.3559 51.9224 58.3841 51.9905C58.4041 52.0387 58.4212 52.0798 58.4212 52.121C58.4212 52.1823 58.4591 52.2058 58.5115 52.2381C58.544 52.2582 58.5819 52.2816 58.6199 52.3195C58.661 52.3195 58.7192 52.3366 58.7874 52.3565C58.8838 52.3847 59.0002 52.4188 59.1166 52.4188C59.3153 52.5181 59.5141 52.5181 59.6134 52.5181V53.0145H55.1424V52.5181H55.4405C55.5398 52.4188 55.6392 52.4188 55.7386 52.4188C55.884 52.4188 55.923 52.3656 55.9724 52.2981C55.9905 52.2735 56.01 52.2469 56.0366 52.2202C56.136 52.121 56.136 52.0217 56.136 51.8231V48.0506C56.136 47.9513 56.136 47.7527 56.0366 47.6535L55.7386 47.3556C55.6889 47.3556 55.6392 47.3308 55.5895 47.306C55.5398 47.2812 55.4902 47.2563 55.4405 47.2563C55.3411 47.1571 55.1424 47.1571 55.0431 47.1571V46.6607L58.1231 46.4621L58.2224 46.5614V47.4549C58.5205 47.1571 58.9179 46.8592 59.216 46.6607C59.6134 46.4621 59.9115 46.3628 60.3089 46.3628C60.7063 46.3628 61.1038 46.5614 61.3025 46.76Z" fill="#1A171B"/>
<path fill-rule="evenodd" clip-rule="evenodd" d="M67.86 52.0216C68.158 51.7238 68.4561 51.426 68.6548 51.1282L69.3503 51.6246C69.2509 51.7239 69.1516 51.8479 69.0522 51.972C68.9528 52.0961 68.8535 52.2202 68.7541 52.3195C68.5851 52.5729 68.416 52.6826 68.1857 52.832C68.1454 52.8582 68.1031 52.8856 68.0586 52.9152C67.7606 53.1137 67.4625 53.213 67.1644 53.3123C66.8664 53.4116 66.5683 53.4116 66.1709 53.4116C65.4754 53.4116 64.9786 53.3123 64.4818 53.1137C63.9851 53.0145 63.5876 52.7166 63.2896 52.4188C62.9915 52.121 62.7928 51.7239 62.5941 51.3268C62.5796 51.2544 62.5651 51.184 62.5509 51.1152C62.4679 50.7124 62.3954 50.3608 62.3954 49.9369C62.3954 49.4405 62.3954 49.0433 62.5941 48.6462C62.7928 48.2491 62.9915 47.852 63.2896 47.5542C63.5876 47.1571 63.8857 46.9585 64.3825 46.76C64.7799 46.5614 65.2767 46.4621 65.8728 46.4621C66.469 46.4621 66.9657 46.5614 67.3632 46.6607C67.7606 46.76 68.0586 46.9585 68.3567 47.2563C68.5554 47.5542 68.7541 47.852 68.8535 48.1498C68.8705 48.218 68.8876 48.2832 68.9041 48.3464C68.984 48.6521 69.0522 48.9129 69.0522 49.2419V49.639H64.6805C64.6805 50.5325 64.8793 51.1282 65.1773 51.6246C65.4754 52.121 66.0715 52.3195 66.767 52.3195C67.1644 52.3195 67.5619 52.2202 67.86 52.0216ZM64.8793 47.4549C64.6806 47.7527 64.5812 48.3484 64.5812 49.0434L66.5683 49.1426V48.3484C66.5683 48.0506 66.5683 47.852 66.469 47.6535C66.3696 47.4549 66.2702 47.2563 66.1709 47.1571C66.0715 47.0578 65.8728 46.9585 65.6741 46.9585C65.376 46.9585 65.078 47.1571 64.8793 47.4549Z" fill="#1A171B"/>
<path fill-rule="evenodd" clip-rule="evenodd" d="M75.2122 46.6607C75.709 46.8592 76.1064 47.0578 76.4045 47.3556C76.7026 47.6535 76.9013 47.9513 77.0006 48.2491C77.1993 48.7455 77.2987 49.1426 77.2987 49.639C77.2987 50.1354 77.1993 50.6318 77.0006 51.0289C76.9013 51.426 76.6032 51.8231 76.3052 52.121C76.0071 52.5181 75.6097 52.7166 75.1129 52.9152C74.7155 53.1137 74.1193 53.213 73.5232 53.213C72.9271 53.213 72.4303 53.213 72.0329 53.0145C71.5361 52.8159 71.1387 52.6174 70.8406 52.3195C70.5425 52.0217 70.2445 51.6246 70.0458 51.2275C69.847 50.8304 69.7477 50.334 69.7477 49.8376C69.7477 49.3412 69.847 48.8448 70.0458 48.4477C70.2445 48.0506 70.5425 47.6535 70.8406 47.3556C71.1387 47.0578 71.5361 46.8592 72.0329 46.6607C72.5296 46.4621 73.0264 46.3628 73.6225 46.3628C74.2187 46.3628 74.7155 46.4621 75.2122 46.6607ZM74.318 52.4188C74.4174 52.3195 74.6161 52.121 74.7155 51.8231C74.8148 51.6246 74.9142 51.3267 75.0135 50.7311C75.1129 50.4332 75.1129 50.0361 75.1129 49.5397C75.1129 49.4015 75.0915 49.2633 75.0685 49.1151C75.0421 48.9441 75.0135 48.7598 75.0135 48.547C75.0135 48.1498 74.9142 47.852 74.8148 47.6535C74.7155 47.4549 74.6161 47.2563 74.4174 47.0578C74.2187 46.9585 74.02 46.8592 73.7219 46.8592C73.4238 46.8592 73.2251 46.9585 73.0264 47.1571C72.8277 47.3556 72.7283 47.5542 72.629 47.852C72.5296 48.1498 72.4303 48.4477 72.4303 48.7455C72.3309 49.0434 72.3309 49.3412 72.3309 49.7383V50.9296C72.3309 51.2275 72.4303 51.5253 72.5296 51.8231C72.629 52.0217 72.7283 52.2202 72.9271 52.4188C73.1258 52.5181 73.3245 52.6174 73.6225 52.6174C73.9206 52.6174 74.1193 52.5181 74.318 52.4188Z" fill="#1A171B"/>
<path fill-rule="evenodd" clip-rule="evenodd" d="M99.6537 52.4188H100.051L100.15 52.9152L96.9711 53.1137L96.8717 53.0145V52.4188C96.673 52.6174 96.375 52.8159 95.9775 53.0145C95.5801 53.213 95.2821 53.3123 94.8846 53.3123C93.9904 53.3123 93.2949 53.0145 92.6988 52.3195C92.1027 51.7239 91.8046 50.8304 91.8046 49.8376C91.8046 48.8448 92.202 48.1498 92.7982 47.4549C93.3943 46.76 94.1891 46.4621 95.0833 46.4621C95.4808 46.4621 95.7788 46.4621 96.0769 46.5614C96.375 46.6607 96.5737 46.76 96.7724 46.8592V44.7744C96.7724 44.5758 96.7724 44.3773 96.673 44.278L96.375 43.9802C96.2756 43.8809 96.0769 43.7816 95.8782 43.7816C95.6795 43.6823 95.4808 43.6823 95.2821 43.6823V43.1859L98.7595 42.9874L98.8589 43.0867V51.6246C98.8589 51.7239 98.8589 51.9224 98.9582 52.0217L99.2563 52.3195C99.2974 52.3195 99.3386 52.3366 99.3868 52.3565C99.455 52.3847 99.5373 52.4188 99.6537 52.4188ZM96.2756 52.121C96.4743 52.0217 96.673 51.9224 96.7724 51.7239H96.5737V48.0506C96.5737 47.9513 96.5737 47.852 96.4743 47.7527C96.4743 47.6535 96.375 47.5542 96.2756 47.4549C96.2756 47.4549 96.0769 47.3556 95.9775 47.2563C95.7788 47.1571 95.6795 47.1571 95.4808 47.1571C94.984 47.1571 94.6859 47.3556 94.3879 47.852C94.0898 48.3484 93.9904 49.0434 93.9904 49.9369C93.9904 50.2347 93.9904 50.5325 94.0898 50.8304C94.1891 51.1282 94.2885 51.426 94.3879 51.6246C94.4872 51.8231 94.6859 52.0217 94.8846 52.121C95.0833 52.2202 95.282 52.3195 95.5801 52.3195C95.8782 52.3195 96.0769 52.2202 96.2756 52.121Z" fill="#1A171B"/>
<path fill-rule="evenodd" clip-rule="evenodd" d="M106.211 52.0217C106.509 51.7239 106.807 51.426 107.006 51.1282L107.701 51.6246C107.602 51.7238 107.503 51.8479 107.403 51.972C107.304 52.0961 107.205 52.2202 107.105 52.3195C106.936 52.5729 106.767 52.6826 106.537 52.832C106.497 52.8582 106.454 52.8856 106.41 52.9152C106.112 53.1137 105.814 53.213 105.516 53.3123C105.218 53.4116 104.92 53.4116 104.522 53.4116C103.827 53.4116 103.33 53.3123 102.833 53.1137C102.336 53.0145 101.939 52.7166 101.641 52.4188C101.343 52.121 101.144 51.7239 100.945 51.3267C100.931 51.2544 100.916 51.1841 100.902 51.1154C100.819 50.7125 100.747 50.3609 100.747 49.9369C100.747 49.4405 100.747 49.0433 100.945 48.6462C101.144 48.2491 101.343 47.852 101.641 47.5542C101.939 47.1571 102.237 46.9585 102.734 46.76C103.131 46.5614 103.628 46.4621 104.224 46.4621C104.82 46.4621 105.317 46.5614 105.714 46.6607C106.112 46.76 106.41 46.9585 106.708 47.2563C106.907 47.5541 107.105 47.8521 107.205 48.1498C107.222 48.2179 107.239 48.2831 107.255 48.3463C107.335 48.652 107.403 48.9129 107.403 49.2419V49.639H103.032C103.032 50.5325 103.23 51.1282 103.529 51.6246C103.827 52.121 104.423 52.3195 105.118 52.3195C105.516 52.3195 105.913 52.2202 106.211 52.0217ZM103.23 47.4549C103.032 47.7527 102.932 48.3484 102.932 49.0434L104.92 49.1426V48.3484C104.92 48.0506 104.92 47.852 104.82 47.6535C104.721 47.4549 104.621 47.2563 104.522 47.1571C104.423 47.0578 104.224 46.9585 104.025 46.9585C103.727 46.9585 103.429 47.1571 103.23 47.4549Z" fill="#1A171B"/>
<path d="M119.127 51.0289C119.326 50.7311 119.525 50.334 119.724 49.9369H120.022L119.724 53.0145H111.08V52.6174L117.041 44.3773H114.16C113.961 44.3773 113.862 44.3773 113.663 44.4766C113.464 44.5758 113.265 44.7744 113.067 45.0722C112.868 45.3701 112.57 45.8665 112.172 46.5614H111.676L111.974 43.7816H120.022V44.1787L114.06 52.4188H116.345C117.041 52.4188 117.538 52.4188 117.836 52.3195C118.134 52.3195 118.333 52.2202 118.432 52.0217C118.73 51.7239 118.929 51.426 119.127 51.0289Z" fill="#1A171B"/>
<path fill-rule="evenodd" clip-rule="evenodd" d="M127.672 52.4188H128.069L127.97 52.5181C127.858 52.5738 127.747 52.5983 127.618 52.6266C127.517 52.6487 127.405 52.6731 127.275 52.7166C127.076 52.8159 126.778 52.8159 126.48 52.8159C125.884 52.8159 125.585 52.8159 125.287 52.6174C125.089 52.4188 124.89 52.2202 124.791 51.9224C124.721 52.0609 124.604 52.151 124.505 52.2266C124.462 52.2594 124.423 52.2895 124.393 52.3195C124.294 52.4188 124.195 52.5181 123.996 52.6174C123.797 52.7166 123.598 52.8159 123.4 52.8159C123.201 52.9152 122.903 52.9152 122.605 52.9152C122.108 52.9152 121.711 52.8159 121.313 52.5181C121.015 52.2202 120.816 51.8231 120.816 51.3267C120.816 51.0289 120.816 50.8304 120.916 50.6318C120.916 50.5116 120.989 50.4277 121.068 50.3362C121.12 50.2766 121.175 50.2137 121.214 50.1354C121.313 50.0858 121.388 50.0361 121.462 49.9865C121.537 49.9368 121.611 49.8872 121.711 49.8376L122.307 49.5397C122.383 49.5206 122.464 49.5015 122.547 49.4817C122.896 49.3985 123.297 49.3029 123.698 49.1426C124.044 49.0734 124.342 48.9559 124.592 48.8575C124.7 48.8147 124.8 48.7756 124.89 48.7455V47.7527C124.89 47.5542 124.89 47.3556 124.791 47.2563C124.691 47.0578 124.592 46.9585 124.493 46.8592C124.393 46.76 124.195 46.76 123.996 46.76C123.797 46.76 123.598 46.76 123.499 46.8592C123.449 46.9089 123.4 46.9337 123.35 46.9585C123.3 46.9833 123.251 47.0081 123.201 47.0578C123.201 47.1571 123.201 47.2563 123.3 47.4549C123.4 47.6535 123.4 47.7527 123.4 47.9513C123.4 48.0009 123.375 48.0506 123.35 48.1002C123.325 48.1498 123.3 48.1995 123.3 48.2491C123.251 48.2988 123.226 48.3484 123.201 48.398C123.176 48.4477 123.151 48.4973 123.102 48.547C123.002 48.6462 122.903 48.7455 122.804 48.7455C122.605 48.8448 122.505 48.8448 122.207 48.8448C121.909 48.8448 121.611 48.7455 121.413 48.547C121.214 48.3484 121.114 48.1498 121.114 47.852C121.114 47.5542 121.214 47.3556 121.413 47.1571C121.611 46.9585 121.81 46.76 122.108 46.6607C122.307 46.5614 122.605 46.4621 123.002 46.3628C123.4 46.2636 123.698 46.2636 123.996 46.2636C124.493 46.2636 124.791 46.2636 125.188 46.3628C125.585 46.3628 125.884 46.4621 126.182 46.6607C126.38 46.8592 126.579 47.0578 126.778 47.3556C126.877 47.6535 126.976 47.9513 126.976 48.4477V51.5253C126.976 51.7239 126.976 51.9224 127.076 52.0217C127.142 52.1541 127.208 52.1982 127.275 52.2423C127.308 52.2644 127.341 52.2864 127.374 52.3195C127.374 52.4188 127.473 52.4188 127.672 52.4188ZM124.393 52.121L124.791 51.7239V49.5397C124.691 49.5894 124.567 49.639 124.443 49.6887C124.319 49.7383 124.195 49.7879 124.095 49.8376C123.896 49.9038 123.786 49.9699 123.676 50.0361C123.62 50.0692 123.565 50.1023 123.499 50.1354C123.3 50.334 123.201 50.4332 123.102 50.6318C123.002 50.8304 123.002 51.0289 123.002 51.3267C123.002 51.6246 123.002 51.8231 123.201 52.0217C123.4 52.121 123.598 52.2202 123.797 52.2202C123.996 52.2202 124.195 52.2202 124.393 52.121Z" fill="#1A171B"/>
<path d="M141.085 52.4188C141.184 52.5181 141.383 52.5181 141.482 52.5181V53.0145H137.608V52.4188H137.906C137.955 52.4188 138.005 52.394 138.055 52.3692C138.104 52.3443 138.154 52.3195 138.204 52.3195C138.303 52.3195 138.402 52.2202 138.402 52.121V48.7455C138.402 48.3484 138.402 47.9513 138.204 47.7527C138.005 47.5542 137.806 47.4549 137.508 47.4549C137.309 47.4549 137.111 47.4549 137.011 47.5542C136.912 47.5542 136.713 47.6535 136.614 47.7527L136.316 48.0506C136.278 48.0885 136.24 48.1119 136.208 48.1319C136.155 48.1643 136.117 48.1878 136.117 48.2491V51.7239C136.117 51.8402 136.151 51.9224 136.18 51.9905C136.199 52.0387 136.217 52.0798 136.217 52.121C136.217 52.1823 136.254 52.2058 136.307 52.2381C136.339 52.2582 136.377 52.2816 136.415 52.3195C136.415 52.3195 136.515 52.4188 136.614 52.4188C136.713 52.5181 136.813 52.5181 136.912 52.5181V53.0145H133.236V52.4188H133.534C133.65 52.4188 133.699 52.3847 133.738 52.3565C133.767 52.3366 133.791 52.3195 133.832 52.3195C133.931 52.3195 134.031 52.2202 134.031 52.121V48.7455C134.031 48.3484 134.031 47.9513 133.832 47.7527C133.633 47.5542 133.435 47.4549 133.137 47.4549C132.938 47.4549 132.739 47.4549 132.64 47.5542C132.54 47.5542 132.342 47.6535 132.242 47.7527L131.944 48.0506C131.906 48.0885 131.868 48.1119 131.836 48.1319C131.783 48.1643 131.746 48.1878 131.746 48.2491V51.7239C131.746 51.8402 131.78 51.9224 131.808 51.9905C131.828 52.0387 131.845 52.0798 131.845 52.121C131.845 52.1823 131.883 52.2058 131.935 52.2381C131.968 52.2582 132.006 52.2816 132.044 52.3195C132.044 52.3195 132.143 52.4188 132.242 52.4188C132.342 52.5181 132.441 52.5181 132.54 52.5181V53.0145H128.666V52.5181H128.964C129.013 52.5181 129.063 52.4933 129.113 52.4684C129.162 52.4436 129.212 52.4188 129.262 52.4188C129.407 52.4188 129.446 52.3656 129.496 52.2981C129.514 52.2735 129.533 52.2469 129.56 52.2202C129.659 52.121 129.659 52.0217 129.659 51.8231V48.0506C129.659 47.9513 129.659 47.7527 129.56 47.6535L129.262 47.3556C129.212 47.3556 129.162 47.3308 129.113 47.306C129.063 47.2812 129.013 47.2563 128.964 47.2563C128.864 47.1571 128.666 47.1571 128.566 47.1571V46.6607L131.646 46.4621L131.746 46.5614V47.4549C131.776 47.4248 131.806 47.3857 131.839 47.3429C131.914 47.2445 132.004 47.127 132.143 47.0578C132.259 46.9415 132.376 46.8592 132.472 46.7911C132.54 46.7429 132.599 46.7018 132.64 46.6607C132.739 46.5614 132.938 46.4621 133.236 46.3628C133.435 46.2636 133.733 46.2636 134.031 46.2636C134.527 46.2636 134.925 46.3628 135.223 46.5614C135.284 46.6227 135.346 46.6797 135.405 46.7351C135.635 46.9493 135.84 47.1395 135.918 47.4549H136.018C136.217 47.3556 136.316 47.2563 136.515 47.0578C136.713 46.8592 136.813 46.76 137.011 46.6607C137.111 46.5614 137.309 46.4621 137.608 46.3628C137.806 46.2636 138.104 46.2636 138.402 46.2636C138.998 46.2636 139.495 46.4621 139.893 46.8592C140.191 47.2563 140.389 47.852 140.389 48.547V51.7239C140.389 51.8402 140.424 51.9224 140.452 51.9905C140.472 52.0387 140.489 52.0798 140.489 52.121C140.539 52.1706 140.588 52.1954 140.638 52.2203C140.688 52.2451 140.737 52.2699 140.787 52.3195C140.837 52.3195 140.886 52.3443 140.936 52.3692C140.986 52.394 141.035 52.4188 141.085 52.4188Z" fill="#1A171B"/>
<path fill-rule="evenodd" clip-rule="evenodd" d="M147.444 46.6607C147.94 46.8592 148.338 47.0578 148.636 47.3556C149.033 47.6535 149.232 47.9513 149.232 48.2491C149.431 48.7455 149.53 49.1426 149.53 49.639C149.53 50.1354 149.431 50.6318 149.232 51.0289C149.133 51.426 148.835 51.8231 148.537 52.121C148.239 52.5181 147.841 52.7166 147.344 52.9152C146.947 53.1137 146.351 53.213 145.755 53.213C145.159 53.213 144.662 53.213 144.264 53.0145C143.768 52.8159 143.37 52.6174 143.072 52.3195C142.774 52.0217 142.476 51.6246 142.277 51.2275C142.079 50.8304 141.979 50.334 141.979 49.8376C141.979 49.3412 142.079 48.8448 142.277 48.4477C142.476 48.0506 142.774 47.6535 143.072 47.3556C143.37 47.0578 143.768 46.8592 144.264 46.6607C144.761 46.4621 145.258 46.3628 145.854 46.3628C146.45 46.3628 146.947 46.4621 147.444 46.6607ZM146.649 52.4188C146.748 52.3195 146.947 52.121 147.046 51.8231C147.093 51.7295 147.118 51.6137 147.152 51.455C147.19 51.2773 147.239 51.0457 147.344 50.7311C147.444 50.4333 147.444 50.0362 147.444 49.5399C147.444 49.4017 147.422 49.2633 147.399 49.1151C147.373 48.9441 147.344 48.7598 147.344 48.547C147.344 48.1498 147.245 47.852 147.146 47.6535C147.046 47.4549 146.947 47.2563 146.748 47.0578C146.55 46.9585 146.351 46.8592 146.053 46.8592C145.755 46.8592 145.556 46.9585 145.357 47.1571C145.159 47.3556 145.059 47.5542 144.96 47.852C144.86 48.1498 144.761 48.4477 144.761 48.7455C144.662 49.0434 144.662 49.3412 144.662 49.7383V50.9296C144.662 51.2275 144.761 51.5253 144.86 51.8231C144.96 52.0217 145.059 52.2202 145.258 52.4188C145.457 52.5181 145.655 52.6174 145.953 52.6174C146.251 52.6174 146.45 52.5181 146.649 52.4188Z" fill="#1A171B"/>
<path d="M156.584 46.76C156.882 47.0578 156.982 47.3556 156.982 47.7527C156.982 48.0506 156.882 48.3484 156.485 48.547C156.286 48.8448 155.988 48.9441 155.69 48.9441C155.392 48.9441 155.094 48.9441 154.895 48.7455C154.697 48.547 154.597 48.3484 154.597 48.0506V47.6535C154.697 47.6535 154.697 47.5542 154.697 47.4549C154.498 47.4549 154.299 47.5542 154.101 47.6535C153.902 47.7527 153.703 47.9513 153.504 48.1498V51.7239C153.504 51.8402 153.538 51.9224 153.567 51.9905C153.587 52.0387 153.604 52.0798 153.604 52.121C153.604 52.1823 153.642 52.2058 153.694 52.2381C153.727 52.2582 153.765 52.2816 153.802 52.3195C153.844 52.3195 153.902 52.3366 153.97 52.3565C154.066 52.3847 154.183 52.4188 154.299 52.4188C154.498 52.5181 154.697 52.5181 154.796 52.5181V53.0145H150.424V52.5181H150.722C150.822 52.4188 150.921 52.4188 151.021 52.4188C151.166 52.4188 151.205 52.3656 151.254 52.2981C151.272 52.2734 151.292 52.2468 151.319 52.2202C151.418 52.121 151.418 52.0217 151.418 51.8231V48.0506C151.418 47.9513 151.418 47.7527 151.319 47.6535L151.021 47.3556C150.971 47.3556 150.921 47.3308 150.871 47.306C150.822 47.2812 150.772 47.2563 150.722 47.2563C150.623 47.1571 150.424 47.1571 150.325 47.1571V46.6607L153.405 46.4621L153.504 46.5614V47.4549C153.802 47.1571 154.2 46.8592 154.498 46.6607C154.895 46.4621 155.193 46.3628 155.591 46.3628C155.988 46.3628 156.386 46.5614 156.584 46.76Z" fill="#1A171B"/>
<path fill-rule="evenodd" clip-rule="evenodd" d="M164.434 52.4188H164.831L164.732 52.5181C164.62 52.5738 164.508 52.5983 164.379 52.6266C164.278 52.6487 164.167 52.6731 164.036 52.7166C163.837 52.8159 163.539 52.8159 163.241 52.8159C162.645 52.8159 162.347 52.8159 162.049 52.6174C161.85 52.4188 161.652 52.2202 161.552 51.9224C161.483 52.0609 161.365 52.151 161.267 52.2266C161.224 52.2594 161.185 52.2895 161.155 52.3195C161.055 52.4188 160.956 52.5181 160.757 52.6174C160.559 52.7166 160.36 52.8159 160.161 52.8159C159.963 52.9152 159.664 52.9152 159.366 52.9152C158.87 52.9152 158.472 52.8159 158.075 52.5181C157.777 52.2202 157.578 51.8231 157.578 51.3267C157.578 51.029 157.578 50.8303 157.677 50.6318C157.677 50.5116 157.75 50.4277 157.83 50.3362C157.882 50.2766 157.936 50.2137 157.975 50.1354C158.075 50.0858 158.149 50.0361 158.224 49.9865C158.298 49.9369 158.373 49.8872 158.472 49.8376L159.068 49.5397C159.466 49.4405 159.863 49.3412 160.459 49.1426C160.806 49.0734 161.104 48.9559 161.353 48.8575C161.462 48.8147 161.561 48.7756 161.652 48.7455V47.7527C161.652 47.5542 161.652 47.3556 161.552 47.2563C161.453 47.0578 161.353 46.9585 161.254 46.8592C161.155 46.76 160.956 46.76 160.757 46.76C160.559 46.76 160.36 46.76 160.261 46.8592C160.211 46.9089 160.161 46.9337 160.112 46.9585C160.062 46.9833 160.012 47.0081 159.963 47.0578C159.963 47.1571 159.963 47.2563 160.062 47.4549C160.161 47.6535 160.161 47.7527 160.161 47.9513C160.161 48.0009 160.136 48.0506 160.112 48.1002C160.087 48.1498 160.062 48.1995 160.062 48.2491C160.012 48.2988 159.987 48.3484 159.963 48.398C159.938 48.4477 159.913 48.4973 159.863 48.547C159.764 48.6462 159.664 48.7455 159.565 48.7455C159.366 48.8448 159.267 48.8448 158.969 48.8448C158.671 48.8448 158.373 48.7455 158.174 48.547C157.975 48.3484 157.876 48.1498 157.876 47.852C157.876 47.5542 157.975 47.3556 158.174 47.1571C158.373 46.9585 158.572 46.76 158.87 46.6607C159.068 46.5614 159.366 46.4621 159.764 46.3628C160.161 46.2636 160.459 46.2636 160.757 46.2636C161.254 46.2636 161.552 46.2636 161.95 46.3628C162.347 46.3628 162.645 46.4621 162.943 46.6607C163.142 46.8592 163.341 47.0578 163.539 47.3556C163.639 47.6535 163.738 47.9513 163.738 48.4477V51.5253C163.738 51.7239 163.738 51.9224 163.837 52.0217C163.904 52.1541 163.97 52.1982 164.036 52.2423C164.069 52.2644 164.102 52.2864 164.135 52.3195C164.135 52.4188 164.235 52.4188 164.434 52.4188ZM160.559 52.2202C160.757 52.2202 160.956 52.2202 161.155 52.121L161.552 51.7239V49.5397C161.453 49.5894 161.329 49.639 161.204 49.6887C161.08 49.7383 160.956 49.7879 160.857 49.8376C160.658 49.9038 160.548 49.9699 160.437 50.0361C160.382 50.0692 160.327 50.1023 160.261 50.1354C160.062 50.3339 159.962 50.4333 159.863 50.6318C159.764 50.8303 159.764 51.0289 159.764 51.3266C159.764 51.6245 159.764 51.8231 159.963 52.0217C160.161 52.121 160.36 52.2202 160.559 52.2202Z" fill="#1A171B"/>
</svg>
