<svg width="310" height="46" viewBox="0 0 310 46" fill="none" xmlns="http://www.w3.org/2000/svg">
<path d="M11.1681 26.8969C11.1681 29.7735 12.1834 30.1119 15.7369 30.1119C20.8133 30.1119 21.1517 27.4045 22.8439 23.2588H24.536L24.113 32.1425H0V30.4503C3.04585 30.2811 3.46889 30.1119 3.46889 27.9121V5.82971C3.46889 3.54533 3.04585 3.37611 0 3.2915V1.59937H15.1447V3.2915C11.5066 3.46072 11.1681 3.62993 11.1681 5.82971V26.8969Z" fill="black"/>
<path d="M41.3729 32.1425V30.4503L43.9957 30.1965C44.9264 30.1119 45.011 29.5196 44.6725 28.6736C43.9111 26.1354 42.8958 23.1741 42.3036 21.3974H33.6736C32.9122 23.9356 32.0661 26.4738 31.5585 28.6736C31.3046 29.6043 31.3892 30.1119 32.3199 30.1965L35.0274 30.4503V32.1425H24.8745V30.4503C27.2435 30.2811 27.6665 29.9427 28.428 28.1659C30.7124 22.8357 35.0273 9.5524 37.6502 1.34552H43.6573C46.1109 8.96015 50.5104 22.4973 52.7948 28.3351C53.4717 30.0273 54.0639 30.3657 56.3483 30.3657V32.0579L41.3729 32.1425ZM38.0732 7.43722H37.904C37.0579 10.1446 35.4504 15.6441 34.2659 19.1976H41.6267C40.696 16.321 38.9193 10.3985 38.0732 7.43722Z" fill="black"/>
<path d="M66.7549 32.1425V30.4503C69.8007 30.2811 70.1392 30.1119 70.1392 27.9121V5.91432C70.1392 3.62993 69.8007 3.37611 66.7549 3.2915V1.59937H81.8149C85.3684 1.59937 87.7374 1.85319 89.768 3.12229C91.9678 4.476 93.1523 7.09882 93.1523 10.4831C93.1523 13.4443 92.137 16.1518 90.0218 17.7593C87.9912 19.3668 85.1146 20.2129 80.6304 20.2129C79.4459 20.2129 78.5153 20.1283 77.8384 19.9591V27.9121C77.8384 30.1119 78.1768 30.3657 81.9841 30.6196V32.2271L66.7549 32.1425ZM77.8384 15.8979C77.8384 17.5901 78.9383 18.0977 80.6304 18.0977C84.4377 18.0977 85.1992 14.7981 85.1992 10.7369C85.1992 5.57589 82.8302 3.62993 80.1228 3.62993C78.0076 3.62993 77.8384 4.05297 77.8384 5.23747V15.8979Z" fill="black"/>
<path d="M104.744 27.9121C104.744 30.1119 105.082 30.3657 108.128 30.4503V32.1425H93.5754V30.4503C96.6213 30.2811 97.0443 30.1119 97.0443 27.9121V5.82971C97.0443 3.54533 96.7059 3.37611 93.5754 3.2915V1.59937H109.059C114.389 1.59937 119.55 2.19161 119.55 9.12939C119.55 13.6136 116.419 15.9826 112.02 16.4902V16.744C116.927 17.8439 118.619 20.8898 119.211 24.3586C119.888 27.7429 120.65 30.2811 123.611 30.3657V32.0579H120.057C115.15 32.0579 112.95 30.8734 111.851 27.5737C111.089 25.2893 110.835 22.9203 110.497 21.3128C109.905 18.69 108.805 17.9285 106.351 17.9285H104.744V27.9121ZM104.744 15.9826H106.436C111.089 15.9826 111.766 12.9367 111.766 9.63703C111.766 5.40668 109.735 3.62993 107.028 3.62993C104.913 3.62993 104.828 3.96836 104.828 5.23747L104.744 15.9826Z" fill="black"/>
<path d="M138.84 0.753296C148.993 0.753296 153.985 6.76039 153.985 16.8286C153.985 26.9815 148.993 32.9039 138.84 32.9039C128.687 32.9039 123.695 26.9815 123.695 16.8286C123.695 6.76039 128.687 0.753296 138.84 0.753296ZM138.755 2.86847C132.579 2.86847 132.071 11.3292 132.071 16.9132C132.071 22.9203 132.664 30.958 138.84 30.958C145.016 30.958 145.609 22.9203 145.609 16.9132C145.609 11.3292 145.101 2.86847 138.755 2.86847Z" fill="black"/>
<path d="M167.099 1.59937V3.2915L164.984 3.46072C163.968 3.54533 163.968 4.13757 164.222 5.06825C166.507 12.006 169.299 20.7205 170.991 25.2893H171.244C173.36 19.0284 176.829 7.69107 177.505 4.89904C177.675 3.96836 177.59 3.46072 176.829 3.46072L174.29 3.2915V1.59937H184.189V3.2915C181.736 3.46072 181.313 3.79915 180.467 5.99893C177.505 13.952 174.121 23.7664 171.498 32.2271H165.322C162.192 23.0895 158.215 11.2446 156.1 5.49129C155.423 3.71454 155.085 3.37611 152.885 3.2915V1.59937H167.099Z" fill="black"/>
<path d="M195.865 27.9121C195.865 30.1119 196.204 30.3657 199.249 30.4503V32.1425H184.697V30.4503C187.658 30.2811 188.081 30.1119 188.081 27.9121V5.82971C188.081 3.62993 187.658 3.37611 184.697 3.2915V1.59937H199.249V3.2915C196.204 3.37611 195.865 3.62993 195.865 5.82971V27.9121Z" fill="black"/>
<path d="M224.124 32.1424C219.047 24.0202 213.717 15.8979 208.387 7.77563H208.218V20.7205C208.218 24.5278 208.302 26.2199 208.472 27.8275C208.725 30.7887 210.333 30.1965 212.702 30.4503V32.1424H201.957V30.4503C204.326 30.1965 205.172 30.5349 205.426 27.8275C205.595 26.3046 205.595 24.6124 205.595 20.7205V5.82967C205.595 3.62988 205.172 3.37606 202.211 3.29146V1.59932H212.956C217.44 8.6217 221.924 15.1364 226.408 21.9896H226.577V12.9367C226.577 9.21395 226.493 7.4372 226.408 5.82967C226.154 2.86842 224.547 3.46067 222.093 3.20685V1.51471H232.754V3.20685C230.469 3.46067 229.708 3.12224 229.369 5.82967C229.2 7.4372 229.2 9.12934 229.2 12.9367V32.1424H224.124Z" fill="black"/>
<path d="M260.42 22.0742L259.828 30.8734C257.121 32.4809 252.552 32.9039 249.506 32.9039C237.661 32.9039 233.346 26.4738 233.346 17.2516C233.346 12.6829 234.361 8.53713 237.069 5.49127C239.692 2.61464 243.922 0.837891 250.268 0.837891C252.214 0.837891 257.121 1.17632 259.828 2.86846V10.9061H258.136C256.782 7.26802 255.598 2.95306 249.929 2.95306C241.976 2.95306 241.722 13.7828 241.722 16.4902C241.722 21.482 242.738 30.958 250.352 30.958C255.259 30.958 256.952 27.0661 258.559 22.1588L260.42 22.0742Z" fill="black"/>
<path d="M273.957 27.9121C273.957 30.1119 274.296 30.3657 277.342 30.4503V32.1425H262.789V30.4503C265.751 30.2811 266.174 30.1119 266.174 27.9121V5.82971C266.174 3.62993 265.751 3.37611 262.789 3.2915V1.59937H277.342V3.2915C274.296 3.37611 273.957 3.62993 273.957 5.82971V27.9121Z" fill="black"/>
<path d="M294.94 32.1425V30.4503L297.563 30.1965C298.493 30.1119 298.578 29.5196 298.24 28.6736C297.478 26.1354 296.463 23.1741 295.871 21.3974H287.156C286.395 23.9356 285.549 26.4738 285.041 28.6736C284.787 29.6043 284.872 30.1119 285.802 30.1965L288.51 30.4503V32.1425H278.357V30.4503C280.726 30.2811 281.149 29.9427 281.91 28.1659C284.195 22.8357 288.51 9.5524 291.133 1.34552H297.14C299.593 8.96015 303.993 22.4973 306.277 28.3351C306.954 30.0273 307.546 30.3657 309.831 30.3657V32.0579L294.94 32.1425ZM291.64 7.43722H291.471C290.625 10.1446 289.017 15.6441 287.833 19.1976H295.194C294.263 16.321 292.486 10.3985 291.64 7.43722Z" fill="black"/>
<path d="M114.981 39.5033C116.081 39.5033 116.927 39.7571 117.434 40.2647C117.942 40.7724 118.196 41.5338 118.196 42.4645C118.196 45.2565 116.165 45.595 114.642 45.595H112.02V45.2565C112.696 45.2565 112.781 45.1719 112.781 44.7489V40.3493C112.781 39.8417 112.696 39.8417 112.02 39.8417V39.5033H114.981ZM114.05 44.7489C114.05 45.0873 114.135 45.2565 114.727 45.2565C115.742 45.2565 116.673 44.8335 116.673 42.5491C116.673 40.9416 116.081 39.9263 114.727 39.9263C114.05 39.9263 113.965 40.0109 113.965 40.2647L114.05 44.7489Z" fill="#004884"/>
<path d="M120.903 44.7489C120.903 45.1719 120.988 45.2565 121.665 45.2565V45.595H118.873V45.2565C119.55 45.2565 119.634 45.1719 119.634 44.7489V40.3493C119.634 39.9263 119.55 39.8417 118.873 39.8417V39.5033H121.665V39.8417C120.988 39.8417 120.903 39.9263 120.903 40.3493V44.7489Z" fill="#004884"/>
<path d="M125.303 45.595V45.2565L125.81 45.1719C125.98 45.1719 126.064 45.0027 125.98 44.8335C125.81 44.3259 125.557 43.649 125.472 43.3106H123.695C123.526 43.8182 123.357 44.3259 123.272 44.8335C123.188 45.0027 123.272 45.1719 123.441 45.1719L123.949 45.2565V45.595H121.834V45.2565C122.342 45.2565 122.426 45.1719 122.595 44.7489C123.103 43.4798 123.865 41.1108 124.457 39.4187H125.472C125.98 40.9416 126.826 43.5644 127.333 44.8335C127.503 45.1719 127.587 45.2565 128.095 45.2565V45.595H125.303ZM124.541 40.6032C124.288 41.1954 123.949 42.2953 123.78 43.0568H125.303C125.134 42.3799 124.711 41.1954 124.541 40.6032Z" fill="#004884"/>
<path d="M130.379 44.7489C130.379 45.1719 130.464 45.2565 131.141 45.2565V45.595H128.349V45.2565C129.026 45.2565 129.11 45.1719 129.11 44.7489V40.3493C129.11 39.8417 129.026 39.8417 128.349 39.8417V39.5033H131.31C132.494 39.5033 133.34 39.8417 133.34 41.0262C133.34 41.8723 132.748 42.3799 131.902 42.5491C132.833 42.8029 133.171 43.3952 133.256 44.072C133.34 44.7489 133.51 45.2565 134.102 45.2565V45.595H133.34C132.494 45.595 132.071 45.3411 131.902 44.7489C131.733 44.3259 131.733 43.8182 131.648 43.4798C131.479 42.8876 131.225 42.7183 130.718 42.7183H130.295L130.379 44.7489ZM130.802 42.3799C131.733 42.3799 131.902 41.8723 131.902 41.1108C131.902 40.1801 131.395 39.9263 130.802 39.9263C130.295 39.9263 130.295 40.0109 130.295 40.2647V42.3799H130.802Z" fill="#004884"/>
<path d="M136.386 44.7489C136.386 45.1719 136.471 45.2565 137.148 45.2565V45.595H134.356V45.2565C135.033 45.2565 135.117 45.1719 135.117 44.7489V40.3493C135.117 39.9263 135.033 39.8417 134.356 39.8417V39.5033H137.148V39.8417C136.471 39.8417 136.386 39.9263 136.386 40.3493V44.7489Z" fill="#004884"/>
<path d="M140.786 39.3341C142.816 39.3341 143.747 40.6032 143.747 42.5491C143.747 44.4951 142.732 45.7642 140.701 45.7642C138.671 45.7642 137.655 44.5797 137.655 42.5491C137.74 40.6032 138.755 39.3341 140.786 39.3341ZM140.786 39.7571C139.432 39.7571 139.263 41.4492 139.263 42.5491C139.263 43.7336 139.432 45.3412 140.786 45.3412C142.14 45.3412 142.309 43.7336 142.309 42.5491C142.309 41.3646 142.14 39.7571 140.786 39.7571Z" fill="#004884"/>
<path d="M149.331 39.5033C150.431 39.5033 151.277 39.7571 151.785 40.2647C152.292 40.7724 152.546 41.5338 152.546 42.4645C152.546 45.2565 150.516 45.595 148.993 45.595H146.37V45.2565C147.047 45.2565 147.131 45.1719 147.131 44.7489V40.3493C147.131 39.8417 147.047 39.8417 146.37 39.8417V39.5033H149.331ZM148.401 44.7489C148.401 45.0873 148.485 45.2565 149.077 45.2565C150.093 45.2565 151.023 44.8335 151.023 42.5491C151.023 40.9416 150.431 39.9263 149.077 39.9263C148.401 39.9263 148.316 40.0109 148.316 40.2647L148.401 44.7489Z" fill="#004884"/>
<path d="M153.9 40.3493C153.9 39.8417 153.815 39.8417 153.139 39.8417V39.5033H157.792V41.1108H157.453C157.2 40.2647 157.03 39.9263 156.1 39.9263H155.423C155.169 39.9263 155.085 40.0109 155.085 40.2647V42.2953H155.931C156.523 42.2953 156.607 42.1261 156.777 41.4492H157.115V43.4798H156.777C156.692 42.8876 156.523 42.6337 155.931 42.6337H155.085V44.5797C155.085 45.1719 155.169 45.2565 156.184 45.2565C157.284 45.2565 157.453 44.8335 157.792 43.9028H158.13L157.961 45.6796H153.054V45.3412C153.731 45.3412 153.815 45.2565 153.815 44.8335L153.9 40.3493Z" fill="#004884"/>
<path d="M162.699 44.5797C162.699 45.1719 162.868 45.2565 163.714 45.2565C164.73 45.2565 164.899 44.8335 165.153 43.9028H165.491L165.407 45.6796H160.669V45.3412C161.345 45.3412 161.43 45.2565 161.43 44.8335V40.4339C161.43 39.9263 161.345 39.9263 160.669 39.9263V39.5879H163.545V39.8417C162.784 39.8417 162.699 39.9263 162.699 40.3493V44.5797Z" fill="#004884"/>
<path d="M169.214 45.595V45.2565L169.722 45.1719C169.891 45.1719 169.975 45.0027 169.891 44.8335C169.721 44.3259 169.468 43.649 169.383 43.3106H167.606C167.437 43.8182 167.268 44.3259 167.183 44.8335C167.099 45.0027 167.183 45.1719 167.353 45.1719L167.86 45.2565V45.595H165.83V45.2565C166.337 45.2565 166.422 45.1719 166.591 44.7489C167.099 43.4798 167.86 41.1108 168.452 39.4187H169.468C169.975 40.9416 170.821 43.5644 171.329 44.8335C171.498 45.1719 171.583 45.2565 172.09 45.2565V45.595H169.214ZM168.452 40.6032C168.199 41.1954 167.86 42.2953 167.691 43.0568H169.214C169.045 42.3799 168.706 41.1954 168.452 40.6032Z" fill="#004884"/>
<path d="M175.898 41.1954C175.644 40.1801 175.136 39.7571 174.544 39.7571C173.952 39.7571 173.613 40.1801 173.613 40.6878C173.613 41.3646 174.29 41.6184 174.883 41.9569C175.729 42.2953 176.575 42.7183 176.575 43.9028C176.575 44.8335 175.982 45.7642 174.29 45.7642C173.698 45.7642 172.852 45.6796 172.429 45.2565L172.344 43.649H172.683C173.021 44.7489 173.613 45.3412 174.29 45.3412C174.883 45.3412 175.306 45.0027 175.306 44.3259C175.306 43.7336 174.883 43.3952 174.121 43.0568C173.106 42.6337 172.344 42.2107 172.344 41.1108C172.344 40.0109 173.106 39.2494 174.459 39.2494C175.052 39.2494 175.644 39.4187 176.067 39.6725V41.1108L175.898 41.1954Z" fill="#004884"/>
<path d="M179.028 45.595V45.2565C179.705 45.2565 179.79 45.1719 179.79 44.7489V40.3493C179.79 39.9263 179.705 39.8417 179.028 39.8417V39.5033H181.905C182.582 39.5033 183.089 39.5879 183.512 39.8417C183.935 40.0955 184.189 40.6032 184.189 41.28C184.189 42.0415 183.851 42.5491 183.343 42.8875C182.92 43.1414 182.497 43.226 181.736 43.226C181.482 43.226 181.228 43.226 181.143 43.1414V44.7489C181.143 45.1719 181.228 45.2565 181.99 45.2565V45.595H179.028ZM181.143 42.3799C181.143 42.7183 181.397 42.8029 181.82 42.8029C182.582 42.8029 182.836 42.2107 182.836 41.28C182.836 40.2647 182.328 39.8417 181.651 39.8417C181.143 39.8417 181.143 39.9263 181.143 40.1801V42.3799Z" fill="#004884"/>
<path d="M187.151 45.595V45.2565L187.658 45.1719C187.827 45.1719 187.912 45.0027 187.827 44.8335C187.658 44.3259 187.404 43.649 187.32 43.3106H185.543C185.374 43.8182 185.205 44.3259 185.12 44.8335C185.035 45.0027 185.12 45.1719 185.289 45.1719L185.797 45.2565V45.595H183.766V45.2565C184.274 45.2565 184.359 45.1719 184.528 44.7489C185.035 43.4798 185.797 41.1108 186.389 39.4187H187.404C187.912 40.9416 188.758 43.5644 189.266 44.8335C189.435 45.1719 189.52 45.2565 190.027 45.2565V45.595H187.151ZM186.389 40.6032C186.135 41.1954 185.797 42.2953 185.628 43.0568H187.151C186.981 42.3799 186.643 41.1954 186.389 40.6032Z" fill="#004884"/>
<path d="M192.227 44.5797C192.227 45.1719 192.396 45.2565 193.242 45.2565C194.258 45.2565 194.427 44.8335 194.681 43.9028H195.019L194.934 45.6796H190.196V45.3412C190.873 45.3412 190.958 45.2565 190.958 44.8335V40.4339C190.958 39.9263 190.873 39.9263 190.196 39.9263V39.5879H193.073V39.8417C192.312 39.8417 192.227 39.9263 192.227 40.3493V44.5797Z" fill="#004884"/>
<path d="M195.442 45.595V45.2565C195.95 45.1719 196.119 45.2565 196.203 44.7489C196.203 44.4105 196.288 44.072 196.288 43.3952V40.2647C196.288 39.8417 196.203 39.7571 195.527 39.7571V39.4187H197.726C198.234 40.6032 198.996 42.5491 199.419 43.4798C199.926 42.2107 200.518 40.6878 201.026 39.4187H203.141V39.8417C202.464 39.8417 202.38 39.9263 202.38 40.3493V44.7489C202.38 45.1719 202.464 45.2565 203.141 45.2565V45.595H200.434V45.2565C201.111 45.2565 201.195 45.1719 201.195 44.7489V40.3493C200.688 41.703 199.588 44.6643 199.249 45.595H198.742C198.149 44.072 197.219 41.5338 196.796 40.3493V43.4798C196.796 44.1567 196.796 44.4951 196.88 44.8335C196.965 45.3412 197.219 45.2565 197.726 45.3412V45.6796L195.442 45.595Z" fill="#004884"/>
<path d="M206.695 45.595V45.2565L207.202 45.1719C207.372 45.1719 207.456 45.0027 207.372 44.8335C207.202 44.3259 206.949 43.649 206.864 43.3106H205.087C204.918 43.8182 204.749 44.3259 204.664 44.8335C204.58 45.0027 204.664 45.1719 204.833 45.1719L205.341 45.2565V45.595H203.31V45.2565C203.818 45.2565 203.903 45.1719 204.072 44.7489C204.58 43.4798 205.341 41.1108 205.933 39.4187H206.949C207.456 40.9416 208.302 43.5644 208.81 44.8335C208.979 45.1719 209.064 45.2565 209.571 45.2565V45.595H206.695ZM206.018 40.6032C205.764 41.1954 205.426 42.2953 205.256 43.0568H206.779C206.526 42.3799 206.187 41.1954 206.018 40.6032Z" fill="#004884"/>
<path d="M213.379 41.1954C213.125 40.1801 212.617 39.7571 212.025 39.7571C211.433 39.7571 211.094 40.1801 211.094 40.6878C211.094 41.3646 211.771 41.6184 212.363 41.9569C213.21 42.2953 214.056 42.7183 214.056 43.9028C214.056 44.8335 213.463 45.7642 211.771 45.7642C211.179 45.7642 210.333 45.6796 209.91 45.2565L209.825 43.649H210.164C210.502 44.7489 211.094 45.3412 211.771 45.3412C212.363 45.3412 212.786 45.0027 212.786 44.3259C212.786 43.7336 212.363 43.3952 211.602 43.0568C210.587 42.6337 209.825 42.2107 209.825 41.1108C209.825 40.0109 210.587 39.2494 211.94 39.2494C212.533 39.2494 213.125 39.4187 213.548 39.6725V41.1108L213.379 41.1954Z" fill="#004884"/>
</svg>
