<svg width="193" height="55" viewBox="0 0 193 55" fill="none" xmlns="http://www.w3.org/2000/svg">
<path d="M0 41.4847V0H8.63483V33.9762H29.3772V41.3909C29.3772 41.4847 0 41.4847 0 41.4847ZM44.2066 16.6127C42.1417 16.6127 40.5462 17.1758 39.4199 18.396C38.2936 19.5222 37.5428 21.1178 37.2612 23.1827H51.0581C50.8704 21.0239 50.2134 19.4284 48.8994 18.3021C47.6793 17.1758 46.0837 16.6127 44.2066 16.6127ZM44.2066 9.94883C46.8346 9.94883 49.2749 10.4181 51.4336 11.3567C53.5923 12.2953 55.3756 13.797 56.6896 15.8618C57.9097 17.6451 58.7544 19.8038 59.1298 22.2441C59.3176 23.6519 59.4114 25.7168 59.4114 28.3448H37.0735C37.1673 31.4421 38.2936 33.6008 40.2646 34.8209C41.4847 35.5718 42.9865 35.9472 44.6759 35.9472C46.4592 35.9472 47.9609 35.4779 49.0872 34.5393C49.7441 34.07 50.3073 33.3192 50.7766 32.4745H58.9421C58.7544 34.2578 57.722 36.1349 55.9387 38.012C53.2169 41.0155 49.3687 42.5172 44.3943 42.5172C40.3585 42.5172 36.698 41.297 33.6008 38.7629C30.5035 36.2288 28.9079 32.1929 28.9079 26.4676C28.9079 21.1178 30.3158 17.082 33.1315 14.2662C36.041 11.4505 39.7015 9.94883 44.2066 9.94883ZM72.3637 33.4131L78.9336 10.7935H87.5685L76.3995 41.4847H67.9524L56.9711 10.7935H65.9814L72.3637 33.4131ZM104.463 29.5649V26.5615C103.993 26.8431 103.43 27.1246 102.867 27.3124C102.304 27.5001 101.647 27.6878 100.708 27.8755L98.9252 28.2509C97.2357 28.5325 96.0156 28.9079 95.2647 29.3772C94.0446 30.1281 93.3876 31.2543 93.3876 32.7561C93.3876 34.1639 93.763 35.1025 94.5139 35.7595C95.2647 36.3226 96.2033 36.698 97.3296 36.698C99.1129 36.698 100.708 36.2288 102.21 35.1963C103.618 34.0701 104.463 32.1929 104.463 29.5649ZM96.8603 23.1827L99.5822 22.8072C101.084 22.6195 102.116 22.3379 102.773 22.0564C103.9 21.5871 104.463 20.8362 104.463 19.8038C104.463 18.5837 103.993 17.6451 103.149 17.1758C102.304 16.7065 100.99 16.425 99.3006 16.425C97.4234 16.425 96.0156 16.8942 95.2647 17.8328C94.7016 18.4898 94.3262 19.4284 94.1385 20.6485H86.3483C86.536 17.9267 87.2869 15.768 88.6009 14.0785C90.7596 11.3567 94.42 10.0427 99.5822 10.0427C102.961 10.0427 105.964 10.6997 108.592 12.0137C111.22 13.3277 112.534 15.8618 112.534 19.5222V33.6008L112.628 37.1673C112.722 38.1998 112.816 38.9506 113.098 39.326C113.379 39.7015 113.755 39.983 114.318 40.2646V41.4847H105.589C105.307 40.8277 105.214 40.2646 105.12 39.7015C105.026 39.1383 104.932 38.5752 104.932 37.8243C103.806 39.0445 102.492 40.0769 101.084 40.9216C99.3944 41.954 97.4234 42.4233 95.1709 42.4233C92.3552 42.4233 90.1026 41.6725 88.2255 40.0769C86.4422 38.4813 85.5036 36.2288 85.5036 33.3192C85.5036 29.5649 87.0053 26.8431 89.9149 25.1536C91.3227 24.2151 93.6692 23.5581 96.8603 23.1827ZM133.277 10.0427C136.468 10.0427 139.002 10.8874 141.067 12.5768C143.132 14.2662 144.07 16.9881 144.07 20.8362V41.4847H135.811V22.8072C135.811 21.2117 135.623 19.9915 135.154 19.0529C134.403 17.4574 132.901 16.7065 130.649 16.7065C127.927 16.7065 126.05 17.8328 125.111 20.1792C124.548 21.3994 124.36 22.9949 124.36 24.8721V41.4847H116.383V10.8874H124.173V15.3925C125.205 13.797 126.144 12.6707 127.082 12.0137C128.678 10.6997 130.743 10.0427 133.277 10.0427ZM145.197 16.8004V11.0751H149.514V2.53414H157.492V11.0751H162.466V16.8004H157.492V33.0376C157.492 34.2578 157.68 35.1025 157.961 35.384C158.243 35.6656 159.275 35.8533 160.871 35.8533H162.466V41.8602L158.712 42.0479C154.958 42.1417 152.33 41.4847 150.922 40.0769C149.983 39.1383 149.608 37.7305 149.608 35.8533V16.8004H145.197ZM177.202 16.6127C175.137 16.6127 173.541 17.1758 172.415 18.396C171.289 19.6161 170.538 21.1178 170.256 23.1827H184.053C183.866 21.0239 183.209 19.4284 181.895 18.3021C180.674 17.1758 179.079 16.6127 177.202 16.6127ZM177.202 9.94883C179.83 9.94883 182.27 10.4181 184.429 11.3567C186.587 12.2953 188.371 13.797 189.685 15.8618C190.905 17.6451 191.75 19.8038 192.125 22.2441C192.313 23.6519 192.407 25.7168 192.407 28.3448H170.069C170.163 31.4421 171.289 33.6008 173.26 34.8209C174.48 35.5718 175.982 35.9472 177.671 35.9472C179.454 35.9472 180.956 35.4779 182.082 34.5393C182.739 34.07 183.302 33.3192 183.772 32.4745H191.937C191.75 34.2578 190.717 36.1349 188.934 38.012C186.212 41.0155 182.364 42.5172 177.39 42.5172C173.26 42.5172 169.693 41.297 166.596 38.7629C163.499 36.2288 161.903 32.1929 161.903 26.4676C161.903 21.1178 163.311 17.082 166.127 14.2662C169.036 11.4505 172.697 9.94883 177.202 9.94883Z" fill="#1A171B"/>
<path d="M10.6059 47.8669C10.6059 47.3037 10.512 47.2099 9.6673 47.2099V46.7406H16.1434V48.8993H15.6741C15.2987 47.773 15.0171 47.3037 13.8909 47.3037H13.0462C12.6707 47.3037 12.6707 47.3976 12.6707 47.6791V50.3071H13.7032C14.454 50.3071 14.5479 50.1194 14.8294 49.2747H15.2987V52.0904H14.8294C14.6417 51.2457 14.454 50.9641 13.7032 50.9641H12.6707V53.4983C12.6707 54.2491 12.7646 54.343 14.0786 54.343C15.4864 54.343 15.6741 53.5921 16.1434 52.372H16.6127L16.425 54.8123H9.6673V54.343C10.512 54.343 10.6059 54.2491 10.6059 53.686V47.8669ZM20.5547 53.4044C20.5547 54.1553 20.8363 54.2491 21.7748 54.2491C23.1827 54.2491 23.2766 53.4983 23.652 52.4658H24.1213L24.0274 54.8123H17.5513V54.343C18.396 54.343 18.4899 54.2491 18.4899 53.686V47.8669C18.4899 47.3037 18.396 47.2099 17.5513 47.2099V46.7406H21.5871V47.2099C20.5547 47.2099 20.4608 47.3037 20.4608 47.8669L20.5547 53.4044ZM27.3124 54.8123V54.343C27.9694 54.2491 28.1571 54.343 28.251 53.686C28.3448 53.3106 28.3448 52.8413 28.3448 51.8088V47.8669C28.3448 47.3037 28.251 47.2099 27.4063 47.2099V46.7406H30.6912C31.1605 48.1484 32.2868 50.8703 32.6622 51.8088C33.3192 50.0256 33.8824 48.5239 34.4455 46.7406H37.5428V47.2099C36.6981 47.2099 36.6042 47.3037 36.6042 47.8669V53.686C36.6042 54.2491 36.6981 54.343 37.5428 54.343V54.8123H33.7885V54.343C34.6332 54.343 34.7271 54.2491 34.7271 53.686V47.8669C34.0701 49.744 32.7561 53.5921 32.3807 54.8123H31.6298C30.7851 52.5597 29.7527 49.3686 29.0957 47.8669V51.715C29.0957 52.7474 29.0957 53.2167 29.1895 53.5921C29.2834 54.343 29.6588 54.2491 30.3158 54.2491V54.7184H27.3124V54.8123ZM39.5138 47.8669C39.5138 47.3037 39.4199 47.2099 38.5752 47.2099V46.7406H45.0513V48.8993H44.5821C44.2066 47.773 43.9251 47.3037 42.7049 47.3037H41.8602C41.4848 47.3037 41.4848 47.3976 41.4848 47.6791V50.3071H42.5172C43.2681 50.3071 43.3619 50.1194 43.6435 49.2747H44.1128V52.0904H43.6435C43.4558 51.2457 43.2681 50.9641 42.5172 50.9641H41.4848V53.4983C41.4848 54.2491 41.5786 54.343 42.8926 54.343C44.3005 54.343 44.4882 53.5921 44.9575 52.372H45.4268L45.2391 54.8123H38.4814V54.343C39.3261 54.343 39.4199 54.2491 39.4199 53.686V47.8669H39.5138ZM49.3688 53.686C49.3688 54.2491 49.4626 54.343 50.3073 54.343V54.8123H46.3653V54.343C47.2101 54.343 47.3039 54.2491 47.3039 53.686V47.8669C47.3039 47.3037 47.2101 47.2099 46.3653 47.2099V46.7406H50.5889C51.9968 46.7406 53.4046 46.9283 53.4046 48.7116C53.4046 49.9317 52.5599 50.4949 51.3398 50.6826V50.7764C52.6538 51.058 53.123 51.9027 53.3108 52.7474C53.4985 53.686 53.6862 54.343 54.5309 54.343V54.8123H53.5923C52.2783 54.8123 51.6213 54.5307 51.3398 53.5921C51.152 53.029 51.0582 52.372 50.9643 51.9027C50.7766 51.2457 50.495 51.058 49.838 51.058H49.3688V53.686ZM49.3688 50.4949H49.838C51.152 50.4949 51.2459 49.6501 51.2459 48.8054C51.2459 47.6791 50.6828 47.2099 49.9319 47.2099C49.3688 47.2099 49.3688 47.3037 49.3688 47.5853C49.3688 47.6791 49.3688 50.4949 49.3688 50.4949ZM62.321 52.0904L62.1333 54.4368C61.3824 54.9061 60.1623 55 59.3176 55C56.1265 55 54.9063 53.3106 54.9063 50.8703C54.9063 49.6501 55.1879 48.6177 55.9387 47.773C56.6896 47.0221 57.8159 46.5529 59.5053 46.5529C60.0685 46.5529 61.3824 46.6467 62.1333 47.116V49.2747H61.664C61.2886 48.3361 61.007 47.2099 59.4114 47.2099C57.2527 47.2099 57.1589 50.1194 57.1589 50.7764C57.1589 52.0904 57.4405 54.6246 59.5053 54.6246C60.8193 54.6246 61.2886 53.5921 61.7579 52.2781C61.8517 52.0904 62.321 52.0904 62.321 52.0904ZM67.4831 54.343L68.234 54.2491C68.5156 54.2491 68.5156 54.0614 68.4217 53.8737C68.234 53.2167 67.9524 52.372 67.7647 51.9966H65.4183C65.2306 52.6536 64.949 53.3106 64.8551 53.9676C64.7613 54.2491 64.8552 54.343 65.0429 54.343L65.7937 54.4368V54.9061H63.0719V54.4368C63.7289 54.4368 63.8227 54.343 64.0104 53.8737C64.6674 52.4659 65.7937 48.9931 66.5446 46.8344H68.1401C68.7971 48.8054 70.0173 52.4659 70.5804 53.9676C70.7681 54.4368 70.9558 54.5307 71.519 54.5307V55H67.4831V54.343ZM66.5446 48.2423C66.263 48.9931 65.7937 50.401 65.5122 51.3396H67.4831C67.2954 50.5887 66.7323 49.087 66.5446 48.2423ZM77.8074 54.8123C76.3995 52.6536 74.9917 50.4949 73.49 48.3361H73.3961V51.715C73.3961 52.7474 73.3961 53.1228 73.49 53.5921C73.5838 54.343 73.9593 54.2491 74.6163 54.2491V54.7184H71.7067V54.2491C72.3637 54.1553 72.5514 54.2491 72.6453 53.5921C72.7391 53.2167 72.7391 52.7474 72.7391 51.715V47.773C72.7391 47.2099 72.6453 47.116 71.8006 47.116V46.6467H74.7101C75.9303 48.5239 77.1504 50.2133 78.3705 51.9966H78.4644V49.6501C78.4644 48.6177 78.4644 48.2423 78.3705 47.773C78.2767 47.0221 77.9012 47.116 77.1504 47.116V46.6467H80.06V47.116C79.403 47.2099 79.2152 47.116 79.1214 47.773C79.1214 48.1484 79.0275 48.6177 79.0275 49.6501V54.7184L77.8074 54.8123ZM85.4098 53.686C85.4098 54.0614 85.5037 54.2491 85.8791 54.343L86.5361 54.4368V54.9061H82.2187V54.4368L82.8757 54.343C83.2511 54.343 83.345 54.1553 83.345 53.686V47.3037H82.8757C81.8432 47.3037 81.6555 47.8669 81.1862 48.9931H80.717V46.7406H87.9439V48.9931H87.4746C87.0054 47.8669 86.9115 47.3037 85.7852 47.3037H85.4098V53.686ZM91.7921 53.686C91.7921 54.2491 91.8859 54.343 92.7306 54.343V54.8123H88.7887V54.343C89.6334 54.343 89.7272 54.2491 89.7272 53.686V47.8669C89.7272 47.3037 89.6334 47.2099 88.7887 47.2099V46.7406H92.7306V47.2099C91.8859 47.2099 91.7921 47.3037 91.7921 47.8669V53.686ZM96.5788 53.4044C96.5788 54.1553 96.8603 54.2491 97.7989 54.2491C99.2068 54.2491 99.3006 53.4983 99.676 52.4658H100.145L100.051 54.8123H93.5753V54.343C94.4201 54.343 94.5139 54.2491 94.5139 53.686V47.8669C94.5139 47.3037 94.4201 47.2099 93.5753 47.2099V46.7406H97.705V47.2099C96.6726 47.2099 96.5788 47.3037 96.5788 47.8669V53.4044ZM106.809 46.7406V47.2099L106.246 47.3037C105.964 47.3037 105.964 47.4914 106.058 47.6791C106.621 49.4624 107.466 51.8089 107.842 53.029H107.935C108.499 51.3396 109.437 48.43 109.625 47.6791C109.625 47.3976 109.625 47.3037 109.437 47.3037L108.78 47.2099V46.7406H111.502V47.2099C110.845 47.3037 110.751 47.3037 110.47 47.9607C109.625 50.0256 108.78 52.6536 108.029 54.9061H106.34C105.495 52.4658 104.369 49.3686 103.806 47.8669C103.618 47.3976 103.524 47.3037 102.961 47.3037V46.8344C102.961 46.7406 106.809 46.7406 106.809 46.7406ZM114.881 54.343L115.632 54.2491C115.913 54.2491 115.913 54.0614 115.819 53.8737C115.632 53.2167 115.35 52.372 115.162 51.9966H112.816C112.628 52.6536 112.347 53.3106 112.253 53.9676C112.159 54.2491 112.253 54.343 112.441 54.343L113.191 54.4368V54.9061H110.47V54.4368C111.127 54.4368 111.22 54.343 111.408 53.8737C111.971 52.4659 113.191 48.9931 113.942 46.8344H115.538C116.195 48.8054 117.415 52.4659 117.978 53.9676C118.166 54.4368 118.354 54.5307 118.917 54.5307V55H114.881V54.343ZM114.036 48.2423C113.755 48.9931 113.285 50.401 113.004 51.3396H114.975C114.693 50.5887 114.224 49.087 114.036 48.2423ZM122.389 53.4044C122.389 54.1553 122.671 54.2491 123.61 54.2491C125.017 54.2491 125.111 53.4983 125.487 52.4658H125.956L125.862 54.8123H119.386V54.343C120.231 54.343 120.325 54.2491 120.325 53.686V47.8669C120.325 47.3037 120.231 47.2099 119.386 47.2099V46.7406H123.516V47.2099C122.483 47.2099 122.389 47.3037 122.389 47.8669V53.4044ZM127.645 47.8669C127.645 47.3037 127.552 47.2099 126.707 47.2099V46.7406H133.183V48.8993H132.714C132.338 47.773 132.057 47.3037 130.93 47.3037H130.086C129.71 47.3037 129.71 47.3976 129.71 47.6791V50.3071H130.743C131.494 50.3071 131.587 50.1194 131.869 49.2747H132.338V52.0904H131.869C131.681 51.2457 131.494 50.9641 130.743 50.9641H129.71V53.4983C129.71 54.2491 129.804 54.343 131.118 54.343C132.526 54.343 132.714 53.5921 133.183 52.372H133.652L133.465 54.8123H126.707V54.343C127.552 54.343 127.645 54.2491 127.645 53.686V47.8669ZM140.504 54.8123C139.096 52.6536 137.688 50.4949 136.28 48.3361H136.186V51.715C136.186 52.7474 136.186 53.1228 136.28 53.5921C136.374 54.343 136.75 54.2491 137.407 54.2491V54.7184H134.497V54.2491C135.154 54.1553 135.342 54.2491 135.436 53.5921C135.529 53.2167 135.529 52.7474 135.529 51.715V47.773C135.529 47.2099 135.436 47.116 134.591 47.116V46.6467H137.5C138.721 48.5239 139.941 50.2133 141.161 51.9966H141.255V49.6501C141.255 48.6177 141.255 48.2423 141.161 47.773C141.067 47.0221 140.692 47.116 139.941 47.116V46.6467H142.85V47.116C142.193 47.2099 142.005 47.116 141.912 47.773C141.912 48.1484 141.818 48.6177 141.818 49.6501V54.7184L140.504 54.8123ZM151.016 52.0904L150.828 54.4368C150.077 54.9061 148.857 55 148.012 55C144.821 55 143.601 53.3106 143.601 50.8703C143.601 49.6501 143.883 48.6177 144.633 47.773C145.384 47.0221 146.511 46.5529 148.2 46.5529C148.763 46.5529 150.077 46.6467 150.828 47.116V49.2747H150.359C149.983 48.3361 149.702 47.2099 148.106 47.2099C145.947 47.2099 145.854 50.1194 145.854 50.7764C145.854 52.0904 146.135 54.6246 148.2 54.6246C149.514 54.6246 149.983 53.5921 150.453 52.2781C150.546 52.0904 151.016 52.0904 151.016 52.0904ZM154.958 53.686C154.958 54.2491 155.052 54.343 155.896 54.343V54.8123H151.954V54.343C152.799 54.343 152.893 54.2491 152.893 53.686V47.8669C152.893 47.3037 152.799 47.2099 151.954 47.2099V46.7406H155.896V47.2099C155.052 47.2099 154.958 47.3037 154.958 47.8669V53.686ZM160.777 54.343L161.528 54.2491C161.809 54.2491 161.809 54.0614 161.715 53.8737C161.528 53.2167 161.246 52.372 161.058 51.9966H158.712C158.524 52.6536 158.243 53.3106 158.149 53.9676C158.055 54.2491 158.149 54.343 158.337 54.343L159.087 54.4368V54.9061H156.366V54.4368C157.023 54.4368 157.116 54.343 157.304 53.8737C157.867 52.4659 159.087 48.9931 159.838 46.8344H161.434C162.091 48.8054 163.311 52.4659 163.874 53.9676C164.062 54.4368 164.25 54.5307 164.813 54.5307V55H160.777V54.343ZM159.932 48.2423C159.651 48.9931 159.181 50.401 158.9 51.3396H160.871C160.589 50.5887 160.12 49.087 159.932 48.2423ZM171.195 54.8123C169.787 52.6536 168.379 50.4949 166.971 48.3361H166.878V51.715C166.878 52.7474 166.878 53.1228 166.971 53.5921C167.065 54.343 167.441 54.2491 168.098 54.2491V54.7184H165.188V54.2491C165.845 54.1553 166.033 54.2491 166.127 53.5921C166.221 53.2167 166.221 52.7474 166.221 51.715V47.773C166.221 47.2099 166.127 47.116 165.282 47.116V46.6467H168.192C169.412 48.5239 170.632 50.2133 171.852 51.9966H171.946V49.6501C171.946 48.6177 171.946 48.2423 171.852 47.773C171.758 47.0221 171.383 47.116 170.632 47.116V46.6467H173.541V47.116C172.884 47.2099 172.697 47.116 172.603 47.773C172.603 48.1484 172.509 48.6177 172.509 49.6501V54.7184L171.195 54.8123ZM178.422 46.5529C181.144 46.5529 182.552 48.1484 182.552 50.7764C182.552 53.4044 181.238 55 178.422 55C175.7 55 174.292 53.4044 174.292 50.7764C174.292 48.1484 175.7 46.5529 178.422 46.5529ZM178.422 47.0221C176.733 47.0221 176.639 49.2747 176.639 50.6826C176.639 52.2781 176.826 54.343 178.516 54.343C180.205 54.343 180.299 52.1843 180.299 50.6826C180.299 49.2747 180.111 47.0221 178.422 47.0221Z" fill="#1A171B"/>
</svg>
